SplineFontDB: 3.2
FontName: TengwarMiriel-BoldItalic
FullName: Tengwar Miriel Bold Italic
FamilyName: Tengwar Miriel
Weight: Bold
Copyright: Shankar Sivarajan.\nBased on Tengwar Tellepsalinnacontar by Bas van Hoorn.
Version: 
ItalicAngle: 0
UnderlinePosition: -292
UnderlineWidth: 150
Ascent: 1638
Descent: 410
InvalidEm: 0
LayerCount: 2
Layer: 0 1 "Back" 1
Layer: 1 1 "Fore" 0
XUID: [1021 146 -1796264217 602]
StyleMap: 0x0021
FSType: 0
OS2Version: 3
OS2_WeightWidthSlopeOnly: 0
OS2_UseTypoMetrics: 0
CreationTime: 1275331820
ModificationTime: 1686854877
PfmFamily: 33
TTFWeight: 700
TTFWidth: 5
LineGap: 67
VLineGap: 0
Panose: 2 11 6 4 2 2 2 2 2 4
OS2TypoAscent: 1491
OS2TypoAOffset: 0
OS2TypoDescent: -431
OS2TypoDOffset: 0
OS2TypoLinegap: 307
OS2WinAscent: 1854
OS2WinAOffset: 0
OS2WinDescent: 434
OS2WinDOffset: 0
HheadAscent: 1854
HheadAOffset: 0
HheadDescent: -434
HheadDOffset: 0
OS2SubXSize: 1434
OS2SubYSize: 1331
OS2SubXOff: 0
OS2SubYOff: 283
OS2SupXSize: 1434
OS2SupYSize: 1331
OS2SupXOff: 0
OS2SupYOff: 977
OS2StrikeYSize: 102
OS2StrikeYPos: 512
OS2CapHeight: 1466
OS2XHeight: 1062
OS2FamilyClass: 2053
OS2Vendor: 'HL  '
OS2CodePages: 20000011.00000000
OS2UnicodeRanges: 800000af.1000005a.00000000.00000000
Lookup: 6 0 0 "WidthAdjust" { "WidthAdjust contextual 0"  "WidthAdjust contextual 1"  "WidthAdjust contextual 2"  "WidthAdjust contextual 3"  "WidthAdjust contextual 4"  "WidthAdjust contextual 5"  "WidthAdjust contextual 6"  "WidthAdjust contextual 7"  } ['liga' ('latn' <'dflt' > 'DFLT' <'dflt' > ) ]
Lookup: 1 0 0 "Single Substitution lookup 1" { "Single Substitution lookup 1 subtable"  } []
Lookup: 1 0 0 "Single Substitution lookup 2" { "Single Substitution lookup 2 subtable"  } []
Lookup: 1 0 0 "Single Substitution lookup 3" { "Single Substitution lookup 3 subtable"  } []
Lookup: 1 0 0 "Single Substitution lookup 4" { "Single Substitution lookup 4 subtable"  } []
Lookup: 1 0 0 "Single Substitution lookup 5" { "Single Substitution lookup 5 subtable"  } []

StartChar: .notdef
Encoding: 126 -1 0
Width: 1553
GlyphClass: 1
Flags: W
LayerCount: 2
Fore
SplineSet
227 -20 m 1,0,-1
 462 1083 l 1,1,-1
 1565 1083 l 1,2,-1
 1330 -20 l 1,3,-1
 227 -20 l 1,0,-1
392 115 m 1,4,-1
 1223 115 l 1,5,-1
 1400 948 l 1,6,-1
 569 948 l 1,7,-1
 392 115 l 1,4,-1
EndSplineSet
EndChar

StartChar: uniE000
Encoding: 8 57344 4
Width: 1093
GlyphClass: 1
Flags: W
AnchorPoint: "TehtaBelow" 693 -200 basechar 0
AnchorPoint: "TehtaAbove" 893 1500 basechar 0
LayerCount: 2
Fore
SplineSet
244 -426 m 1,0,-1
 16 -426 l 1,1,-1
 336 1081 l 1,2,-1
 564 1081 l 1,3,-1
 544 984 l 1,4,5
 612 1046 612 1046 687.5 1075.5 c 128,-1,6
 763 1105 763 1105 851 1105 c 0,7,8
 940 1105 940 1105 1007.5 1068.5 c 128,-1,9
 1075 1032 1075 1032 1115 961.5 c 128,-1,10
 1155 891 1155 891 1163.5 787 c 128,-1,11
 1172 683 1172 683 1144 549 c 0,12,13
 1115 409 1115 409 1043.5 270.5 c 128,-1,14
 972 132 972 132 857 -20 c 1,15,-1
 628 -20 l 1,16,17
 717 114 717 114 770.5 206.5 c 128,-1,18
 824 299 824 299 847 350 c 0,19,20
 870 405 870 405 887.5 455.5 c 128,-1,21
 905 506 905 506 915 555 c 0,22,23
 933 637 933 637 932.5 703.5 c 128,-1,24
 932 770 932 770 915.5 817 c 128,-1,25
 899 864 899 864 867 890 c 128,-1,26
 835 916 835 916 790 916 c 0,27,28
 739 916 739 916 690.5 893 c 128,-1,29
 642 870 642 870 601 834.5 c 128,-1,30
 560 799 560 799 528 756 c 128,-1,31
 496 713 496 713 478 673 c 1,32,-1
 244 -426 l 1,0,-1
EndSplineSet
EndChar

StartChar: uniE001
Encoding: 9 57345 5
Width: 1170
GlyphClass: 1
Flags: W
AnchorPoint: "TehtaBelow" 770 -200 basechar 0
AnchorPoint: "TehtaAbove" 970 1500 basechar 0
LayerCount: 2
Fore
SplineSet
754 175 m 1,0,1
 789 235 789 235 811.5 277 c 128,-1,2
 834 319 834 319 848 351 c 0,3,4
 874 408 874 408 891.5 459 c 128,-1,5
 909 510 909 510 918 555 c 0,6,7
 934 632 934 632 934 698 c 128,-1,8
 934 764 934 764 917.5 812.5 c 128,-1,9
 901 861 901 861 869 888.5 c 128,-1,10
 837 916 837 916 790 916 c 0,11,12
 753 916 753 916 715.5 903 c 128,-1,13
 678 890 678 890 643 868 c 128,-1,14
 608 846 608 846 578 816.5 c 128,-1,15
 548 787 548 787 526 753 c 0,16,17
 451 644 451 644 414 468 c 0,18,19
 394 374 394 374 383 304 c 128,-1,20
 372 234 372 234 368 175 c 1,21,-1
 754 175 l 1,0,1
330 -20 m 1,22,-1
 244 -426 l 1,23,-1
 16 -426 l 1,24,-1
 336 1081 l 1,25,-1
 564 1081 l 1,26,-1
 544 984 l 1,27,28
 612 1046 612 1046 688 1075.5 c 128,-1,29
 764 1105 764 1105 852 1105 c 256,30,31
 940 1105 940 1105 1007.5 1068.5 c 128,-1,32
 1075 1032 1075 1032 1114.5 961 c 128,-1,33
 1154 890 1154 890 1163 786.5 c 128,-1,34
 1172 683 1172 683 1144 549 c 0,35,36
 1124 457 1124 457 1085.5 363 c 128,-1,37
 1047 269 1047 269 991 175 c 1,38,-1
 1141 175 l 1,39,-1
 1099 -20 l 1,40,-1
 330 -20 l 1,22,-1
EndSplineSet
EndChar

StartChar: uniE002
Encoding: 10 57346 6
Width: 1095
GlyphClass: 1
Flags: W
AnchorPoint: "TehtaAbove" 895 1500 basechar 0
AnchorPoint: "TehtaBelow" 695 -200 basechar 0
LayerCount: 2
Fore
SplineSet
972 1081 m 1,0,-1
 1199 1081 l 1,1,-1
 879 -426 l 1,2,-1
 652 -426 l 1,3,-1
 759 76 l 1,4,5
 690 14 690 14 614 -15.5 c 128,-1,6
 538 -45 538 -45 449 -45 c 0,7,8
 361 -45 361 -45 293.5 -8 c 128,-1,9
 226 29 226 29 186.5 100.5 c 128,-1,10
 147 172 147 172 138 275.5 c 128,-1,11
 129 379 129 379 157 512 c 0,12,13
 186 651 186 651 257.5 790 c 128,-1,14
 329 929 329 929 444 1081 c 1,15,-1
 672 1081 l 1,16,17
 615 994 615 994 574 928 c 128,-1,18
 533 862 533 862 504 810 c 128,-1,19
 475 758 475 758 456 717.5 c 128,-1,20
 437 677 437 677 424 642 c 128,-1,21
 411 607 411 607 402.5 574.5 c 128,-1,22
 394 542 394 542 386 506 c 0,23,24
 368 422 368 422 369 355 c 128,-1,25
 370 288 370 288 386.5 241 c 128,-1,26
 403 194 403 194 434 169 c 128,-1,27
 465 144 465 144 508 144 c 2,28,-1
 512 144 l 2,29,30
 562 144 562 144 610.5 166 c 128,-1,31
 659 188 659 188 700.5 223 c 128,-1,32
 742 258 742 258 774.5 301.5 c 128,-1,33
 807 345 807 345 825 387 c 1,34,-1
 972 1081 l 1,0,-1
EndSplineSet
EndChar

StartChar: uniE003
Encoding: 11 57347 7
Width: 1172
GlyphClass: 1
Flags: W
AnchorPoint: "TehtaBelow" 772 -200 basechar 0
AnchorPoint: "TehtaAbove" 972 1500 basechar 0
LayerCount: 2
Fore
SplineSet
626 886 m 1,0,1
 582 814 582 814 553 758.5 c 128,-1,2
 524 703 524 703 506 658.5 c 128,-1,3
 488 614 488 614 477.5 577 c 128,-1,4
 467 540 467 540 460 506 c 0,5,6
 443 426 443 426 443.5 359.5 c 128,-1,7
 444 293 444 293 460.5 245 c 128,-1,8
 477 197 477 197 509 170.5 c 128,-1,9
 541 144 541 144 588 144 c 0,10,11
 624 144 624 144 660.5 156.5 c 128,-1,12
 697 169 697 169 731.5 190.5 c 128,-1,13
 766 212 766 212 797.5 242 c 128,-1,14
 829 272 829 272 853 308 c 0,15,16
 890 360 890 360 917 430 c 128,-1,17
 944 500 944 500 963 589 c 1,18,-1
 965 602 l 1,19,20
 983 689 983 689 994 758.5 c 128,-1,21
 1005 828 1005 828 1010 886 c 1,22,-1
 626 886 l 1,0,1
279 1081 m 1,23,-1
 1275 1081 l 1,24,-1
 955 -425 l 1,25,-1
 728 -425 l 1,26,-1
 835 76 l 1,27,28
 766 14 766 14 690 -15.5 c 128,-1,29
 614 -45 614 -45 526 -45 c 256,30,31
 438 -45 438 -45 370.5 -8.5 c 128,-1,32
 303 28 303 28 263.5 98.5 c 128,-1,33
 224 169 224 169 214.5 273 c 128,-1,34
 205 377 205 377 234 512 c 0,35,36
 273 698 273 698 386 886 c 1,37,-1
 238 886 l 1,38,-1
 279 1081 l 1,23,-1
EndSplineSet
EndChar

StartChar: uniE004
Encoding: 12 57348 8
Width: 1729
GlyphClass: 1
Flags: W
AnchorPoint: "TehtaBelow" 1029 -200 basechar 0
AnchorPoint: "TehtaAbove" 1229 1500 basechar 0
LayerCount: 2
Fore
SplineSet
245 -426 m 1,0,-1
 17 -426 l 1,1,-1
 337 1081 l 1,2,-1
 565 1081 l 1,3,-1
 545 984 l 1,4,5
 613 1046 613 1046 687.5 1075.5 c 128,-1,6
 762 1105 762 1105 850 1105 c 0,7,8
 1044 1105 1044 1105 1124 930 c 1,9,10
 1200 1018 1200 1018 1288.5 1061.5 c 128,-1,11
 1377 1105 1377 1105 1469 1105 c 0,12,13
 1571 1105 1571 1105 1642 1066.5 c 128,-1,14
 1713 1028 1713 1028 1752 956 c 128,-1,15
 1791 884 1791 884 1797 781 c 128,-1,16
 1803 678 1803 678 1776 549 c 0,17,18
 1747 409 1747 409 1675.5 270.5 c 128,-1,19
 1604 132 1604 132 1489 -20 c 1,20,-1
 1263 -20 l 1,21,22
 1350 114 1350 114 1405 207 c 128,-1,23
 1460 300 1460 300 1482 351 c 1,24,-1
 1481 350 l 1,25,26
 1502 404 1502 404 1520 456.5 c 128,-1,27
 1538 509 1538 509 1547 555 c 0,28,29
 1565 639 1565 639 1564.5 706 c 128,-1,30
 1564 773 1564 773 1547.5 819.5 c 128,-1,31
 1531 866 1531 866 1499 891 c 128,-1,32
 1467 916 1467 916 1423 916 c 0,33,34
 1375 916 1375 916 1331.5 890 c 128,-1,35
 1288 864 1288 864 1251 816 c 128,-1,36
 1214 768 1214 768 1185 700.5 c 128,-1,37
 1156 633 1156 633 1138 549 c 0,38,39
 1109 409 1109 409 1038 269.5 c 128,-1,40
 967 130 967 130 853 -20 c 1,41,-1
 625 -20 l 1,42,43
 681 67 681 67 722 134 c 128,-1,44
 763 201 763 201 792.5 253.5 c 128,-1,45
 822 306 822 306 841.5 347.5 c 128,-1,46
 861 389 861 389 874 423.5 c 128,-1,47
 887 458 887 458 895.5 489.5 c 128,-1,48
 904 521 904 521 911 555 c 0,49,50
 928 636 928 636 928 702.5 c 128,-1,51
 928 769 928 769 911.5 816.5 c 128,-1,52
 895 864 895 864 864 890 c 128,-1,53
 833 916 833 916 788 916 c 0,54,55
 744 916 744 916 697 895.5 c 128,-1,56
 650 875 650 875 607.5 841.5 c 128,-1,57
 565 808 565 808 531.5 765.5 c 128,-1,58
 498 723 498 723 480 678 c 1,59,-1
 245 -426 l 1,0,-1
EndSplineSet
EndChar

StartChar: uniE005
Encoding: 13 57349 9
Width: 1810
GlyphClass: 1
Flags: W
AnchorPoint: "TehtaAbove" 1310 1500 basechar 0
AnchorPoint: "TehtaBelow" 1110 -200 basechar 0
LayerCount: 2
Fore
SplineSet
331 -20 m 1,0,-1
 245 -426 l 1,1,-1
 18 -426 l 1,2,-1
 338 1081 l 1,3,-1
 565 1081 l 1,4,-1
 545 984 l 1,5,6
 613 1046 613 1046 688 1075.5 c 128,-1,7
 763 1105 763 1105 851 1105 c 0,8,9
 945 1105 945 1105 1014.5 1061.5 c 128,-1,10
 1084 1018 1084 1018 1125 930 c 1,11,12
 1200 1020 1200 1020 1288 1062.5 c 128,-1,13
 1376 1105 1376 1105 1469 1105 c 0,14,15
 1574 1105 1574 1105 1645 1065 c 128,-1,16
 1716 1025 1716 1025 1754.5 952 c 128,-1,17
 1793 879 1793 879 1798.5 776.5 c 128,-1,18
 1804 674 1804 674 1777 549 c 0,19,20
 1757 457 1757 457 1719 363 c 128,-1,21
 1681 269 1681 269 1625 175 c 1,22,-1
 1778 175 l 1,23,-1
 1736 -20 l 1,24,-1
 331 -20 l 1,0,-1
1386 175 m 1,25,26
 1429 247 1429 247 1456.5 299 c 128,-1,27
 1484 351 1484 351 1501.5 393.5 c 128,-1,28
 1519 436 1519 436 1529.5 474 c 128,-1,29
 1540 512 1540 512 1549 555 c 0,30,31
 1566 634 1566 634 1566 700.5 c 128,-1,32
 1566 767 1566 767 1549.5 815 c 128,-1,33
 1533 863 1533 863 1500.5 889.5 c 128,-1,34
 1468 916 1468 916 1421 916 c 256,35,36
 1374 916 1374 916 1331 889.5 c 128,-1,37
 1288 863 1288 863 1251 815 c 128,-1,38
 1214 767 1214 767 1185 699.5 c 128,-1,39
 1156 632 1156 632 1138 549 c 2,40,-1
 1137 544 l 2,41,42
 1117 451 1117 451 1080 360 c 128,-1,43
 1043 269 1043 269 988 175 c 1,44,-1
 1386 175 l 1,25,26
750 175 m 1,45,46
 790 240 790 240 817 291.5 c 128,-1,47
 844 343 844 343 862 387 c 128,-1,48
 880 431 880 431 891 471.5 c 128,-1,49
 902 512 902 512 911 555 c 0,50,51
 929 639 929 639 928.5 705.5 c 128,-1,52
 928 772 928 772 911.5 819 c 128,-1,53
 895 866 895 866 863.5 891 c 128,-1,54
 832 916 832 916 789 916 c 0,55,56
 753 916 753 916 716 903.5 c 128,-1,57
 679 891 679 891 644.5 869 c 128,-1,58
 610 847 610 847 580 817 c 128,-1,59
 550 787 550 787 527 753 c 0,60,61
 453 646 453 646 415 467 c 0,62,63
 395 373 395 373 384 303.5 c 128,-1,64
 373 234 373 234 369 175 c 1,65,-1
 750 175 l 1,45,46
EndSplineSet
EndChar

StartChar: uniE006
Encoding: 14 57350 10
Width: 1731
GlyphClass: 1
Flags: W
AnchorPoint: "TehtaBelow" 1031 -200 basechar 0
AnchorPoint: "TehtaAbove" 1231 1500 basechar 0
LayerCount: 2
Fore
SplineSet
1605 1081 m 1,0,-1
 1831 1081 l 1,1,-1
 1511 -425 l 1,2,-1
 1285 -425 l 1,3,-1
 1392 76 l 1,4,5
 1323 14 1323 14 1248 -15.5 c 128,-1,6
 1173 -45 1173 -45 1085 -45 c 0,7,8
 912 -45 912 -45 824 102 c 1,9,-1
 825 100 l 1,10,11
 816 110 816 110 809 126 c 1,12,13
 733 39 733 39 643.5 -3 c 128,-1,14
 554 -45 554 -45 467 -45 c 0,15,16
 363 -45 363 -45 291.5 -5.5 c 128,-1,17
 220 34 220 34 181.5 106.5 c 128,-1,18
 143 179 143 179 137.5 282 c 128,-1,19
 132 385 132 385 159 512 c 0,20,21
 217 782 217 782 445 1081 c 1,22,-1
 673 1081 l 1,23,24
 616 994 616 994 575 927.5 c 128,-1,25
 534 861 534 861 505 809.5 c 128,-1,26
 476 758 476 758 456.5 717.5 c 128,-1,27
 437 677 437 677 424.5 642 c 128,-1,28
 412 607 412 607 403.5 574.5 c 128,-1,29
 395 542 395 542 387 506 c 0,30,31
 369 423 369 423 370 356 c 128,-1,32
 371 289 371 289 387.5 242 c 128,-1,33
 404 195 404 195 435.5 169.5 c 128,-1,34
 467 144 467 144 511 144 c 0,35,36
 560 144 560 144 604.5 171 c 128,-1,37
 649 198 649 198 686.5 246.5 c 128,-1,38
 724 295 724 295 752.5 363 c 128,-1,39
 781 431 781 431 798 512 c 0,40,41
 857 785 857 785 1085 1081 c 1,42,-1
 1310 1081 l 1,43,44
 1253 994 1253 994 1212 927.5 c 128,-1,45
 1171 861 1171 861 1142 809.5 c 128,-1,46
 1113 758 1113 758 1093.5 717.5 c 128,-1,47
 1074 677 1074 677 1061.5 642 c 128,-1,48
 1049 607 1049 607 1040.5 574.5 c 128,-1,49
 1032 542 1032 542 1024 506 c 0,50,51
 1006 422 1006 422 1007 355 c 128,-1,52
 1008 288 1008 288 1024.5 241 c 128,-1,53
 1041 194 1041 194 1072.5 169 c 128,-1,54
 1104 144 1104 144 1147 144 c 0,55,56
 1188 144 1188 144 1234.5 164 c 128,-1,57
 1281 184 1281 184 1324 217 c 128,-1,58
 1367 250 1367 250 1402.5 293 c 128,-1,59
 1438 336 1438 336 1457 382 c 1,60,-1
 1605 1081 l 1,0,-1
EndSplineSet
EndChar

StartChar: uniE007
Encoding: 15 57351 11
Width: 1812
GlyphClass: 1
Flags: W
AnchorPoint: "TehtaAbove" 1312 1500 basechar 0
AnchorPoint: "TehtaBelow" 1112 -200 basechar 0
LayerCount: 2
Fore
SplineSet
280 1081 m 1,0,-1
 1912 1081 l 1,1,-1
 1592 -426 l 1,2,-1
 1364 -426 l 1,3,-1
 1471 76 l 1,4,5
 1402 14 1402 14 1327 -15.5 c 128,-1,6
 1252 -45 1252 -45 1164 -45 c 0,7,8
 992 -45 992 -45 904 102 c 1,9,-1
 905 100 l 1,10,11
 900 107 900 107 896.5 113.5 c 128,-1,12
 893 120 893 120 889 127 c 1,13,14
 813 39 813 39 724 -3 c 128,-1,15
 635 -45 635 -45 546 -45 c 0,16,17
 443 -45 443 -45 372 -6 c 128,-1,18
 301 33 301 33 262 106 c 128,-1,19
 223 179 223 179 217 281.5 c 128,-1,20
 211 384 211 384 238 512 c 0,21,22
 258 605 258 605 297 698 c 128,-1,23
 336 791 336 791 393 886 c 1,24,-1
 239 886 l 1,25,-1
 280 1081 l 1,0,-1
630 886 m 1,26,27
 598 834 598 834 573 787.5 c 128,-1,28
 548 741 548 741 536 711 c 0,29,30
 511 654 511 654 493.5 601.5 c 128,-1,31
 476 549 476 549 467 506 c 0,32,33
 449 422 449 422 449.5 355 c 128,-1,34
 450 288 450 288 467.5 241 c 128,-1,35
 485 194 485 194 517 169 c 128,-1,36
 549 144 549 144 594 144 c 256,37,38
 639 144 639 144 682.5 169.5 c 128,-1,39
 726 195 726 195 763 242.5 c 128,-1,40
 800 290 800 290 829.5 358 c 128,-1,41
 859 426 859 426 877 512 c 0,42,43
 897 605 897 605 935 698.5 c 128,-1,44
 973 792 973 792 1030 886 c 1,45,-1
 630 886 l 1,26,27
1267 886 m 1,46,47
 1233 831 1233 831 1209 785 c 128,-1,48
 1185 739 1185 739 1171 710 c 1,49,-1
 1173 711 l 1,50,51
 1147 654 1147 654 1130 602 c 128,-1,52
 1113 550 1113 550 1104 506 c 0,53,54
 1086 422 1086 422 1087 355 c 128,-1,55
 1088 288 1088 288 1104.5 241 c 128,-1,56
 1121 194 1121 194 1152.5 169 c 128,-1,57
 1184 144 1184 144 1227 144 c 0,58,59
 1263 144 1263 144 1300 157 c 128,-1,60
 1337 170 1337 170 1371.5 192.5 c 128,-1,61
 1406 215 1406 215 1436.5 245 c 128,-1,62
 1467 275 1467 275 1489 308 c 0,63,64
 1561 410 1561 410 1599 589 c 1,65,-1
 1601 602 l 1,66,67
 1619 689 1619 689 1630 758.5 c 128,-1,68
 1641 828 1641 828 1646 886 c 1,69,-1
 1267 886 l 1,46,47
EndSplineSet
EndChar

StartChar: uniE008
Encoding: 16 57352 12
Width: 1093
GlyphClass: 1
Flags: W
AnchorPoint: "TehtaAbove" 893 1500 basechar 0
AnchorPoint: "TehtaBelow" 693 -200 basechar 0
LayerCount: 2
Fore
SplineSet
330 -20 m 1,0,-1
 102 -20 l 1,1,-1
 422 1485 l 1,2,-1
 650 1485 l 1,3,-1
 544 984 l 1,4,5
 612 1046 612 1046 687.5 1075.5 c 128,-1,6
 763 1105 763 1105 851 1105 c 0,7,8
 940 1105 940 1105 1007.5 1068.5 c 128,-1,9
 1075 1032 1075 1032 1115 961.5 c 128,-1,10
 1155 891 1155 891 1163.5 787 c 128,-1,11
 1172 683 1172 683 1144 549 c 0,12,13
 1115 409 1115 409 1043.5 270.5 c 128,-1,14
 972 132 972 132 857 -20 c 1,15,-1
 628 -20 l 1,16,17
 717 114 717 114 770.5 206.5 c 128,-1,18
 824 299 824 299 847 350 c 0,19,20
 870 405 870 405 887.5 455.5 c 128,-1,21
 905 506 905 506 915 555 c 0,22,23
 933 637 933 637 932.5 703.5 c 128,-1,24
 932 770 932 770 915.5 817 c 128,-1,25
 899 864 899 864 867 890 c 128,-1,26
 835 916 835 916 790 916 c 0,27,28
 739 916 739 916 690.5 893 c 128,-1,29
 642 870 642 870 601 834.5 c 128,-1,30
 560 799 560 799 528 756 c 128,-1,31
 496 713 496 713 478 673 c 1,32,-1
 330 -20 l 1,0,-1
EndSplineSet
EndChar

StartChar: uniE009
Encoding: 17 57353 13
Width: 1170
GlyphClass: 1
Flags: W
AnchorPoint: "TehtaAbove" 970 1500 basechar 0
AnchorPoint: "TehtaBelow" 770 -200 basechar 0
LayerCount: 2
Fore
SplineSet
754 175 m 1,0,1
 789 235 789 235 811.5 277 c 128,-1,2
 834 319 834 319 848 351 c 0,3,4
 874 408 874 408 891.5 459 c 128,-1,5
 909 510 909 510 918 555 c 0,6,7
 934 632 934 632 934 698 c 128,-1,8
 934 764 934 764 917.5 812.5 c 128,-1,9
 901 861 901 861 869 888.5 c 128,-1,10
 837 916 837 916 790 916 c 0,11,12
 753 916 753 916 715.5 903 c 128,-1,13
 678 890 678 890 643 868 c 128,-1,14
 608 846 608 846 578 816.5 c 128,-1,15
 548 787 548 787 526 753 c 0,16,17
 451 644 451 644 414 468 c 0,18,19
 394 374 394 374 383 304 c 128,-1,20
 372 234 372 234 368 175 c 1,21,-1
 754 175 l 1,0,1
1099 -20 m 1,22,-1
 102 -20 l 1,23,-1
 422 1485 l 1,24,-1
 650 1485 l 1,25,-1
 544 984 l 1,26,27
 612 1046 612 1046 688 1075.5 c 128,-1,28
 764 1105 764 1105 852 1105 c 256,29,30
 940 1105 940 1105 1007.5 1068.5 c 128,-1,31
 1075 1032 1075 1032 1114.5 961 c 128,-1,32
 1154 890 1154 890 1163 786.5 c 128,-1,33
 1172 683 1172 683 1144 549 c 0,34,35
 1124 457 1124 457 1085.5 363 c 128,-1,36
 1047 269 1047 269 991 175 c 1,37,-1
 1141 175 l 1,38,-1
 1099 -20 l 1,22,-1
EndSplineSet
EndChar

StartChar: uniE00A
Encoding: 18 57354 14
Width: 1095
GlyphClass: 1
Flags: W
AnchorPoint: "TehtaBelow" 695 -200 basechar 0
AnchorPoint: "TehtaAbove" 895 1500 basechar 0
LayerCount: 2
Fore
SplineSet
1058 1485 m 1,0,-1
 1285 1485 l 1,1,-1
 965 -20 l 1,2,-1
 738 -20 l 1,3,-1
 759 76 l 1,4,5
 690 14 690 14 614 -15.5 c 128,-1,6
 538 -45 538 -45 449 -45 c 0,7,8
 361 -45 361 -45 293.5 -8 c 128,-1,9
 226 29 226 29 186.5 100.5 c 128,-1,10
 147 172 147 172 138 275.5 c 128,-1,11
 129 379 129 379 157 512 c 0,12,13
 186 651 186 651 257.5 790 c 128,-1,14
 329 929 329 929 444 1081 c 1,15,-1
 672 1081 l 1,16,17
 615 994 615 994 574 928 c 128,-1,18
 533 862 533 862 504 810 c 128,-1,19
 475 758 475 758 456 717.5 c 128,-1,20
 437 677 437 677 424 642 c 128,-1,21
 411 607 411 607 402.5 574.5 c 128,-1,22
 394 542 394 542 386 506 c 0,23,24
 368 422 368 422 369 355 c 128,-1,25
 370 288 370 288 386.5 241 c 128,-1,26
 403 194 403 194 434 169 c 128,-1,27
 465 144 465 144 508 144 c 2,28,-1
 512 144 l 2,29,30
 562 144 562 144 610.5 166 c 128,-1,31
 659 188 659 188 700.5 223 c 128,-1,32
 742 258 742 258 774.5 301.5 c 128,-1,33
 807 345 807 345 825 387 c 1,34,-1
 1058 1485 l 1,0,-1
EndSplineSet
EndChar

StartChar: uniE00B
Encoding: 19 57355 15
Width: 1172
GlyphClass: 1
Flags: W
AnchorPoint: "TehtaAbove" 972 1500 basechar 0
AnchorPoint: "TehtaBelow" 772 -200 basechar 0
LayerCount: 2
Fore
SplineSet
626 886 m 1,0,1
 582 814 582 814 553 758.5 c 128,-1,2
 524 703 524 703 506 658.5 c 128,-1,3
 488 614 488 614 477.5 577 c 128,-1,4
 467 540 467 540 460 506 c 0,5,6
 443 426 443 426 443.5 359.5 c 128,-1,7
 444 293 444 293 460.5 245 c 128,-1,8
 477 197 477 197 509 170.5 c 128,-1,9
 541 144 541 144 588 144 c 0,10,11
 624 144 624 144 660.5 156.5 c 128,-1,12
 697 169 697 169 731.5 190.5 c 128,-1,13
 766 212 766 212 797.5 242 c 128,-1,14
 829 272 829 272 853 308 c 0,15,16
 890 360 890 360 917 430 c 128,-1,17
 944 500 944 500 963 589 c 1,18,-1
 965 602 l 1,19,20
 983 689 983 689 994 758.5 c 128,-1,21
 1005 828 1005 828 1010 886 c 1,22,-1
 626 886 l 1,0,1
1048 1081 m 1,23,-1
 1134 1485 l 1,24,-1
 1361 1485 l 1,25,-1
 1041 -20 l 1,26,-1
 814 -20 l 1,27,-1
 835 76 l 1,28,29
 766 14 766 14 690 -15.5 c 128,-1,30
 614 -45 614 -45 526 -45 c 256,31,32
 438 -45 438 -45 370.5 -8.5 c 128,-1,33
 303 28 303 28 263.5 98.5 c 128,-1,34
 224 169 224 169 214.5 273 c 128,-1,35
 205 377 205 377 234 512 c 0,36,37
 273 698 273 698 386 886 c 1,38,-1
 238 886 l 1,39,-1
 279 1081 l 1,40,-1
 1048 1081 l 1,23,-1
EndSplineSet
EndChar

StartChar: uniE00C
Encoding: 20 57356 16
Width: 1729
GlyphClass: 1
Flags: W
AnchorPoint: "TehtaAbove" 1229 1500 basechar 0
AnchorPoint: "TehtaBelow" 1029 -200 basechar 0
LayerCount: 2
Fore
SplineSet
331 -20 m 1,0,-1
 103 -20 l 1,1,-1
 423 1485 l 1,2,-1
 651 1485 l 1,3,-1
 545 984 l 1,4,5
 613 1046 613 1046 687.5 1075.5 c 128,-1,6
 762 1105 762 1105 850 1105 c 0,7,8
 1044 1105 1044 1105 1124 930 c 1,9,10
 1200 1018 1200 1018 1288.5 1061.5 c 128,-1,11
 1377 1105 1377 1105 1469 1105 c 0,12,13
 1571 1105 1571 1105 1642 1066.5 c 128,-1,14
 1713 1028 1713 1028 1752 956 c 128,-1,15
 1791 884 1791 884 1797 781 c 128,-1,16
 1803 678 1803 678 1776 549 c 0,17,18
 1747 409 1747 409 1675.5 270.5 c 128,-1,19
 1604 132 1604 132 1489 -20 c 1,20,-1
 1263 -20 l 1,21,22
 1350 114 1350 114 1405 207 c 128,-1,23
 1460 300 1460 300 1482 351 c 1,24,-1
 1481 350 l 1,25,26
 1502 404 1502 404 1520 456.5 c 128,-1,27
 1538 509 1538 509 1547 555 c 0,28,29
 1565 639 1565 639 1564.5 706 c 128,-1,30
 1564 773 1564 773 1547.5 819.5 c 128,-1,31
 1531 866 1531 866 1499 891 c 128,-1,32
 1467 916 1467 916 1423 916 c 0,33,34
 1375 916 1375 916 1331.5 890 c 128,-1,35
 1288 864 1288 864 1251 816 c 128,-1,36
 1214 768 1214 768 1185 700.5 c 128,-1,37
 1156 633 1156 633 1138 549 c 0,38,39
 1109 409 1109 409 1038 269.5 c 128,-1,40
 967 130 967 130 853 -20 c 1,41,-1
 625 -20 l 1,42,43
 681 67 681 67 722 134 c 128,-1,44
 763 201 763 201 792.5 253.5 c 128,-1,45
 822 306 822 306 841.5 347.5 c 128,-1,46
 861 389 861 389 874 423.5 c 128,-1,47
 887 458 887 458 895.5 489.5 c 128,-1,48
 904 521 904 521 911 555 c 0,49,50
 928 636 928 636 928 702.5 c 128,-1,51
 928 769 928 769 911.5 816.5 c 128,-1,52
 895 864 895 864 864 890 c 128,-1,53
 833 916 833 916 788 916 c 0,54,55
 744 916 744 916 697 895.5 c 128,-1,56
 650 875 650 875 607.5 841.5 c 128,-1,57
 565 808 565 808 531.5 765.5 c 128,-1,58
 498 723 498 723 480 678 c 1,59,-1
 331 -20 l 1,0,-1
EndSplineSet
EndChar

StartChar: uniE00D
Encoding: 21 57357 17
Width: 1810
GlyphClass: 1
Flags: W
AnchorPoint: "TehtaBelow" 1110 -200 basechar 0
AnchorPoint: "TehtaAbove" 1310 1500 basechar 0
LayerCount: 2
Fore
SplineSet
1736 -20 m 1,0,-1
 104 -20 l 1,1,-1
 424 1485 l 1,2,-1
 651 1485 l 1,3,-1
 545 984 l 1,4,5
 613 1046 613 1046 688 1075.5 c 128,-1,6
 763 1105 763 1105 851 1105 c 0,7,8
 945 1105 945 1105 1014.5 1061.5 c 128,-1,9
 1084 1018 1084 1018 1125 930 c 1,10,11
 1200 1020 1200 1020 1288 1062.5 c 128,-1,12
 1376 1105 1376 1105 1469 1105 c 0,13,14
 1574 1105 1574 1105 1645 1065 c 128,-1,15
 1716 1025 1716 1025 1754.5 952 c 128,-1,16
 1793 879 1793 879 1798.5 776.5 c 128,-1,17
 1804 674 1804 674 1777 549 c 0,18,19
 1757 457 1757 457 1719 363 c 128,-1,20
 1681 269 1681 269 1625 175 c 1,21,-1
 1778 175 l 1,22,-1
 1736 -20 l 1,0,-1
1386 175 m 1,23,24
 1429 247 1429 247 1456.5 299 c 128,-1,25
 1484 351 1484 351 1501.5 393.5 c 128,-1,26
 1519 436 1519 436 1529.5 474 c 128,-1,27
 1540 512 1540 512 1549 555 c 0,28,29
 1566 634 1566 634 1566 700.5 c 128,-1,30
 1566 767 1566 767 1549.5 815 c 128,-1,31
 1533 863 1533 863 1500.5 889.5 c 128,-1,32
 1468 916 1468 916 1421 916 c 256,33,34
 1374 916 1374 916 1331 889.5 c 128,-1,35
 1288 863 1288 863 1251 815 c 128,-1,36
 1214 767 1214 767 1185 699.5 c 128,-1,37
 1156 632 1156 632 1138 549 c 2,38,-1
 1137 544 l 2,39,40
 1117 451 1117 451 1080 360 c 128,-1,41
 1043 269 1043 269 988 175 c 1,42,-1
 1386 175 l 1,23,24
750 175 m 1,43,44
 790 240 790 240 817 291.5 c 128,-1,45
 844 343 844 343 862 387 c 128,-1,46
 880 431 880 431 891 471.5 c 128,-1,47
 902 512 902 512 911 555 c 0,48,49
 929 639 929 639 928.5 705.5 c 128,-1,50
 928 772 928 772 911.5 819 c 128,-1,51
 895 866 895 866 863.5 891 c 128,-1,52
 832 916 832 916 789 916 c 0,53,54
 753 916 753 916 716 903.5 c 128,-1,55
 679 891 679 891 644.5 869 c 128,-1,56
 610 847 610 847 580 817 c 128,-1,57
 550 787 550 787 527 753 c 0,58,59
 453 646 453 646 415 467 c 0,60,61
 395 373 395 373 384 303.5 c 128,-1,62
 373 234 373 234 369 175 c 1,63,-1
 750 175 l 1,43,44
EndSplineSet
EndChar

StartChar: uniE00E
Encoding: 22 57358 18
Width: 1731
GlyphClass: 1
Flags: W
AnchorPoint: "TehtaAbove" 1231 1500 basechar 0
AnchorPoint: "TehtaBelow" 1031 -200 basechar 0
LayerCount: 2
Fore
SplineSet
1691 1485 m 1,0,-1
 1917 1485 l 1,1,-1
 1597 -20 l 1,2,-1
 1371 -20 l 1,3,-1
 1392 76 l 1,4,5
 1323 14 1323 14 1248 -15.5 c 128,-1,6
 1173 -45 1173 -45 1085 -45 c 0,7,8
 912 -45 912 -45 824 102 c 1,9,-1
 825 100 l 1,10,11
 816 110 816 110 809 126 c 1,12,13
 733 39 733 39 643.5 -3 c 128,-1,14
 554 -45 554 -45 467 -45 c 0,15,16
 363 -45 363 -45 291.5 -5.5 c 128,-1,17
 220 34 220 34 181.5 106.5 c 128,-1,18
 143 179 143 179 137.5 282 c 128,-1,19
 132 385 132 385 159 512 c 0,20,21
 217 782 217 782 445 1081 c 1,22,-1
 673 1081 l 1,23,24
 616 994 616 994 575 927.5 c 128,-1,25
 534 861 534 861 505 809.5 c 128,-1,26
 476 758 476 758 456.5 717.5 c 128,-1,27
 437 677 437 677 424.5 642 c 128,-1,28
 412 607 412 607 403.5 574.5 c 128,-1,29
 395 542 395 542 387 506 c 0,30,31
 369 423 369 423 370 356 c 128,-1,32
 371 289 371 289 387.5 242 c 128,-1,33
 404 195 404 195 435.5 169.5 c 128,-1,34
 467 144 467 144 511 144 c 0,35,36
 560 144 560 144 604.5 171 c 128,-1,37
 649 198 649 198 686.5 246.5 c 128,-1,38
 724 295 724 295 752.5 363 c 128,-1,39
 781 431 781 431 798 512 c 0,40,41
 857 785 857 785 1085 1081 c 1,42,-1
 1310 1081 l 1,43,44
 1253 994 1253 994 1212 927.5 c 128,-1,45
 1171 861 1171 861 1142 809.5 c 128,-1,46
 1113 758 1113 758 1093.5 717.5 c 128,-1,47
 1074 677 1074 677 1061.5 642 c 128,-1,48
 1049 607 1049 607 1040.5 574.5 c 128,-1,49
 1032 542 1032 542 1024 506 c 0,50,51
 1006 422 1006 422 1007 355 c 128,-1,52
 1008 288 1008 288 1024.5 241 c 128,-1,53
 1041 194 1041 194 1072.5 169 c 128,-1,54
 1104 144 1104 144 1147 144 c 0,55,56
 1188 144 1188 144 1234.5 164 c 128,-1,57
 1281 184 1281 184 1324 217 c 128,-1,58
 1367 250 1367 250 1402.5 293 c 128,-1,59
 1438 336 1438 336 1457 382 c 1,60,-1
 1691 1485 l 1,0,-1
EndSplineSet
EndChar

StartChar: uniE00F
Encoding: 23 57359 19
Width: 1812
GlyphClass: 1
Flags: W
AnchorPoint: "TehtaBelow" 1112 -200 basechar 0
AnchorPoint: "TehtaAbove" 1312 1500 basechar 0
LayerCount: 2
Fore
SplineSet
1684 1081 m 1,0,-1
 1770 1485 l 1,1,-1
 1998 1485 l 1,2,-1
 1678 -20 l 1,3,-1
 1450 -20 l 1,4,-1
 1470 74 l 1,5,6
 1403 14 1403 14 1327.5 -15 c 128,-1,7
 1252 -44 1252 -44 1164 -44 c 0,8,9
 1075 -44 1075 -44 1011 -7.5 c 128,-1,10
 947 29 947 29 904 102 c 1,11,-1
 905 100 l 1,12,13
 900 107 900 107 896.5 113.5 c 128,-1,14
 893 120 893 120 889 127 c 1,15,16
 813 39 813 39 724 -2.5 c 128,-1,17
 635 -44 635 -44 546 -44 c 0,18,19
 442 -44 442 -44 371 -5 c 128,-1,20
 300 34 300 34 261.5 106 c 128,-1,21
 223 178 223 178 217 281 c 128,-1,22
 211 384 211 384 238 512 c 0,23,24
 258 605 258 605 297 698 c 128,-1,25
 336 791 336 791 393 886 c 1,26,-1
 239 886 l 1,27,-1
 280 1081 l 1,28,-1
 1684 1081 l 1,0,-1
630 886 m 1,29,30
 598 834 598 834 573 787.5 c 128,-1,31
 548 741 548 741 536 711 c 0,32,33
 511 654 511 654 493.5 601.5 c 128,-1,34
 476 549 476 549 467 506 c 0,35,36
 449 422 449 422 449.5 355 c 128,-1,37
 450 288 450 288 467.5 241 c 128,-1,38
 485 194 485 194 517 169 c 128,-1,39
 549 144 549 144 594 144 c 256,40,41
 639 144 639 144 682.5 169.5 c 128,-1,42
 726 195 726 195 763 242.5 c 128,-1,43
 800 290 800 290 829.5 358 c 128,-1,44
 859 426 859 426 877 512 c 0,45,46
 897 605 897 605 935 698.5 c 128,-1,47
 973 792 973 792 1030 886 c 1,48,-1
 630 886 l 1,29,30
1267 886 m 1,49,50
 1233 831 1233 831 1209 785 c 128,-1,51
 1185 739 1185 739 1171 710 c 1,52,-1
 1173 711 l 1,53,54
 1147 654 1147 654 1130 602 c 128,-1,55
 1113 550 1113 550 1104 506 c 0,56,57
 1086 422 1086 422 1087 355 c 128,-1,58
 1088 288 1088 288 1104.5 241 c 128,-1,59
 1121 194 1121 194 1152.5 169 c 128,-1,60
 1184 144 1184 144 1227 144 c 0,61,62
 1263 144 1263 144 1300 157 c 128,-1,63
 1337 170 1337 170 1371.5 192.5 c 128,-1,64
 1406 215 1406 215 1436.5 245 c 128,-1,65
 1467 275 1467 275 1489 308 c 0,66,67
 1561 410 1561 410 1599 589 c 1,68,-1
 1601 602 l 1,69,70
 1619 689 1619 689 1630 758.5 c 128,-1,71
 1641 828 1641 828 1646 886 c 1,72,-1
 1267 886 l 1,49,50
EndSplineSet
EndChar

StartChar: uniE010
Encoding: 24 57360 20
Width: 1729
GlyphClass: 1
Flags: W
AnchorPoint: "TehtaAbove" 1229 1500 basechar 0
AnchorPoint: "TehtaBelow" 1029 -200 basechar 0
LayerCount: 2
Fore
SplineSet
331 -20 m 1,0,-1
 103 -20 l 1,1,-1
 337 1081 l 1,2,-1
 565 1081 l 1,3,-1
 545 984 l 1,4,5
 613 1046 613 1046 687.5 1075.5 c 128,-1,6
 762 1105 762 1105 850 1105 c 0,7,8
 1044 1105 1044 1105 1124 930 c 1,9,10
 1200 1018 1200 1018 1288.5 1061.5 c 128,-1,11
 1377 1105 1377 1105 1469 1105 c 0,12,13
 1571 1105 1571 1105 1642 1066.5 c 128,-1,14
 1713 1028 1713 1028 1752 956 c 128,-1,15
 1791 884 1791 884 1797 781 c 128,-1,16
 1803 678 1803 678 1776 549 c 0,17,18
 1747 409 1747 409 1675.5 270.5 c 128,-1,19
 1604 132 1604 132 1489 -20 c 1,20,-1
 1263 -20 l 1,21,22
 1350 114 1350 114 1405 207 c 128,-1,23
 1460 300 1460 300 1482 351 c 1,24,-1
 1481 350 l 1,25,26
 1502 404 1502 404 1520 456.5 c 128,-1,27
 1538 509 1538 509 1547 555 c 0,28,29
 1565 639 1565 639 1564.5 706 c 128,-1,30
 1564 773 1564 773 1547.5 819.5 c 128,-1,31
 1531 866 1531 866 1499 891 c 128,-1,32
 1467 916 1467 916 1423 916 c 0,33,34
 1375 916 1375 916 1331.5 890 c 128,-1,35
 1288 864 1288 864 1251 816 c 128,-1,36
 1214 768 1214 768 1185 700.5 c 128,-1,37
 1156 633 1156 633 1138 549 c 0,38,39
 1109 409 1109 409 1038 269.5 c 128,-1,40
 967 130 967 130 853 -20 c 1,41,-1
 625 -20 l 1,42,43
 681 67 681 67 722 134 c 128,-1,44
 763 201 763 201 792.5 253.5 c 128,-1,45
 822 306 822 306 841.5 347.5 c 128,-1,46
 861 389 861 389 874 423.5 c 128,-1,47
 887 458 887 458 895.5 489.5 c 128,-1,48
 904 521 904 521 911 555 c 0,49,50
 928 636 928 636 928 702.5 c 128,-1,51
 928 769 928 769 911.5 816.5 c 128,-1,52
 895 864 895 864 864 890 c 128,-1,53
 833 916 833 916 788 916 c 0,54,55
 744 916 744 916 697 895.5 c 128,-1,56
 650 875 650 875 607.5 841.5 c 128,-1,57
 565 808 565 808 531.5 765.5 c 128,-1,58
 498 723 498 723 480 678 c 1,59,-1
 331 -20 l 1,0,-1
EndSplineSet
EndChar

StartChar: uniE011
Encoding: 25 57361 21
Width: 1810
GlyphClass: 1
Flags: W
AnchorPoint: "TehtaBelow" 1110 -200 basechar 0
AnchorPoint: "TehtaAbove" 1310 1500 basechar 0
LayerCount: 2
Fore
SplineSet
1736 -20 m 1,0,-1
 104 -20 l 1,1,-1
 338 1081 l 1,2,-1
 565 1081 l 1,3,-1
 545 984 l 1,4,5
 613 1046 613 1046 688 1075.5 c 128,-1,6
 763 1105 763 1105 851 1105 c 0,7,8
 945 1105 945 1105 1014.5 1061.5 c 128,-1,9
 1084 1018 1084 1018 1125 930 c 1,10,11
 1200 1020 1200 1020 1288 1062.5 c 128,-1,12
 1376 1105 1376 1105 1469 1105 c 0,13,14
 1574 1105 1574 1105 1645 1065 c 128,-1,15
 1716 1025 1716 1025 1754.5 952 c 128,-1,16
 1793 879 1793 879 1798.5 776.5 c 128,-1,17
 1804 674 1804 674 1777 549 c 0,18,19
 1757 457 1757 457 1719 363 c 128,-1,20
 1681 269 1681 269 1625 175 c 1,21,-1
 1778 175 l 1,22,-1
 1736 -20 l 1,0,-1
1386 175 m 1,23,24
 1429 247 1429 247 1456.5 299 c 128,-1,25
 1484 351 1484 351 1501.5 393.5 c 128,-1,26
 1519 436 1519 436 1529.5 474 c 128,-1,27
 1540 512 1540 512 1549 555 c 0,28,29
 1566 634 1566 634 1566 700.5 c 128,-1,30
 1566 767 1566 767 1549.5 815 c 128,-1,31
 1533 863 1533 863 1500.5 889.5 c 128,-1,32
 1468 916 1468 916 1421 916 c 256,33,34
 1374 916 1374 916 1331 889.5 c 128,-1,35
 1288 863 1288 863 1251 815 c 128,-1,36
 1214 767 1214 767 1185 699.5 c 128,-1,37
 1156 632 1156 632 1138 549 c 2,38,-1
 1137 544 l 2,39,40
 1117 451 1117 451 1080 360 c 128,-1,41
 1043 269 1043 269 988 175 c 1,42,-1
 1386 175 l 1,23,24
750 175 m 1,43,44
 790 240 790 240 817 291.5 c 128,-1,45
 844 343 844 343 862 387 c 128,-1,46
 880 431 880 431 891 471.5 c 128,-1,47
 902 512 902 512 911 555 c 0,48,49
 929 639 929 639 928.5 705.5 c 128,-1,50
 928 772 928 772 911.5 819 c 128,-1,51
 895 866 895 866 863.5 891 c 128,-1,52
 832 916 832 916 789 916 c 0,53,54
 753 916 753 916 716 903.5 c 128,-1,55
 679 891 679 891 644.5 869 c 128,-1,56
 610 847 610 847 580 817 c 128,-1,57
 550 787 550 787 527 753 c 0,58,59
 453 646 453 646 415 467 c 0,60,61
 395 373 395 373 384 303.5 c 128,-1,62
 373 234 373 234 369 175 c 1,63,-1
 750 175 l 1,43,44
EndSplineSet
EndChar

StartChar: uniE012
Encoding: 26 57362 22
Width: 1731
GlyphClass: 1
Flags: W
AnchorPoint: "TehtaAbove" 1231 1500 basechar 0
AnchorPoint: "TehtaBelow" 1031 -200 basechar 0
LayerCount: 2
Fore
SplineSet
1605 1081 m 1,0,-1
 1831 1081 l 1,1,-1
 1597 -20 l 1,2,-1
 1371 -20 l 1,3,-1
 1392 76 l 1,4,5
 1323 14 1323 14 1248 -15.5 c 128,-1,6
 1173 -45 1173 -45 1085 -45 c 0,7,8
 912 -45 912 -45 824 102 c 1,9,-1
 825 100 l 1,10,11
 816 110 816 110 809 126 c 1,12,13
 733 39 733 39 643.5 -3 c 128,-1,14
 554 -45 554 -45 467 -45 c 0,15,16
 363 -45 363 -45 291.5 -5.5 c 128,-1,17
 220 34 220 34 181.5 106.5 c 128,-1,18
 143 179 143 179 137.5 282 c 128,-1,19
 132 385 132 385 159 512 c 0,20,21
 217 782 217 782 445 1081 c 1,22,-1
 673 1081 l 1,23,24
 616 994 616 994 575 927.5 c 128,-1,25
 534 861 534 861 505 809.5 c 128,-1,26
 476 758 476 758 456.5 717.5 c 128,-1,27
 437 677 437 677 424.5 642 c 128,-1,28
 412 607 412 607 403.5 574.5 c 128,-1,29
 395 542 395 542 387 506 c 0,30,31
 369 423 369 423 370 356 c 128,-1,32
 371 289 371 289 387.5 242 c 128,-1,33
 404 195 404 195 435.5 169.5 c 128,-1,34
 467 144 467 144 511 144 c 0,35,36
 560 144 560 144 604.5 171 c 128,-1,37
 649 198 649 198 686.5 246.5 c 128,-1,38
 724 295 724 295 752.5 363 c 128,-1,39
 781 431 781 431 798 512 c 0,40,41
 857 785 857 785 1085 1081 c 1,42,-1
 1310 1081 l 1,43,44
 1253 994 1253 994 1212 927.5 c 128,-1,45
 1171 861 1171 861 1142 809.5 c 128,-1,46
 1113 758 1113 758 1093.5 717.5 c 128,-1,47
 1074 677 1074 677 1061.5 642 c 128,-1,48
 1049 607 1049 607 1040.5 574.5 c 128,-1,49
 1032 542 1032 542 1024 506 c 0,50,51
 1006 422 1006 422 1007 355 c 128,-1,52
 1008 288 1008 288 1024.5 241 c 128,-1,53
 1041 194 1041 194 1072.5 169 c 128,-1,54
 1104 144 1104 144 1147 144 c 0,55,56
 1188 144 1188 144 1234.5 164 c 128,-1,57
 1281 184 1281 184 1324 217 c 128,-1,58
 1367 250 1367 250 1402.5 293 c 128,-1,59
 1438 336 1438 336 1457 382 c 1,60,-1
 1605 1081 l 1,0,-1
EndSplineSet
EndChar

StartChar: uniE013
Encoding: 27 57363 23
Width: 1812
GlyphClass: 1
Flags: W
AnchorPoint: "TehtaBelow" 1112 -200 basechar 0
AnchorPoint: "TehtaAbove" 1312 1500 basechar 0
LayerCount: 2
Fore
SplineSet
280 1081 m 1,0,-1
 1912 1081 l 1,1,-1
 1678 -20 l 1,2,-1
 1450 -20 l 1,3,-1
 1471 76 l 1,4,5
 1402 14 1402 14 1327 -15.5 c 128,-1,6
 1252 -45 1252 -45 1164 -45 c 0,7,8
 992 -45 992 -45 904 102 c 1,9,-1
 905 100 l 1,10,11
 900 107 900 107 896.5 113.5 c 128,-1,12
 893 120 893 120 889 127 c 1,13,14
 813 39 813 39 724 -3 c 128,-1,15
 635 -45 635 -45 546 -45 c 0,16,17
 443 -45 443 -45 372 -6 c 128,-1,18
 301 33 301 33 262 106 c 128,-1,19
 223 179 223 179 217 281.5 c 128,-1,20
 211 384 211 384 238 512 c 0,21,22
 258 605 258 605 297 698 c 128,-1,23
 336 791 336 791 393 886 c 1,24,-1
 239 886 l 1,25,-1
 280 1081 l 1,0,-1
630 886 m 1,26,27
 598 834 598 834 573 787.5 c 128,-1,28
 548 741 548 741 536 711 c 0,29,30
 511 654 511 654 493.5 601.5 c 128,-1,31
 476 549 476 549 467 506 c 0,32,33
 449 422 449 422 449.5 355 c 128,-1,34
 450 288 450 288 467.5 241 c 128,-1,35
 485 194 485 194 517 169 c 128,-1,36
 549 144 549 144 594 144 c 256,37,38
 639 144 639 144 682.5 169.5 c 128,-1,39
 726 195 726 195 763 242.5 c 128,-1,40
 800 290 800 290 829.5 358 c 128,-1,41
 859 426 859 426 877 512 c 0,42,43
 897 605 897 605 935 698.5 c 128,-1,44
 973 792 973 792 1030 886 c 1,45,-1
 630 886 l 1,26,27
1267 886 m 1,46,47
 1233 831 1233 831 1209 785 c 128,-1,48
 1185 739 1185 739 1171 710 c 1,49,-1
 1173 711 l 1,50,51
 1147 654 1147 654 1130 602 c 128,-1,52
 1113 550 1113 550 1104 506 c 0,53,54
 1086 422 1086 422 1087 355 c 128,-1,55
 1088 288 1088 288 1104.5 241 c 128,-1,56
 1121 194 1121 194 1152.5 169 c 128,-1,57
 1184 144 1184 144 1227 144 c 0,58,59
 1263 144 1263 144 1300 157 c 128,-1,60
 1337 170 1337 170 1371.5 192.5 c 128,-1,61
 1406 215 1406 215 1436.5 245 c 128,-1,62
 1467 275 1467 275 1489 308 c 0,63,64
 1561 410 1561 410 1599 589 c 1,65,-1
 1601 602 l 1,66,67
 1619 689 1619 689 1630 758.5 c 128,-1,68
 1641 828 1641 828 1646 886 c 1,69,-1
 1267 886 l 1,46,47
EndSplineSet
EndChar

StartChar: uniE014
Encoding: 28 57364 24
Width: 1093
GlyphClass: 1
Flags: W
AnchorPoint: "TehtaAbove" 893 1500 basechar 0
AnchorPoint: "TehtaBelow" 693 -200 basechar 0
LayerCount: 2
Fore
SplineSet
330 -20 m 1,0,-1
 102 -20 l 1,1,-1
 336 1081 l 1,2,-1
 564 1081 l 1,3,-1
 544 984 l 1,4,5
 612 1046 612 1046 688 1075.5 c 128,-1,6
 764 1105 764 1105 852 1105 c 256,7,8
 940 1105 940 1105 1007.5 1068.5 c 128,-1,9
 1075 1032 1075 1032 1114.5 961 c 128,-1,10
 1154 890 1154 890 1163 786.5 c 128,-1,11
 1172 683 1172 683 1144 549 c 0,12,13
 1115 409 1115 409 1043.5 270.5 c 128,-1,14
 972 132 972 132 857 -20 c 1,15,-1
 628 -20 l 1,16,17
 717 114 717 114 770.5 206.5 c 128,-1,18
 824 299 824 299 847 350 c 0,19,20
 870 405 870 405 887.5 455.5 c 128,-1,21
 905 506 905 506 915 555 c 0,22,23
 933 637 933 637 932.5 704 c 128,-1,24
 932 771 932 771 915.5 818 c 128,-1,25
 899 865 899 865 867 890.5 c 128,-1,26
 835 916 835 916 790 916 c 0,27,28
 741 916 741 916 693 894 c 128,-1,29
 645 872 645 872 603 836.5 c 128,-1,30
 561 801 561 801 528.5 758 c 128,-1,31
 496 715 496 715 478 673 c 1,32,-1
 330 -20 l 1,0,-1
EndSplineSet
EndChar

StartChar: uniE015
Encoding: 29 57365 25
Width: 1170
GlyphClass: 1
Flags: W
AnchorPoint: "TehtaAbove" 970 1500 basechar 0
AnchorPoint: "TehtaBelow" 770 -200 basechar 0
LayerCount: 2
Fore
SplineSet
754 175 m 1,0,1
 789 235 789 235 811.5 277 c 128,-1,2
 834 319 834 319 848 351 c 0,3,4
 874 408 874 408 891.5 459 c 128,-1,5
 909 510 909 510 918 555 c 0,6,7
 934 632 934 632 934 698 c 128,-1,8
 934 764 934 764 917.5 812.5 c 128,-1,9
 901 861 901 861 869 888.5 c 128,-1,10
 837 916 837 916 790 916 c 0,11,12
 753 916 753 916 715.5 903 c 128,-1,13
 678 890 678 890 643 868 c 128,-1,14
 608 846 608 846 578 816.5 c 128,-1,15
 548 787 548 787 526 753 c 0,16,17
 451 644 451 644 414 468 c 0,18,19
 394 374 394 374 383 304 c 128,-1,20
 372 234 372 234 368 175 c 1,21,-1
 754 175 l 1,0,1
1099 -20 m 1,22,-1
 102 -20 l 1,23,-1
 336 1081 l 1,24,-1
 564 1081 l 1,25,-1
 544 984 l 1,26,27
 612 1046 612 1046 688 1075.5 c 128,-1,28
 764 1105 764 1105 852 1105 c 256,29,30
 940 1105 940 1105 1007.5 1068.5 c 128,-1,31
 1075 1032 1075 1032 1114.5 961 c 128,-1,32
 1154 890 1154 890 1163 786.5 c 128,-1,33
 1172 683 1172 683 1144 549 c 0,34,35
 1124 457 1124 457 1085.5 363 c 128,-1,36
 1047 269 1047 269 991 175 c 1,37,-1
 1141 175 l 1,38,-1
 1099 -20 l 1,22,-1
EndSplineSet
EndChar

StartChar: uniE016
Encoding: 30 57366 26
Width: 1095
GlyphClass: 1
Flags: W
AnchorPoint: "TehtaBelow" 695 -200 basechar 0
AnchorPoint: "TehtaAbove" 895 1500 basechar 0
LayerCount: 2
Fore
SplineSet
972 1081 m 1,0,-1
 1199 1081 l 1,1,-1
 965 -20 l 1,2,-1
 738 -20 l 1,3,-1
 759 76 l 1,4,5
 690 14 690 14 614 -15.5 c 128,-1,6
 538 -45 538 -45 449 -45 c 0,7,8
 361 -45 361 -45 293.5 -8 c 128,-1,9
 226 29 226 29 186.5 100.5 c 128,-1,10
 147 172 147 172 138 275.5 c 128,-1,11
 129 379 129 379 157 512 c 0,12,13
 186 651 186 651 257.5 790 c 128,-1,14
 329 929 329 929 444 1081 c 1,15,-1
 672 1081 l 1,16,17
 615 994 615 994 574 928 c 128,-1,18
 533 862 533 862 504 810 c 128,-1,19
 475 758 475 758 456 717.5 c 128,-1,20
 437 677 437 677 424 642 c 128,-1,21
 411 607 411 607 402.5 574.5 c 128,-1,22
 394 542 394 542 386 506 c 0,23,24
 368 422 368 422 369 355 c 128,-1,25
 370 288 370 288 386.5 241 c 128,-1,26
 403 194 403 194 434 169 c 128,-1,27
 465 144 465 144 508 144 c 2,28,-1
 512 144 l 2,29,30
 562 144 562 144 610.5 166 c 128,-1,31
 659 188 659 188 700.5 223 c 128,-1,32
 742 258 742 258 774.5 301.5 c 128,-1,33
 807 345 807 345 825 387 c 1,34,-1
 972 1081 l 1,0,-1
EndSplineSet
EndChar

StartChar: uniE017
Encoding: 31 57367 27
Width: 1172
GlyphClass: 1
Flags: W
AnchorPoint: "TehtaAbove" 972 1500 basechar 0
AnchorPoint: "TehtaBelow" 772 -200 basechar 0
LayerCount: 2
Fore
SplineSet
626 886 m 1,0,1
 582 814 582 814 553 758.5 c 128,-1,2
 524 703 524 703 506 658.5 c 128,-1,3
 488 614 488 614 477.5 577 c 128,-1,4
 467 540 467 540 460 506 c 0,5,6
 443 426 443 426 443.5 359.5 c 128,-1,7
 444 293 444 293 460.5 245 c 128,-1,8
 477 197 477 197 509 170.5 c 128,-1,9
 541 144 541 144 588 144 c 0,10,11
 624 144 624 144 660.5 156.5 c 128,-1,12
 697 169 697 169 731.5 190.5 c 128,-1,13
 766 212 766 212 797.5 242 c 128,-1,14
 829 272 829 272 853 308 c 0,15,16
 890 360 890 360 917 430 c 128,-1,17
 944 500 944 500 963 589 c 1,18,-1
 965 602 l 1,19,20
 983 689 983 689 994 758.5 c 128,-1,21
 1005 828 1005 828 1010 886 c 1,22,-1
 626 886 l 1,0,1
279 1081 m 1,23,-1
 1275 1081 l 1,24,-1
 1041 -20 l 1,25,-1
 814 -20 l 1,26,-1
 835 76 l 1,27,28
 766 14 766 14 690 -15.5 c 128,-1,29
 614 -45 614 -45 526 -45 c 256,30,31
 438 -45 438 -45 370.5 -8.5 c 128,-1,32
 303 28 303 28 263.5 98.5 c 128,-1,33
 224 169 224 169 214.5 273 c 128,-1,34
 205 377 205 377 234 512 c 0,35,36
 273 698 273 698 386 886 c 1,37,-1
 238 886 l 1,38,-1
 279 1081 l 1,23,-1
EndSplineSet
EndChar

StartChar: uniE018
Encoding: 32 57368 28
Width: 1093
GlyphClass: 1
Flags: W
AnchorPoint: "TehtaAbove" 893 1500 basechar 0
AnchorPoint: "TehtaBelow" 693 -200 basechar 0
LayerCount: 2
Fore
SplineSet
244 -426 m 1,0,-1
 16 -426 l 1,1,-1
 422 1485 l 1,2,-1
 650 1485 l 1,3,-1
 544 984 l 1,4,5
 612 1046 612 1046 687.5 1075.5 c 128,-1,6
 763 1105 763 1105 851 1105 c 0,7,8
 940 1105 940 1105 1007.5 1068.5 c 128,-1,9
 1075 1032 1075 1032 1115 961.5 c 128,-1,10
 1155 891 1155 891 1163.5 787 c 128,-1,11
 1172 683 1172 683 1144 549 c 0,12,13
 1115 409 1115 409 1043.5 270.5 c 128,-1,14
 972 132 972 132 857 -20 c 1,15,-1
 628 -20 l 1,16,17
 717 114 717 114 770.5 206.5 c 128,-1,18
 824 299 824 299 847 350 c 0,19,20
 870 405 870 405 887.5 455.5 c 128,-1,21
 905 506 905 506 915 555 c 0,22,23
 933 637 933 637 932.5 703.5 c 128,-1,24
 932 770 932 770 915.5 817 c 128,-1,25
 899 864 899 864 867 890 c 128,-1,26
 835 916 835 916 790 916 c 0,27,28
 739 916 739 916 690.5 893 c 128,-1,29
 642 870 642 870 601 834.5 c 128,-1,30
 560 799 560 799 528 756 c 128,-1,31
 496 713 496 713 478 673 c 1,32,-1
 244 -426 l 1,0,-1
EndSplineSet
EndChar

StartChar: uniE019
Encoding: 33 57369 29
Width: 1170
GlyphClass: 1
Flags: W
AnchorPoint: "TehtaAbove" 970 1500 basechar 0
AnchorPoint: "TehtaBelow" 770 -200 basechar 0
LayerCount: 2
Fore
SplineSet
754 175 m 1,0,1
 789 235 789 235 811.5 277 c 128,-1,2
 834 319 834 319 848 351 c 0,3,4
 874 408 874 408 891.5 459 c 128,-1,5
 909 510 909 510 918 555 c 0,6,7
 934 632 934 632 934 698 c 128,-1,8
 934 764 934 764 917.5 812.5 c 128,-1,9
 901 861 901 861 869 888.5 c 128,-1,10
 837 916 837 916 790 916 c 0,11,12
 753 916 753 916 715.5 903 c 128,-1,13
 678 890 678 890 643 868 c 128,-1,14
 608 846 608 846 578 816.5 c 128,-1,15
 548 787 548 787 526 753 c 0,16,17
 451 644 451 644 414 468 c 0,18,19
 394 374 394 374 383 304 c 128,-1,20
 372 234 372 234 368 175 c 1,21,-1
 754 175 l 1,0,1
330 -20 m 1,22,-1
 244 -426 l 1,23,-1
 16 -426 l 1,24,-1
 422 1485 l 1,25,-1
 650 1485 l 1,26,-1
 544 984 l 1,27,28
 612 1046 612 1046 688 1075.5 c 128,-1,29
 764 1105 764 1105 852 1105 c 256,30,31
 940 1105 940 1105 1007.5 1068.5 c 128,-1,32
 1075 1032 1075 1032 1114.5 961 c 128,-1,33
 1154 890 1154 890 1163 786.5 c 128,-1,34
 1172 683 1172 683 1144 549 c 0,35,36
 1124 457 1124 457 1085.5 363 c 128,-1,37
 1047 269 1047 269 991 175 c 1,38,-1
 1141 175 l 1,39,-1
 1099 -20 l 1,40,-1
 330 -20 l 1,22,-1
EndSplineSet
EndChar

StartChar: uniE01A
Encoding: 34 57370 30
Width: 1095
GlyphClass: 1
Flags: W
AnchorPoint: "TehtaBelow" 695 -200 basechar 0
AnchorPoint: "TehtaAbove" 895 1500 basechar 0
LayerCount: 2
Fore
SplineSet
1058 1485 m 1,0,-1
 1285 1485 l 1,1,-1
 879 -426 l 1,2,-1
 652 -426 l 1,3,-1
 759 76 l 1,4,5
 690 14 690 14 614 -15.5 c 128,-1,6
 538 -45 538 -45 449 -45 c 0,7,8
 361 -45 361 -45 293.5 -8 c 128,-1,9
 226 29 226 29 186.5 100.5 c 128,-1,10
 147 172 147 172 138 275.5 c 128,-1,11
 129 379 129 379 157 512 c 0,12,13
 186 651 186 651 257.5 790 c 128,-1,14
 329 929 329 929 444 1081 c 1,15,-1
 672 1081 l 1,16,17
 615 994 615 994 574 928 c 128,-1,18
 533 862 533 862 504 810 c 128,-1,19
 475 758 475 758 456 717.5 c 128,-1,20
 437 677 437 677 424 642 c 128,-1,21
 411 607 411 607 402.5 574.5 c 128,-1,22
 394 542 394 542 386 506 c 0,23,24
 368 422 368 422 369 355 c 128,-1,25
 370 288 370 288 386.5 241 c 128,-1,26
 403 194 403 194 434 169 c 128,-1,27
 465 144 465 144 508 144 c 2,28,-1
 512 144 l 2,29,30
 562 144 562 144 610.5 166 c 128,-1,31
 659 188 659 188 700.5 223 c 128,-1,32
 742 258 742 258 774.5 301.5 c 128,-1,33
 807 345 807 345 825 387 c 1,34,-1
 1058 1485 l 1,0,-1
EndSplineSet
EndChar

StartChar: uniE01B
Encoding: 35 57371 31
Width: 1172
GlyphClass: 1
Flags: W
AnchorPoint: "TehtaAbove" 972 1500 basechar 0
AnchorPoint: "TehtaBelow" 772 -200 basechar 0
LayerCount: 2
Fore
SplineSet
626 886 m 1,0,1
 582 814 582 814 553 758.5 c 128,-1,2
 524 703 524 703 506 658.5 c 128,-1,3
 488 614 488 614 477.5 577 c 128,-1,4
 467 540 467 540 460 506 c 0,5,6
 443 426 443 426 443.5 359.5 c 128,-1,7
 444 293 444 293 460.5 245 c 128,-1,8
 477 197 477 197 509 170.5 c 128,-1,9
 541 144 541 144 588 144 c 0,10,11
 624 144 624 144 660.5 156.5 c 128,-1,12
 697 169 697 169 731.5 190.5 c 128,-1,13
 766 212 766 212 797.5 242 c 128,-1,14
 829 272 829 272 853 308 c 0,15,16
 890 360 890 360 917 430 c 128,-1,17
 944 500 944 500 963 589 c 1,18,-1
 965 602 l 1,19,20
 983 689 983 689 994 758.5 c 128,-1,21
 1005 828 1005 828 1010 886 c 1,22,-1
 626 886 l 1,0,1
1048 1081 m 1,23,-1
 1134 1485 l 1,24,-1
 1361 1485 l 1,25,-1
 955 -425 l 1,26,-1
 728 -425 l 1,27,-1
 835 76 l 1,28,29
 766 14 766 14 690 -15.5 c 128,-1,30
 614 -45 614 -45 526 -45 c 256,31,32
 438 -45 438 -45 370.5 -8.5 c 128,-1,33
 303 28 303 28 263.5 98.5 c 128,-1,34
 224 169 224 169 214.5 273 c 128,-1,35
 205 377 205 377 234 512 c 0,36,37
 273 698 273 698 386 886 c 1,38,-1
 238 886 l 1,39,-1
 279 1081 l 1,40,-1
 1048 1081 l 1,23,-1
EndSplineSet
EndChar

StartChar: uniE01C
Encoding: 36 57372 32
Width: 1729
GlyphClass: 1
Flags: W
AnchorPoint: "TehtaAbove" 1229 1500 basechar 0
AnchorPoint: "TehtaBelow" 1029 -200 basechar 0
LayerCount: 2
Fore
SplineSet
245 -426 m 1,0,-1
 17 -426 l 1,1,-1
 423 1485 l 1,2,-1
 651 1485 l 1,3,-1
 545 984 l 1,4,5
 613 1046 613 1046 687.5 1075.5 c 128,-1,6
 762 1105 762 1105 850 1105 c 0,7,8
 1044 1105 1044 1105 1124 930 c 1,9,10
 1200 1018 1200 1018 1288.5 1061.5 c 128,-1,11
 1377 1105 1377 1105 1469 1105 c 0,12,13
 1571 1105 1571 1105 1642 1066.5 c 128,-1,14
 1713 1028 1713 1028 1752 956 c 128,-1,15
 1791 884 1791 884 1797 781 c 128,-1,16
 1803 678 1803 678 1776 549 c 0,17,18
 1747 409 1747 409 1675.5 270.5 c 128,-1,19
 1604 132 1604 132 1489 -20 c 1,20,-1
 1263 -20 l 1,21,22
 1350 114 1350 114 1405 207 c 128,-1,23
 1460 300 1460 300 1482 351 c 1,24,-1
 1481 350 l 1,25,26
 1502 404 1502 404 1520 456.5 c 128,-1,27
 1538 509 1538 509 1547 555 c 0,28,29
 1565 639 1565 639 1564.5 706 c 128,-1,30
 1564 773 1564 773 1547.5 819.5 c 128,-1,31
 1531 866 1531 866 1499 891 c 128,-1,32
 1467 916 1467 916 1423 916 c 0,33,34
 1375 916 1375 916 1331.5 890 c 128,-1,35
 1288 864 1288 864 1251 816 c 128,-1,36
 1214 768 1214 768 1185 700.5 c 128,-1,37
 1156 633 1156 633 1138 549 c 0,38,39
 1109 409 1109 409 1038 269.5 c 128,-1,40
 967 130 967 130 853 -20 c 1,41,-1
 625 -20 l 1,42,43
 681 67 681 67 722 134 c 128,-1,44
 763 201 763 201 792.5 253.5 c 128,-1,45
 822 306 822 306 841.5 347.5 c 128,-1,46
 861 389 861 389 874 423.5 c 128,-1,47
 887 458 887 458 895.5 489.5 c 128,-1,48
 904 521 904 521 911 555 c 0,49,50
 928 636 928 636 928 702.5 c 128,-1,51
 928 769 928 769 911.5 816.5 c 128,-1,52
 895 864 895 864 864 890 c 128,-1,53
 833 916 833 916 788 916 c 0,54,55
 744 916 744 916 697 895.5 c 128,-1,56
 650 875 650 875 607.5 841.5 c 128,-1,57
 565 808 565 808 531.5 765.5 c 128,-1,58
 498 723 498 723 480 678 c 1,59,-1
 245 -426 l 1,0,-1
EndSplineSet
EndChar

StartChar: uniE01D
Encoding: 37 57373 33
Width: 1810
GlyphClass: 1
Flags: W
AnchorPoint: "TehtaBelow" 1110 -200 basechar 0
AnchorPoint: "TehtaAbove" 1310 1500 basechar 0
LayerCount: 2
Fore
SplineSet
331 -20 m 1,0,-1
 245 -426 l 1,1,-1
 18 -426 l 1,2,-1
 424 1485 l 1,3,-1
 651 1485 l 1,4,-1
 545 984 l 1,5,6
 613 1046 613 1046 688 1075.5 c 128,-1,7
 763 1105 763 1105 851 1105 c 0,8,9
 945 1105 945 1105 1014.5 1061.5 c 128,-1,10
 1084 1018 1084 1018 1125 930 c 1,11,12
 1200 1020 1200 1020 1288 1062.5 c 128,-1,13
 1376 1105 1376 1105 1469 1105 c 0,14,15
 1574 1105 1574 1105 1645 1065 c 128,-1,16
 1716 1025 1716 1025 1754.5 952 c 128,-1,17
 1793 879 1793 879 1798.5 776.5 c 128,-1,18
 1804 674 1804 674 1777 549 c 0,19,20
 1757 457 1757 457 1719 363 c 128,-1,21
 1681 269 1681 269 1625 175 c 1,22,-1
 1778 175 l 1,23,-1
 1736 -20 l 1,24,-1
 331 -20 l 1,0,-1
1386 175 m 1,25,26
 1429 247 1429 247 1456.5 299 c 128,-1,27
 1484 351 1484 351 1501.5 393.5 c 128,-1,28
 1519 436 1519 436 1529.5 474 c 128,-1,29
 1540 512 1540 512 1549 555 c 0,30,31
 1566 634 1566 634 1566 700.5 c 128,-1,32
 1566 767 1566 767 1549.5 815 c 128,-1,33
 1533 863 1533 863 1500.5 889.5 c 128,-1,34
 1468 916 1468 916 1421 916 c 256,35,36
 1374 916 1374 916 1331 889.5 c 128,-1,37
 1288 863 1288 863 1251 815 c 128,-1,38
 1214 767 1214 767 1185 699.5 c 128,-1,39
 1156 632 1156 632 1138 549 c 2,40,-1
 1137 544 l 2,41,42
 1117 451 1117 451 1080 360 c 128,-1,43
 1043 269 1043 269 988 175 c 1,44,-1
 1386 175 l 1,25,26
750 175 m 1,45,46
 790 240 790 240 817 291.5 c 128,-1,47
 844 343 844 343 862 387 c 128,-1,48
 880 431 880 431 891 471.5 c 128,-1,49
 902 512 902 512 911 555 c 0,50,51
 929 639 929 639 928.5 705.5 c 128,-1,52
 928 772 928 772 911.5 819 c 128,-1,53
 895 866 895 866 863.5 891 c 128,-1,54
 832 916 832 916 789 916 c 0,55,56
 753 916 753 916 716 903.5 c 128,-1,57
 679 891 679 891 644.5 869 c 128,-1,58
 610 847 610 847 580 817 c 128,-1,59
 550 787 550 787 527 753 c 0,60,61
 453 646 453 646 415 467 c 0,62,63
 395 373 395 373 384 303.5 c 128,-1,64
 373 234 373 234 369 175 c 1,65,-1
 750 175 l 1,45,46
EndSplineSet
EndChar

StartChar: uniE01E
Encoding: 38 57374 34
Width: 1731
GlyphClass: 1
Flags: W
AnchorPoint: "TehtaAbove" 1231 1500 basechar 0
AnchorPoint: "TehtaBelow" 1031 -200 basechar 0
LayerCount: 2
Fore
SplineSet
1691 1485 m 1,0,-1
 1917 1485 l 1,1,-1
 1511 -425 l 1,2,-1
 1285 -425 l 1,3,-1
 1392 76 l 1,4,5
 1323 14 1323 14 1248 -15.5 c 128,-1,6
 1173 -45 1173 -45 1085 -45 c 0,7,8
 912 -45 912 -45 824 102 c 1,9,-1
 825 100 l 1,10,11
 816 110 816 110 809 126 c 1,12,13
 733 39 733 39 643.5 -3 c 128,-1,14
 554 -45 554 -45 467 -45 c 0,15,16
 363 -45 363 -45 291.5 -5.5 c 128,-1,17
 220 34 220 34 181.5 106.5 c 128,-1,18
 143 179 143 179 137.5 282 c 128,-1,19
 132 385 132 385 159 512 c 0,20,21
 217 782 217 782 445 1081 c 1,22,-1
 673 1081 l 1,23,24
 616 994 616 994 575 927.5 c 128,-1,25
 534 861 534 861 505 809.5 c 128,-1,26
 476 758 476 758 456.5 717.5 c 128,-1,27
 437 677 437 677 424.5 642 c 128,-1,28
 412 607 412 607 403.5 574.5 c 128,-1,29
 395 542 395 542 387 506 c 0,30,31
 369 423 369 423 370 356 c 128,-1,32
 371 289 371 289 387.5 242 c 128,-1,33
 404 195 404 195 435.5 169.5 c 128,-1,34
 467 144 467 144 511 144 c 0,35,36
 560 144 560 144 604.5 171 c 128,-1,37
 649 198 649 198 686.5 246.5 c 128,-1,38
 724 295 724 295 752.5 363 c 128,-1,39
 781 431 781 431 798 512 c 0,40,41
 857 785 857 785 1085 1081 c 1,42,-1
 1310 1081 l 1,43,44
 1253 994 1253 994 1212 927.5 c 128,-1,45
 1171 861 1171 861 1142 809.5 c 128,-1,46
 1113 758 1113 758 1093.5 717.5 c 128,-1,47
 1074 677 1074 677 1061.5 642 c 128,-1,48
 1049 607 1049 607 1040.5 574.5 c 128,-1,49
 1032 542 1032 542 1024 506 c 0,50,51
 1006 422 1006 422 1007 355 c 128,-1,52
 1008 288 1008 288 1024.5 241 c 128,-1,53
 1041 194 1041 194 1072.5 169 c 128,-1,54
 1104 144 1104 144 1147 144 c 0,55,56
 1188 144 1188 144 1234.5 164 c 128,-1,57
 1281 184 1281 184 1324 217 c 128,-1,58
 1367 250 1367 250 1402.5 293 c 128,-1,59
 1438 336 1438 336 1457 382 c 1,60,-1
 1691 1485 l 1,0,-1
EndSplineSet
EndChar

StartChar: uniE01F
Encoding: 39 57375 35
Width: 1812
GlyphClass: 1
Flags: W
AnchorPoint: "TehtaBelow" 1112 -200 basechar 0
AnchorPoint: "TehtaAbove" 1312 1500 basechar 0
LayerCount: 2
Fore
SplineSet
1684 1081 m 1,0,-1
 1770 1485 l 1,1,-1
 1998 1485 l 1,2,-1
 1592 -425 l 1,3,-1
 1364 -425 l 1,4,-1
 1470 74 l 1,5,6
 1403 14 1403 14 1327.5 -15 c 128,-1,7
 1252 -44 1252 -44 1164 -44 c 0,8,9
 1075 -44 1075 -44 1011 -7.5 c 128,-1,10
 947 29 947 29 904 102 c 1,11,-1
 905 100 l 1,12,13
 900 107 900 107 896.5 113.5 c 128,-1,14
 893 120 893 120 889 127 c 1,15,16
 813 39 813 39 724 -2.5 c 128,-1,17
 635 -44 635 -44 546 -44 c 0,18,19
 442 -44 442 -44 371 -5 c 128,-1,20
 300 34 300 34 261.5 106 c 128,-1,21
 223 178 223 178 217 281 c 128,-1,22
 211 384 211 384 238 512 c 0,23,24
 258 605 258 605 297 698 c 128,-1,25
 336 791 336 791 393 886 c 1,26,-1
 239 886 l 1,27,-1
 280 1081 l 1,28,-1
 1684 1081 l 1,0,-1
630 886 m 1,29,30
 598 834 598 834 573 787.5 c 128,-1,31
 548 741 548 741 536 711 c 0,32,33
 511 654 511 654 493.5 601.5 c 128,-1,34
 476 549 476 549 467 506 c 0,35,36
 449 422 449 422 449.5 355 c 128,-1,37
 450 288 450 288 467.5 241 c 128,-1,38
 485 194 485 194 517 169 c 128,-1,39
 549 144 549 144 594 144 c 256,40,41
 639 144 639 144 682.5 169.5 c 128,-1,42
 726 195 726 195 763 242.5 c 128,-1,43
 800 290 800 290 829.5 358 c 128,-1,44
 859 426 859 426 877 512 c 0,45,46
 897 605 897 605 935 698.5 c 128,-1,47
 973 792 973 792 1030 886 c 1,48,-1
 630 886 l 1,29,30
1267 886 m 1,49,50
 1233 831 1233 831 1209 785 c 128,-1,51
 1185 739 1185 739 1171 710 c 1,52,-1
 1173 711 l 1,53,54
 1147 654 1147 654 1130 602 c 128,-1,55
 1113 550 1113 550 1104 506 c 0,56,57
 1086 422 1086 422 1087 355 c 128,-1,58
 1088 288 1088 288 1104.5 241 c 128,-1,59
 1121 194 1121 194 1152.5 169 c 128,-1,60
 1184 144 1184 144 1227 144 c 0,61,62
 1263 144 1263 144 1300 157 c 128,-1,63
 1337 170 1337 170 1371.5 192.5 c 128,-1,64
 1406 215 1406 215 1436.5 245 c 128,-1,65
 1467 275 1467 275 1489 308 c 0,66,67
 1561 410 1561 410 1599 589 c 1,68,-1
 1601 602 l 1,69,70
 1619 689 1619 689 1630 758.5 c 128,-1,71
 1641 828 1641 828 1646 886 c 1,72,-1
 1267 886 l 1,49,50
EndSplineSet
EndChar

StartChar: uniE020
Encoding: 40 57376 36
Width: 1157
GlyphClass: 1
Flags: W
AnchorPoint: "TehtaBelow" 957 0 basechar 0
AnchorPoint: "TehtaAbove" 957 1500 basechar 0
LayerCount: 2
Fore
SplineSet
633 -73 m 2,0,1
 621 -93 621 -93 616 -116 c 0,2,3
 611 -140 611 -140 616 -161 c 128,-1,4
 621 -182 621 -182 633.5 -197 c 128,-1,5
 646 -212 646 -212 665 -221 c 128,-1,6
 684 -230 684 -230 706 -230 c 2,7,-1
 963 -230 l 1,8,-1
 921 -426 l 1,9,-1
 628 -425 l 2,10,11
 564 -425 564 -425 512.5 -400.5 c 128,-1,12
 461 -376 461 -376 428 -334 c 128,-1,13
 395 -292 395 -292 382.5 -235.5 c 128,-1,14
 370 -179 370 -179 384 -115 c 0,15,16
 398 -48 398 -48 429 -2 c 1,17,-1
 428 -3 l 1,18,19
 462 54 462 54 496 110.5 c 128,-1,20
 530 167 530 167 565 224 c 0,21,22
 578 246 578 246 588 262.5 c 128,-1,23
 598 279 598 279 611 300 c 1,24,25
 542 451 542 451 476 599 c 128,-1,26
 410 747 410 747 341 898 c 0,27,28
 332 917 332 917 321.5 941 c 128,-1,29
 311 965 311 965 300 990 c 128,-1,30
 289 1015 289 1015 278 1038.5 c 128,-1,31
 267 1062 267 1062 258 1081 c 1,32,-1
 528 1081 l 1,33,-1
 764 554 l 1,34,35
 800 614 800 614 836.5 673 c 128,-1,36
 873 732 873 732 909 792 c 2,37,-1
 1083 1081 l 1,38,-1
 1332 1081 l 1,39,-1
 633 -73 l 2,0,1
EndSplineSet
EndChar

StartChar: uniE021
Encoding: 41 57377 37
Width: 1157
GlyphClass: 1
Flags: W
AnchorPoint: "TehtaAbove" 957 1500 basechar 0
AnchorPoint: "TehtaBelow" 957 0 basechar 0
LayerCount: 2
Fore
SplineSet
260 1081 m 1,0,-1
 528 1081 l 1,1,-1
 764 554 l 1,2,3
 800 614 800 614 836.5 673 c 128,-1,4
 873 732 873 732 909 792 c 2,5,-1
 1083 1081 l 1,6,-1
 1332 1081 l 1,7,-1
 634 -73 l 2,8,9
 622 -93 622 -93 617 -116 c 0,10,11
 612 -141 612 -141 617 -162 c 128,-1,12
 622 -183 622 -183 634.5 -198 c 128,-1,13
 647 -213 647 -213 665.5 -221.5 c 128,-1,14
 684 -230 684 -230 706 -230 c 2,15,-1
 964 -230 l 1,16,-1
 922 -426 l 1,17,-1
 628 -425 l 2,18,19
 564 -425 564 -425 512.5 -400.5 c 128,-1,20
 461 -376 461 -376 428 -334 c 128,-1,21
 395 -292 395 -292 382.5 -235.5 c 128,-1,22
 370 -179 370 -179 384 -115 c 0,23,24
 398 -48 398 -48 429 -2 c 1,25,-1
 428 -3 l 1,26,27
 457 45 457 45 486.5 93.5 c 128,-1,28
 516 142 516 142 546 191 c 0,29,30
 565 221 565 221 579.5 246 c 128,-1,31
 594 271 594 271 612 301 c 1,32,33
 599 329 599 329 587 356 c 128,-1,34
 575 383 575 383 563 410 c 0,35,36
 550 437 550 437 536.5 466.5 c 128,-1,37
 523 496 523 496 512 523 c 1,38,39
 493 530 493 530 471 530 c 0,40,41
 448 530 448 530 425.5 520.5 c 128,-1,42
 403 511 403 511 384 495.5 c 128,-1,43
 365 480 365 480 351.5 459 c 128,-1,44
 338 438 338 438 333 416 c 0,45,46
 328 392 328 392 333 371 c 128,-1,47
 338 350 338 350 350.5 334.5 c 128,-1,48
 363 319 363 319 381.5 310 c 128,-1,49
 400 301 400 301 422 301 c 2,50,-1
 531 300 l 1,51,-1
 490 105 l 1,52,-1
 382 106 l 2,53,54
 322 107 322 107 270.5 129.5 c 128,-1,55
 219 152 219 152 185 192.5 c 128,-1,56
 151 233 151 233 137 289.5 c 128,-1,57
 123 346 123 346 138 415 c 0,58,59
 149 467 149 467 176 515 c 128,-1,60
 203 563 203 563 241 602.5 c 128,-1,61
 279 642 279 642 326 671 c 128,-1,62
 373 700 373 700 424 714 c 1,63,-1
 260 1081 l 1,0,-1
EndSplineSet
EndChar

StartChar: lambe
Encoding: 42 57378 38
Width: 1217
GlyphClass: 1
Flags: W
AnchorPoint: "LambeXhook" 417 0 basechar 0
AnchorPoint: "TehtaAbove" 1017 1500 basechar 0
AnchorPoint: "TehtaBelow" 817 300 basechar 0
AnchorPoint: "LambeBar" 1042 800 basechar 0
LayerCount: 2
Fore
SplineSet
858 886 m 1,0,1
 849 864 849 864 839 845.5 c 128,-1,2
 829 827 829 827 819 811 c 0,3,4
 804 785 804 785 784.5 760.5 c 128,-1,5
 765 736 765 736 736 707.5 c 128,-1,6
 707 679 707 679 664.5 645.5 c 128,-1,7
 622 612 622 612 562 568 c 0,8,9
 514 533 514 533 481.5 506.5 c 128,-1,10
 449 480 449 480 426.5 451.5 c 128,-1,11
 404 423 404 423 389.5 388 c 128,-1,12
 375 353 375 353 364 301 c 0,13,14
 354 253 354 253 352.5 219 c 128,-1,15
 351 185 351 185 356 159.5 c 128,-1,16
 361 134 361 134 372.5 113.5 c 128,-1,17
 384 93 384 93 399 72 c 0,18,19
 431 29 431 29 477.5 5.5 c 128,-1,20
 524 -18 524 -18 583 -18 c 256,21,22
 642 -18 642 -18 699.5 7.5 c 128,-1,23
 757 33 757 33 808 73 c 1,24,-1
 805 70 l 1,25,26
 846 111 846 111 879.5 170 c 128,-1,27
 913 229 913 229 939 312 c 1,28,-1
 1163 285 l 1,29,30
 1136 197 1136 197 1101 129.5 c 128,-1,31
 1066 62 1066 62 1023.5 10.5 c 128,-1,32
 981 -41 981 -41 931 -78.5 c 128,-1,33
 881 -116 881 -116 823 -143 c 0,34,35
 687 -208 687 -208 542 -208 c 0,36,37
 459 -208 459 -208 389.5 -187.5 c 128,-1,38
 320 -167 320 -167 266.5 -128.5 c 128,-1,39
 213 -90 213 -90 176.5 -36 c 128,-1,40
 140 18 140 18 123 85 c 1,41,-1
 123 84 l 1,42,43
 103 159 103 159 132 296 c 0,44,45
 148 374 148 374 175 432 c 128,-1,46
 202 490 202 490 240.5 538.5 c 128,-1,47
 279 587 279 587 331 630.5 c 128,-1,48
 383 674 383 674 450 722 c 0,49,50
 494 754 494 754 523 776 c 128,-1,51
 552 798 552 798 571 816 c 128,-1,52
 590 834 590 834 602 850 c 128,-1,53
 614 866 614 866 625 886 c 1,54,-1
 188 886 l 1,55,-1
 229 1081 l 1,56,-1
 1330 1081 l 1,57,-1
 1289 886 l 1,58,-1
 858 886 l 1,0,1
EndSplineSet
EndChar

StartChar: alda
Encoding: 43 57379 39
Width: 1367
GlyphClass: 1
Flags: W
AnchorPoint: "LambeXhook" 417 0 basechar 0
AnchorPoint: "TehtaAbove" 1017 1500 basechar 0
AnchorPoint: "TehtaBelow" 817 300 basechar 0
AnchorPoint: "LambeBar" 1117 800 basechar 0
LayerCount: 2
Fore
SplineSet
960 -42 m 1,0,1
 875 -98 875 -98 786.5 -121 c 128,-1,2
 698 -144 698 -144 607 -144 c 0,3,4
 523 -144 523 -144 453 -124 c 128,-1,5
 383 -104 383 -104 329 -68 c 128,-1,6
 275 -32 275 -32 238 19 c 128,-1,7
 201 70 201 70 184 132 c 0,8,9
 173 170 173 170 175 219 c 128,-1,10
 177 268 177 268 191 334 c 0,11,12
 207 410 207 410 233.5 466.5 c 128,-1,13
 260 523 260 523 298.5 569 c 128,-1,14
 337 615 337 615 387.5 656 c 128,-1,15
 438 697 438 697 504 742 c 1,16,-1
 504 741 l 1,17,18
 549 772 549 772 577.5 793 c 128,-1,19
 606 814 606 814 624.5 830.5 c 128,-1,20
 643 847 643 847 655 861.5 c 128,-1,21
 667 876 667 876 678 894 c 1,22,-1
 240 894 l 1,23,-1
 279 1081 l 1,24,-1
 1380 1081 l 1,25,-1
 1341 894 l 1,26,-1
 910 894 l 1,27,28
 901 875 901 875 890.5 856 c 128,-1,29
 880 837 880 837 871 822 c 0,30,31
 853 793 853 793 828.5 764 c 128,-1,32
 804 735 804 735 772 708 c 0,33,34
 764 701 764 701 739 682.5 c 128,-1,35
 714 664 714 664 681 639 c 0,36,37
 654 619 654 619 624 597 c 128,-1,38
 594 575 594 575 566.5 553.5 c 128,-1,39
 539 532 539 532 516.5 513 c 128,-1,40
 494 494 494 494 481 479 c 0,41,42
 462 458 462 458 447.5 422.5 c 128,-1,43
 433 387 433 387 423 339 c 0,44,45
 413 295 413 295 411.5 264 c 128,-1,46
 410 233 410 233 415 209 c 128,-1,47
 420 185 420 185 431.5 164.5 c 128,-1,48
 443 144 443 144 459 122 c 1,49,-1
 458 122 l 1,50,51
 522 37 522 37 645 37 c 0,52,53
 758 37 758 37 853 110 c 1,54,-1
 852 110 l 1,55,56
 954 189 954 189 1077 189 c 0,57,58
 1141 189 1141 189 1192 163.5 c 128,-1,59
 1243 138 1243 138 1276 95 c 128,-1,60
 1309 52 1309 52 1321.5 -4 c 128,-1,61
 1334 -60 1334 -60 1321 -121 c 0,62,63
 1307 -184 1307 -184 1271.5 -240 c 128,-1,64
 1236 -296 1236 -296 1185 -338.5 c 128,-1,65
 1134 -381 1134 -381 1072 -405.5 c 128,-1,66
 1010 -430 1010 -430 945 -430 c 2,67,-1
 836 -430 l 1,68,-1
 878 -235 l 1,69,-1
 980 -235 l 2,70,71
 1002 -234 1002 -234 1023 -225.5 c 128,-1,72
 1044 -217 1044 -217 1061.5 -202.5 c 128,-1,73
 1079 -188 1079 -188 1091 -169.5 c 128,-1,74
 1103 -151 1103 -151 1108 -129 c 0,75,76
 1112 -108 1112 -108 1108 -89 c 128,-1,77
 1104 -70 1104 -70 1092.5 -55 c 128,-1,78
 1081 -40 1081 -40 1064 -31.5 c 128,-1,79
 1047 -23 1047 -23 1026 -23 c 0,80,81
 993 -23 993 -23 958 -43 c 1,82,-1
 960 -42 l 1,0,1
EndSplineSet
EndChar

StartChar: uniE024
Encoding: 44 57380 40
Width: 1102
GlyphClass: 1
Flags: W
AnchorPoint: "TehtaAbove" 602 1500 basechar 0
AnchorPoint: "TehtaBelow" 702 -200 basechar 0
LayerCount: 2
Fore
SplineSet
440 566 m 2,0,1
 438 564 438 564 432.5 557.5 c 128,-1,2
 427 551 427 551 422 543 c 0,3,4
 385 493 385 493 373 435 c 0,5,6
 362 382 362 382 371.5 333.5 c 128,-1,7
 381 285 381 285 408 247.5 c 128,-1,8
 435 210 435 210 477 188 c 128,-1,9
 519 166 519 166 573 166 c 0,10,11
 624 166 624 166 672 185 c 128,-1,12
 720 204 720 204 763.5 244.5 c 128,-1,13
 807 285 807 285 845 348 c 128,-1,14
 883 411 883 411 915 499 c 1,15,-1
 1137 469 l 1,16,17
 1096 340 1096 340 1035.5 244 c 128,-1,18
 975 148 975 148 897.5 83.5 c 128,-1,19
 820 19 820 19 727.5 -13 c 128,-1,20
 635 -45 635 -45 531 -45 c 0,21,22
 418 -45 418 -45 335.5 -8 c 128,-1,23
 253 29 253 29 202.5 92.5 c 128,-1,24
 152 156 152 156 135.5 241 c 128,-1,25
 119 326 119 326 139 422 c 0,26,27
 155 497 155 497 188 564 c 128,-1,28
 221 631 221 631 283 692 c 1,29,-1
 282 691 l 1,30,31
 332 745 332 745 382 799 c 128,-1,32
 432 853 432 853 483 909 c 0,33,34
 567 1000 567 1000 650 1090.5 c 128,-1,35
 733 1181 733 1181 815 1271 c 0,36,37
 828 1285 828 1285 840.5 1303 c 128,-1,38
 853 1321 853 1321 865 1346.5 c 128,-1,39
 877 1372 877 1372 889.5 1405.5 c 128,-1,40
 902 1439 902 1439 914 1484 c 1,41,-1
 1139 1485 l 1,42,43
 1120 1426 1120 1426 1100.5 1376 c 128,-1,44
 1081 1326 1081 1326 1060 1283 c 128,-1,45
 1039 1240 1039 1240 1015.5 1204.5 c 128,-1,46
 992 1169 992 1169 964 1138 c 2,47,-1
 440 566 l 2,0,1
EndSplineSet
EndChar

StartChar: uniE025
Encoding: 45 57381 41
Width: 1102
GlyphClass: 1
InSpiro: 1
Flags: W
AnchorPoint: "TehtaBelow" 1002 -200 basechar 0
AnchorPoint: "TehtaAbove" 902 1500 basechar 0
LayerCount: 2
Fore
SplineSet
958 498 m 1,0,-1
 961 500 l 1,1,-1
 960 500 l 1,3,-1
 961 502 l 1,5,-1
 967 512 l 1,6,-1
 970 517 l 1,7,-1
 975 522 l 1,8,-1
 975 521 l 1,9,-1
 1004 569 l 1,10,-1
 1023 627 l 1,11,-1
 1028 676 l 1,12,-1
 1024 725 l 1,13,-1
 1012 770 l 1,14,-1
 990 811 l 1,15,-1
 959 845 l 1,16,-1
 921 872 l 1,17,-1
 876 889 l 1,18,-1
 823 895 l 1,19,-1
 771 890 l 1,20,-1
 721 876 l 1,21,-1
 673 851 l 1,22,-1
 628 815 l 1,23,-1
 587 769 l 1,24,-1
 548 712 l 1,25,-1
 513 643 l 1,26,-1
 482 563 l 1,27,-1
 259 593 l 1,28,-1
 357 815 l 1,29,-1
 493 976 l 1,30,-1
 664 1074 l 1,31,-1
 865 1107 l 1,32,-1
 970 1098 l 1,33,-1
 1061 1070 l 1,34,-1
 1136 1026 l 1,35,-1
 1194 968 l 1,36,-1
 1236 900 l 1,37,-1
 1260 820 l 1,38,-1
 1268 732 l 1,39,-1
 1257 640 l 1,40,-1
 1248 602 l 1,41,-1
 1237 568 l 1,42,-1
 1225 536 l 1,43,-1
 1210 506 l 1,44,-1
 1191 475 l 1,45,-1
 1170 444 l 1,46,-1
 1144 409 l 1,47,-1
 1113 369 l 1,48,-1
 581 -210 l 1,49,-1
 582 -209 l 1,50,-1
 554 -247 l 1,51,-1
 528 -292 l 1,52,-1
 503 -349 l 1,53,-1
 482 -421 l 1,54,-1
 258 -422 l 1,55,-1
 294 -314 l 1,56,-1
 333 -223 l 1,57,-1
 378 -145 l 1,58,-1
 431 -77 l 1,59,-1
 958 498 l 1,0,-1
  Spiro
    958 498 v
    961 500 ]
    961 500 o
    960 500 o
    960 500 o
    961 502 o
    967 512 o
    970 517 o
    975 522 v
    975 521 v
    1004 569 o
    1023 627 o
    1028 676 o
    1024 725 o
    1012 770 o
    990 811 o
    959 845 o
    921 872 o
    876 889 o
    823 895 o
    771 890 o
    721 876 o
    673 851 o
    628 815 o
    587 769 o
    548 712 o
    513 643 o
    482 563 v
    259 593 v
    357 815 o
    493 976 o
    664 1074 o
    865 1107 o
    970 1098 o
    1061 1070 o
    1136 1026 o
    1194 968 o
    1236 900 o
    1260 820 o
    1268 732 o
    1257 640 o
    1248 602 o
    1237 568 o
    1225 536 o
    1210 506 o
    1191 475 o
    1170 444 o
    1144 409 o
    1113 369 v
    581 -210 v
    582 -209 v
    554 -247 o
    528 -292 o
    503 -349 o
    482 -421 v
    258 -422 v
    294 -314 o
    333 -223 o
    378 -145 o
    431 -77 [
    0 0 z
  EndSpiro
EndSplineSet
EndChar

StartChar: uniE026
Encoding: 46 57382 42
Width: 1102
GlyphClass: 1
Flags: W
AnchorPoint: "TehtaAbove" 602 1500 basechar 0
AnchorPoint: "TehtaBelow" 702 -500 basechar 0
LayerCount: 2
Fore
SplineSet
552 56 m 0,0,1
 482 56 482 56 422 70 c 128,-1,2
 362 84 362 84 316 111 c 1,3,4
 306 94 306 94 299.5 75 c 128,-1,5
 293 56 293 56 288 36 c 0,6,7
 277 -16 277 -16 287 -64.5 c 128,-1,8
 297 -113 297 -113 324 -150 c 128,-1,9
 351 -187 351 -187 393 -209.5 c 128,-1,10
 435 -232 435 -232 488 -232 c 0,11,12
 540 -232 540 -232 588 -213 c 128,-1,13
 636 -194 636 -194 679 -153.5 c 128,-1,14
 722 -113 722 -113 760 -50.5 c 128,-1,15
 798 12 798 12 830 100 c 1,16,-1
 1052 70 l 1,17,18
 1011 -59 1011 -59 949.5 -155 c 128,-1,19
 888 -251 888 -251 810 -315.5 c 128,-1,20
 732 -380 732 -380 640 -412 c 128,-1,21
 548 -444 548 -444 446 -444 c 0,22,23
 333 -444 333 -444 250.5 -406.5 c 128,-1,24
 168 -369 168 -369 117.5 -305 c 128,-1,25
 67 -241 67 -241 50.5 -156.5 c 128,-1,26
 34 -72 34 -72 54 22 c 0,27,28
 68 87 68 87 99.5 152 c 128,-1,29
 131 217 131 217 177 271 c 1,30,31
 152 328 152 328 148.5 389 c 128,-1,32
 145 450 145 450 161 523 c 0,33,34
 178 601 178 601 211 665.5 c 128,-1,35
 244 730 244 730 304 793 c 1,36,-1
 816 1273 l 1,37,-1
 815 1272 l 1,38,39
 827 1285 827 1285 839.5 1303 c 128,-1,40
 852 1321 852 1321 864.5 1346.5 c 128,-1,41
 877 1372 877 1372 889.5 1406 c 128,-1,42
 902 1440 902 1440 914 1484 c 1,43,-1
 1139 1485 l 1,44,45
 1118 1422 1118 1422 1099 1372 c 128,-1,46
 1080 1322 1080 1322 1059.5 1280.5 c 128,-1,47
 1039 1239 1039 1239 1015.5 1204 c 128,-1,48
 992 1169 992 1169 963 1135 c 1,49,-1
 465 672 l 1,50,51
 466 673 466 673 466 673 c 1,52,53
 407 596 407 596 395 537 c 0,54,55
 383 483 383 483 393 434 c 128,-1,56
 403 385 403 385 430 348.5 c 128,-1,57
 457 312 457 312 499 290 c 128,-1,58
 541 268 541 268 594 268 c 0,59,60
 644 268 644 268 691.5 286.5 c 128,-1,61
 739 305 739 305 782.5 345 c 128,-1,62
 826 385 826 385 865 448.5 c 128,-1,63
 904 512 904 512 936 602 c 1,64,-1
 1159 571 l 1,65,66
 1118 443 1118 443 1057.5 346.5 c 128,-1,67
 997 250 997 250 919 185.5 c 128,-1,68
 841 121 841 121 748.5 88.5 c 128,-1,69
 656 56 656 56 552 56 c 0,0,1
EndSplineSet
EndChar

StartChar: uniE027
Encoding: 47 57383 43
Width: 1102
GlyphClass: 1
Flags: W
AnchorPoint: "TehtaBelow" 1002 -200 basechar 0
AnchorPoint: "TehtaAbove" 902 1800 basechar 0
LayerCount: 2
Fore
SplineSet
857 401 m 1,0,1
 857 401 857 401 859 403 c 1,2,-1
 858 402 l 1,3,-1
 857 401 l 1,0,1
759 1007 m 0,4,5
 829 1007 829 1007 888.5 992 c 128,-1,6
 948 977 948 977 994 950 c 1,7,8
 1005 968 1005 968 1011.5 986.5 c 128,-1,9
 1018 1005 1018 1005 1023 1027 c 0,10,11
 1033 1077 1033 1077 1024.5 1125 c 128,-1,12
 1016 1173 1016 1173 989.5 1211 c 128,-1,13
 963 1249 963 1249 921 1272 c 128,-1,14
 879 1295 879 1295 823 1295 c 0,15,16
 770 1295 770 1295 721 1275.5 c 128,-1,17
 672 1256 672 1256 628.5 1215 c 128,-1,18
 585 1174 585 1174 548 1111.5 c 128,-1,19
 511 1049 511 1049 482 963 c 1,20,-1
 259 993 l 1,21,22
 338 1245 338 1245 493 1376 c 128,-1,23
 648 1507 648 1507 865 1507 c 0,24,25
 978 1507 978 1507 1061 1469.5 c 128,-1,26
 1144 1432 1144 1432 1194 1368.5 c 128,-1,27
 1244 1305 1244 1305 1260.5 1220 c 128,-1,28
 1277 1135 1277 1135 1257 1040 c 0,29,30
 1243 973 1243 973 1212 909 c 128,-1,31
 1181 845 1181 845 1134 791 c 1,32,33
 1159 734 1159 734 1162.5 673 c 128,-1,34
 1166 612 1166 612 1150 539 c 0,35,36
 1141 497 1141 497 1129.5 463.5 c 128,-1,37
 1118 430 1118 430 1101.5 399 c 128,-1,38
 1085 368 1085 368 1062 336.5 c 128,-1,39
 1039 305 1039 305 1006 268 c 1,40,-1
 495 -209 l 1,41,-1
 496 -208 l 1,42,43
 467 -240 467 -240 442 -289 c 128,-1,44
 417 -338 417 -338 397 -421 c 1,45,-1
 173 -421 l 1,46,47
 193 -358 193 -358 212 -307.5 c 128,-1,48
 231 -257 231 -257 251.5 -215 c 128,-1,49
 272 -173 272 -173 296 -137.5 c 128,-1,50
 320 -102 320 -102 351 -70 c 2,51,-1
 849 395 l 1,52,-1
 849 394 l 1,53,54
 851 396 851 396 851.5 397 c 128,-1,55
 852 398 852 398 854 399 c 1,56,57
 853 399 853 399 855 401 c 0,58,59
 857 406 857 406 860.5 411 c 128,-1,60
 864 416 864 416 869 421 c 1,61,-1
 869 420 l 1,62,63
 904 464 904 464 916 526 c 0,64,65
 927 579 927 579 917 627.5 c 128,-1,66
 907 676 907 676 880 713.5 c 128,-1,67
 853 751 853 751 811 773 c 128,-1,68
 769 795 769 795 716 795 c 0,69,70
 666 795 666 795 617.5 776 c 128,-1,71
 569 757 569 757 525 716.5 c 128,-1,72
 481 676 481 676 443 612.5 c 128,-1,73
 405 549 405 549 375 461 c 1,74,-1
 152 492 l 1,75,76
 192 618 192 618 253 714.5 c 128,-1,77
 314 811 314 811 392 876 c 128,-1,78
 470 941 470 941 562.5 974 c 128,-1,79
 655 1007 655 1007 759 1007 c 0,4,5
EndSplineSet
EndChar

StartChar: uniE028
Encoding: 48 57384 44
Width: 1248
GlyphClass: 1
Flags: W
AnchorPoint: "TehtaBelow" 848 -200 basechar 0
AnchorPoint: "TehtaAbove" 1148 1500 basechar 0
LayerCount: 2
Fore
SplineSet
718 884 m 1,0,1
 711 922 711 922 697.5 975 c 128,-1,2
 684 1028 684 1028 666 1098 c 0,3,4
 626 1243 626 1243 611 1260 c 0,5,6
 574 1300 574 1300 514 1300 c 0,7,8
 431 1300 431 1300 313 1238 c 1,9,-1
 360 1462 l 1,10,11
 429 1482 429 1482 482.5 1492.5 c 128,-1,12
 536 1503 536 1503 575 1503 c 0,13,14
 642 1503 642 1503 685.5 1489 c 128,-1,15
 729 1475 729 1475 761.5 1436 c 128,-1,16
 794 1397 794 1397 820 1327.5 c 128,-1,17
 846 1258 846 1258 877 1146 c 2,18,-1
 1192 -20 l 1,19,-1
 946 -20 l 1,20,-1
 777 648 l 1,21,22
 718 570 718 570 660 492 c 128,-1,23
 602 414 602 414 545 337 c 0,24,25
 481 250 481 250 412.5 159 c 128,-1,26
 344 68 344 68 278 -20 c 1,27,-1
 27 -20 l 1,28,-1
 718 884 l 1,0,1
EndSplineSet
EndChar

StartChar: uniE029
Encoding: 49 57385 45
Width: 1465
GlyphClass: 1
Flags: W
AnchorPoint: "TehtaBelow" 772 -200 basechar 0
AnchorPoint: "TehtaAbove" 972 1500 basechar 0
LayerCount: 2
Fore
SplineSet
1392 -20 m 1,0,-1
 1029 -20 l 2,1,2
 972 -20 972 -20 925.5 4.5 c 128,-1,3
 879 29 879 29 843 97 c 1,4,5
 774 29 774 29 692.5 -6 c 128,-1,6
 611 -41 611 -41 519 -41 c 0,7,8
 417 -41 417 -41 338.5 0.5 c 128,-1,9
 260 42 260 42 212 118 c 128,-1,10
 164 194 164 194 150 299 c 128,-1,11
 136 404 136 404 163 532 c 0,12,13
 188 650 188 650 241 755 c 128,-1,14
 294 860 294 860 370 938.5 c 128,-1,15
 446 1017 446 1017 543.5 1062.5 c 128,-1,16
 641 1108 641 1108 755 1108 c 0,17,18
 836 1108 836 1108 897.5 1079.5 c 128,-1,19
 959 1051 959 1051 1000 1003 c 1,20,-1
 1102 1485 l 1,21,-1
 1327 1485 l 1,22,-1
 1120 505 l 2,23,24
 1106 442 1106 442 1102.5 384.5 c 128,-1,25
 1099 327 1099 327 1110 283.5 c 128,-1,26
 1121 240 1121 240 1150 214 c 128,-1,27
 1179 188 1179 188 1231 188 c 2,28,-1
 1436 188 l 1,29,-1
 1392 -20 l 1,0,-1
395 532 m 0,30,31
 374 435 374 435 381 364 c 128,-1,32
 388 293 388 293 414 246 c 128,-1,33
 440 199 440 199 483 176 c 128,-1,34
 526 153 526 153 577 153 c 256,35,36
 628 153 628 153 679.5 174.5 c 128,-1,37
 731 196 731 196 775.5 241 c 128,-1,38
 820 286 820 286 855.5 354.5 c 128,-1,39
 891 423 891 423 911 517 c 0,40,41
 933 620 933 620 928 694.5 c 128,-1,42
 923 769 923 769 897.5 817.5 c 128,-1,43
 872 866 872 866 828.5 889 c 128,-1,44
 785 912 785 912 730 912 c 256,45,46
 675 912 675 912 623.5 889.5 c 128,-1,47
 572 867 572 867 528 820 c 128,-1,48
 484 773 484 773 450 701.5 c 128,-1,49
 416 630 416 630 395 532 c 0,30,31
EndSplineSet
EndChar

StartChar: uniE02A
Encoding: 50 57386 46
Width: 1055
GlyphClass: 1
Flags: W
AnchorPoint: "TehtaAbove" 855 1500 basechar 0
AnchorPoint: "TehtaBelow" 655 -200 basechar 0
LayerCount: 2
Fore
SplineSet
299 -20 m 1,0,-1
 55 -20 l 1,1,-1
 588 678 l 1,2,3
 576 748 576 748 561.5 792 c 128,-1,4
 547 836 547 836 527.5 860.5 c 128,-1,5
 508 885 508 885 483.5 893.5 c 128,-1,6
 459 902 459 902 428 902 c 0,7,8
 349 902 349 902 227 841 c 1,9,-1
 275 1064 l 1,10,11
 344 1084 344 1084 397.5 1094.5 c 128,-1,12
 451 1105 451 1105 490 1105 c 0,13,14
 623 1105 623 1105 680 1032 c 0,15,16
 705 998 705 998 733.5 926 c 128,-1,17
 762 854 762 854 791 748 c 0,18,19
 816 657 816 657 841 565 c 128,-1,20
 866 473 866 473 892 379 c 0,21,22
 905 332 905 332 918.5 281 c 128,-1,23
 932 230 932 230 946 178.5 c 128,-1,24
 960 127 960 127 974 76.5 c 128,-1,25
 988 26 988 26 1000 -19 c 1,26,-1
 760 -20 l 1,27,-1
 644 443 l 1,28,-1
 299 -20 l 1,0,-1
EndSplineSet
EndChar

StartChar: uniE02B
Encoding: 51 57387 47
Width: 1151
GlyphClass: 1
Flags: W
AnchorPoint: "TehtaBelow" 751 -200 basechar 0
AnchorPoint: "TehtaAbove" 951 1500 basechar 0
LayerCount: 2
Fore
SplineSet
162 530 m 0,0,1
 192 669 192 669 252.5 776 c 128,-1,2
 313 883 313 883 397 956 c 128,-1,3
 481 1029 481 1029 584.5 1067 c 128,-1,4
 688 1105 688 1105 802 1105 c 256,5,6
 916 1105 916 1105 1003 1066.5 c 128,-1,7
 1090 1028 1090 1028 1143 956 c 128,-1,8
 1196 884 1196 884 1212 780 c 128,-1,9
 1228 676 1228 676 1200 545 c 0,10,11
 1177 436 1177 436 1143 353 c 128,-1,12
 1109 270 1109 270 1064 207.5 c 128,-1,13
 1019 145 1019 145 962.5 100 c 128,-1,14
 906 55 906 55 839 22 c 0,15,16
 704 -44 704 -44 558 -44 c 0,17,18
 444 -44 444 -44 356.5 -7 c 128,-1,19
 269 30 269 30 215.5 102 c 128,-1,20
 162 174 162 174 147 281.5 c 128,-1,21
 132 389 132 389 162 530 c 0,0,1
393 530 m 256,22,23
 373 437 373 437 380 366 c 128,-1,24
 387 295 387 295 415 247 c 128,-1,25
 443 199 443 199 490.5 174.5 c 128,-1,26
 538 150 538 150 599 150 c 0,27,28
 659 150 659 150 716.5 173.5 c 128,-1,29
 774 197 774 197 822.5 245 c 128,-1,30
 871 293 871 293 908.5 365.5 c 128,-1,31
 946 438 946 438 967 536 c 0,32,33
 986 626 986 626 979 696 c 128,-1,34
 972 766 972 766 943.5 813 c 128,-1,35
 915 860 915 860 868 884.5 c 128,-1,36
 821 909 821 909 761 909 c 0,37,38
 700 909 700 909 642.5 884.5 c 128,-1,39
 585 860 585 860 536 812.5 c 128,-1,40
 487 765 487 765 450 694 c 128,-1,41
 413 623 413 623 393 530 c 256,22,23
EndSplineSet
EndChar

StartChar: uniE02C
Encoding: 52 57388 48
Width: 290
GlyphClass: 1
Flags: W
AnchorPoint: "TehtaBelow" 190 -500 basechar 0
AnchorPoint: "TehtaAbove" 490 1500 basechar 0
LayerCount: 2
Fore
SplineSet
-57 -426 m 1,0,-1
 263 1081 l 1,1,-1
 489 1081 l 1,2,-1
 169 -426 l 1,3,-1
 -57 -426 l 1,0,-1
EndSplineSet
EndChar

StartChar: uniE02D
Encoding: 53 57389 49
Width: 290
GlyphClass: 1
Flags: W
AnchorPoint: "TehtaAbove" 590 1800 basechar 0
AnchorPoint: "TehtaBelow" 290 -200 basechar 0
LayerCount: 2
Fore
SplineSet
29 -20 m 1,0,-1
 349 1485 l 1,1,-1
 575 1485 l 1,2,-1
 255 -20 l 1,3,-1
 29 -20 l 1,0,-1
EndSplineSet
EndChar

StartChar: uniE02E
Encoding: 54 57390 50
Width: 290
GlyphClass: 1
Flags: W
AnchorPoint: "TehtaBelow" 290 -200 basechar 0
AnchorPoint: "TehtaAbove" 490 1500 basechar 0
LayerCount: 2
Fore
SplineSet
29 -20 m 1,0,-1
 263 1081 l 1,1,-1
 489 1081 l 1,2,-1
 255 -20 l 1,3,-1
 29 -20 l 1,0,-1
EndSplineSet
EndChar

StartChar: uniE02F
Encoding: 55 57391 51
Width: 290
GlyphClass: 1
Flags: W
AnchorPoint: "TehtaBelow" 190 -500 basechar 0
AnchorPoint: "TehtaAbove" 590 1800 basechar 0
LayerCount: 2
Fore
SplineSet
-57 -426 m 1,0,-1
 349 1485 l 1,1,-1
 575 1485 l 1,2,-1
 169 -426 l 1,3,-1
 -57 -426 l 1,0,-1
EndSplineSet
EndChar

StartChar: uniE030
Encoding: 56 57392 52
Width: 793
GlyphClass: 1
Flags: W
LayerCount: 2
Fore
SplineSet
78 775 m 1,0,1
 104 812 104 812 138 855 c 0,2,3
 172 898 172 898 203 936 c 0,4,5
 351 1105 351 1105 560 1105 c 0,6,7
 648 1105 648 1105 716 1068 c 0,8,9
 784 1031 784 1031 822 960 c 0,10,11
 862 890 862 890 871 786 c 0,12,13
 880 682 880 682 852 549 c 0,14,15
 795 280 795 280 564 -20 c 1,16,-1
 338 -20 l 1,17,18
 394 66 394 66 435 133 c 0,19,20
 476 200 476 200 506 252 c 0,21,22
 536 304 536 304 554 346 c 0,23,24
 574 388 574 388 587 423 c 0,25,26
 600 458 600 458 608 490 c 0,27,28
 616 522 616 522 624 555 c 0,29,30
 641 634 641 634 641 700 c 0,31,32
 641 766 641 766 625 814 c 0,33,34
 609 862 609 862 577 889 c 0,35,36
 545 916 545 916 497 916 c 0,37,38
 452 916 452 916 406 896 c 0,39,40
 360 876 360 876 318 842 c 0,41,42
 274 810 274 810 233 769 c 0,43,44
 192 728 192 728 156 688 c 1,45,-1
 78 775 l 1,0,1
EndSplineSet
EndChar

StartChar: uniE031
Encoding: 57 57393 53
Width: 871
GlyphClass: 1
Flags: W
LayerCount: 2
Fore
SplineSet
851 175 m 1,0,-1
 809 -20 l 1,1,-1
 -81 -20 l 1,2,-1
 -39 175 l 1,3,-1
 465 175 l 1,4,5
 508 246 508 246 536 300 c 0,6,7
 564 354 564 354 580 398 c 0,8,9
 598 442 598 442 608 478 c 0,10,11
 618 516 618 516 627 555 c 0,12,13
 644 634 644 634 644 700 c 0,14,15
 644 766 644 766 628 814 c 0,16,17
 612 862 612 862 579 889 c 0,18,19
 547 916 547 916 501 916 c 0,20,21
 454 916 454 916 408 896 c 0,22,23
 362 876 362 876 320 842 c 0,24,25
 276 810 276 810 236 769 c 0,26,27
 196 728 196 728 159 688 c 1,28,-1
 81 775 l 1,29,30
 108 812 108 812 142 855 c 0,31,32
 176 898 176 898 206 936 c 0,33,34
 354 1105 354 1105 563 1105 c 0,35,36
 650 1105 650 1105 718 1068 c 0,37,38
 786 1031 786 1031 826 960 c 0,39,40
 866 890 866 890 874 786 c 0,41,42
 883 682 883 682 855 549 c 0,43,44
 835 457 835 457 797 363 c 0,45,46
 759 269 759 269 703 175 c 1,47,-1
 851 175 l 1,0,-1
EndSplineSet
EndChar

StartChar: uniE032
Encoding: 58 57394 54
Width: 775
GlyphClass: 1
Flags: W
LayerCount: 2
Fore
SplineSet
932 288 m 1,0,1
 876 205 876 205 822 143 c 0,2,3
 768 82 768 82 710 40 c 0,4,5
 652 -2 652 -2 588 -22 c 0,6,7
 524 -42 524 -42 449 -43 c 0,8,9
 359 -43 359 -43 292 -6 c 0,10,11
 226 32 226 32 186 102 c 0,12,13
 146 172 146 172 138 276 c 0,14,15
 130 380 130 380 158 513 c 0,16,17
 187 652 187 652 258 790 c 0,18,19
 329 928 329 928 444 1081 c 1,20,-1
 672 1081 l 1,21,22
 586 949 586 949 532 857 c 0,23,24
 478 765 478 765 454 711 c 0,25,26
 431 660 431 660 414 608 c 0,27,28
 397 556 397 556 386 506 c 0,29,30
 369 424 369 424 369 358 c 0,31,32
 370 292 370 292 386 244 c 0,33,34
 402 196 402 196 434 171 c 0,35,36
 466 145 466 145 512 145 c 0,37,38
 557 146 557 146 602 166 c 0,39,40
 646 186 646 186 690 218 c 0,41,42
 734 250 734 250 776 290 c 0,43,44
 818 330 818 330 856 372 c 1,45,-1
 932 288 l 1,0,1
EndSplineSet
EndChar

StartChar: uniE033
Encoding: 59 57395 55
Width: 856
GlyphClass: 1
Flags: W
LayerCount: 2
Fore
SplineSet
237 886 m 1,0,-1
 278 1081 l 1,1,-1
 1169 1081 l 1,2,-1
 1128 886 l 1,3,-1
 623 886 l 1,4,5
 590 831 590 831 566 785 c 0,6,7
 542 739 542 739 529 711 c 0,8,9
 508 662 508 662 490 608 c 0,10,11
 472 554 472 554 461 506 c 0,12,13
 444 421 444 421 444 354 c 0,14,15
 444 286 444 286 461 240 c 0,16,17
 478 194 478 194 510 170 c 0,18,19
 542 146 542 146 587 145 c 0,20,21
 633 145 633 145 677 165 c 0,22,23
 721 185 721 185 764 217 c 0,24,25
 806 249 806 249 848 290 c 0,26,27
 890 331 890 331 930 372 c 1,28,-1
 1009 288 l 1,29,30
 952 207 952 207 898 145 c 0,31,32
 844 84 844 84 786 42 c 0,33,34
 728 0 728 0 664 -22 c 0,35,36
 600 -44 600 -44 525 -43 c 0,37,38
 436 -43 436 -43 368 -6 c 0,39,40
 300 30 300 30 260 102 c 0,41,42
 220 174 220 174 213 278 c 0,43,44
 205 382 205 382 233 513 c 0,45,46
 252 604 252 604 290 698 c 0,47,48
 328 792 328 792 385 886 c 1,49,-1
 237 886 l 1,0,-1
EndSplineSet
EndChar

StartChar: uniE034
Encoding: 60 57396 56
Width: 1058
GlyphClass: 1
Flags: W
LayerCount: 2
Fore
SplineSet
271 -20 m 1,0,-1
 44 -20 l 1,1,-1
 278 1081 l 1,2,-1
 505 1081 l 1,3,-1
 495 1034 l 1,4,5
 566 1071 566 1071 636 1088 c 0,6,7
 706 1105 706 1105 782 1105 c 0,8,9
 870 1105 870 1105 940 1081 c 0,10,11
 1010 1057 1010 1057 1058 1010 c 0,12,13
 1106 963 1106 963 1131 894 c 0,14,15
 1156 825 1156 825 1154 735 c 1,16,-1
 928 701 l 1,17,18
 922 806 922 806 878 860 c 0,19,20
 834 914 834 914 749 913 c 0,21,22
 688 913 688 913 632 892 c 0,23,24
 576 871 576 871 530 826 c 0,25,26
 484 781 484 781 448 711 c 0,27,28
 412 641 412 641 391 544 c 2,29,-1
 271 -20 l 1,0,-1
EndSplineSet
EndChar

StartChar: uniE035
Encoding: 61 57397 57
Width: 1895
GlyphClass: 1
Flags: W
AnchorPoint: "TehtaAbove" 895 1500 basechar 0
AnchorPoint: "TehtaBelow" 695 -200 basechar 0
LayerCount: 2
Fore
SplineSet
892 51 m 1,0,1
 816 4 816 4 733.5 -20 c 128,-1,2
 651 -44 651 -44 559 -44 c 0,3,4
 443 -44 443 -44 356 -6 c 128,-1,5
 269 32 269 32 216.5 105 c 128,-1,6
 164 178 164 178 149 285 c 128,-1,7
 134 392 134 392 163 530 c 0,8,9
 193 668 193 668 254.5 775.5 c 128,-1,10
 316 883 316 883 402.5 956 c 128,-1,11
 489 1029 489 1029 597 1067 c 128,-1,12
 705 1105 705 1105 827 1105 c 1,13,-1
 786 909 l 1,14,15
 718 909 718 909 656 884.5 c 128,-1,16
 594 860 594 860 542.5 812.5 c 128,-1,17
 491 765 491 765 453 694 c 128,-1,18
 415 623 415 623 395 530 c 256,19,20
 375 437 375 437 382 366 c 128,-1,21
 389 295 389 295 417.5 247 c 128,-1,22
 446 199 446 199 493 175 c 128,-1,23
 540 151 540 151 601 151 c 256,24,25
 662 151 662 151 718 174.5 c 128,-1,26
 774 198 774 198 825 243 c 0,27,28
 851 267 851 267 877 297.5 c 128,-1,29
 903 328 903 328 926 365 c 128,-1,30
 949 402 949 402 967.5 443.5 c 128,-1,31
 986 485 986 485 996 532 c 2,32,-1
 1111 1081 l 1,33,-1
 1336 1081 l 1,34,-1
 1326 1033 l 1,35,36
 1395 1068 1395 1068 1467 1086.5 c 128,-1,37
 1539 1105 1539 1105 1614 1105 c 0,38,39
 1795 1105 1795 1105 1891.5 1010 c 128,-1,40
 1988 915 1988 915 1986 735 c 1,41,-1
 1759 701 l 1,42,43
 1752 812 1752 812 1707 862.5 c 128,-1,44
 1662 913 1662 913 1581 913 c 0,45,46
 1521 913 1521 913 1465 892 c 128,-1,47
 1409 871 1409 871 1362 826 c 128,-1,48
 1315 781 1315 781 1279 711 c 128,-1,49
 1243 641 1243 641 1222 544 c 2,50,-1
 1102 -20 l 1,51,-1
 877 -20 l 1,52,-1
 892 51 l 1,0,1
EndSplineSet
EndChar

StartChar: uniE036
Encoding: 62 57398 58
Width: 1078
GlyphClass: 1
Flags: W
AnchorPoint: "TehtaAbove" 878 1500 basechar 0
AnchorPoint: "TehtaBelow" 678 -200 basechar 0
LayerCount: 2
Fore
SplineSet
952 -20 m 1,0,-1
 744 -20 l 1,1,-1
 769 95 l 1,2,3
 693 24 693 24 608.5 -10 c 128,-1,4
 524 -44 524 -44 427 -44 c 0,5,6
 368 -44 368 -44 315.5 -29 c 128,-1,7
 263 -14 263 -14 222 13.5 c 128,-1,8
 181 41 181 41 154.5 79.5 c 128,-1,9
 128 118 128 118 121 165 c 0,10,11
 115 213 115 213 119 273 c 128,-1,12
 123 333 123 333 138 404 c 2,13,-1
 282 1081 l 1,14,-1
 509 1081 l 1,15,-1
 380 473 l 2,16,17
 366 410 366 410 358.5 364.5 c 128,-1,18
 351 319 351 319 351.5 286 c 128,-1,19
 352 253 352 253 361.5 231 c 128,-1,20
 371 209 371 209 393 193 c 0,21,22
 434 158 434 158 507 158 c 0,23,24
 552 158 552 158 600 174 c 128,-1,25
 648 190 648 190 698 223 c 0,26,27
 790 284 790 284 835 494 c 2,28,-1
 959 1081 l 1,29,-1
 1186 1081 l 1,30,-1
 952 -20 l 1,0,-1
EndSplineSet
EndChar

StartChar: uniE037
Encoding: 63 57399 59
Width: 1172
GlyphClass: 1
Flags: W
AnchorPoint: "TehtaBelow" 772 -200 basechar 0
AnchorPoint: "TehtaAbove" 972 1500 basechar 0
LayerCount: 2
Fore
SplineSet
858 175 m 1,0,1
 878 233 878 233 896.5 301.5 c 128,-1,2
 915 370 915 370 935 459 c 2,3,-1
 938 471 l 1,4,5
 969 617 969 617 955.5 713.5 c 128,-1,6
 942 810 942 810 879 868 c 0,7,8
 853 892 853 892 820.5 904 c 128,-1,9
 788 916 788 916 752 916 c 0,10,11
 705 916 705 916 662 889.5 c 128,-1,12
 619 863 619 863 582 815 c 128,-1,13
 545 767 545 767 516 700.5 c 128,-1,14
 487 634 487 634 470 555 c 0,15,16
 462 520 462 520 457 482.5 c 128,-1,17
 452 445 452 445 451.5 400 c 128,-1,18
 451 355 451 355 456.5 300 c 128,-1,19
 462 245 462 245 475 175 c 1,20,-1
 858 175 l 1,0,1
814 -20 m 1,21,-1
 45 -20 l 1,22,-1
 87 175 l 1,23,-1
 235 175 l 1,24,25
 218 269 218 269 220 362.5 c 128,-1,26
 222 456 222 456 242 549 c 0,27,28
 270 683 270 683 323.5 786.5 c 128,-1,29
 377 890 377 890 446.5 961 c 128,-1,30
 516 1032 516 1032 599 1068.5 c 128,-1,31
 682 1105 682 1105 770 1105 c 256,32,33
 858 1105 858 1105 921 1075.5 c 128,-1,34
 984 1046 984 1046 1026 983 c 1,35,36
 1032 1009 1032 1009 1038 1035 c 128,-1,37
 1044 1061 1044 1061 1048 1081 c 1,38,-1
 1275 1081 l 1,39,-1
 955 -426 l 1,40,-1
 728 -426 l 1,41,-1
 814 -20 l 1,21,-1
EndSplineSet
EndChar

StartChar: uniE038
Encoding: 64 57400 60
Width: 1172
GlyphClass: 1
Flags: W
AnchorPoint: "TehtaBelow" 772 -200 basechar 0
AnchorPoint: "TehtaAbove" 972 1500 basechar 0
LayerCount: 2
Fore
SplineSet
858 175 m 1,0,1
 878 233 878 233 896.5 301.5 c 128,-1,2
 915 370 915 370 935 459 c 2,3,-1
 938 471 l 1,4,5
 969 617 969 617 955.5 713.5 c 128,-1,6
 942 810 942 810 879 868 c 0,7,8
 853 892 853 892 820.5 904 c 128,-1,9
 788 916 788 916 752 916 c 0,10,11
 705 916 705 916 662 889.5 c 128,-1,12
 619 863 619 863 582 815 c 128,-1,13
 545 767 545 767 516 700.5 c 128,-1,14
 487 634 487 634 470 555 c 0,15,16
 462 520 462 520 457 482.5 c 128,-1,17
 452 445 452 445 451.5 400 c 128,-1,18
 451 355 451 355 456.5 300 c 128,-1,19
 462 245 462 245 475 175 c 1,20,-1
 858 175 l 1,0,1
45 -20 m 1,21,-1
 87 175 l 1,22,-1
 235 175 l 1,23,24
 218 269 218 269 220 362.5 c 128,-1,25
 222 456 222 456 242 549 c 0,26,27
 270 683 270 683 323.5 786.5 c 128,-1,28
 377 890 377 890 446.5 961 c 128,-1,29
 516 1032 516 1032 599 1068.5 c 128,-1,30
 682 1105 682 1105 770 1105 c 256,31,32
 858 1105 858 1105 921 1075.5 c 128,-1,33
 984 1046 984 1046 1026 983 c 1,34,35
 1053 1108 1053 1108 1080.5 1235.5 c 128,-1,36
 1108 1363 1108 1363 1134 1485 c 1,37,-1
 1361 1485 l 1,38,-1
 1041 -20 l 1,39,-1
 45 -20 l 1,21,-1
EndSplineSet
EndChar

StartChar: uniE039
Encoding: 65 57401 61
Width: 1108
GlyphClass: 1
Flags: W
LayerCount: 2
Fore
SplineSet
621 223 m 1,0,1
 624 222 624 222 629 220 c 0,2,3
 634 218 634 218 637 217 c 0,4,5
 688 198 688 198 734 182 c 0,6,7
 780 166 780 166 815 167 c 0,8,9
 843 168 843 168 878 178 c 0,10,11
 913 188 913 188 951 207 c 0,12,13
 989 226 989 226 1029 252 c 0,14,15
 1069 278 1069 278 1107 309 c 1,16,-1
 1057 71 l 1,17,18
 1016 44 1016 44 980 24 c 0,19,20
 944 4 944 4 908 -8 c 0,21,22
 872 -20 872 -20 834 -26 c 0,23,24
 796 -32 796 -32 754 -33 c 0,25,26
 722 -32 722 -32 696 -30 c 0,27,28
 670 -28 670 -28 642 -21 c 0,29,30
 614 -14 614 -14 580 -0 c 0,31,32
 546 14 546 14 496 34 c 0,33,34
 447 54 447 54 404 64 c 0,35,36
 361 74 361 74 330 75 c 0,37,38
 303 74 303 74 277 70 c 0,39,40
 251 66 251 66 218 51 c 0,41,42
 186 36 186 36 142 9 c 0,43,44
 98 -18 98 -18 36 -63 c 1,45,-1
 84 164 l 1,46,47
 222 275 222 275 389 275 c 2,48,-1
 400 275 l 1,49,-1
 401 276 l 2,50,51
 406 282 406 282 415 294 c 0,52,53
 424 306 424 306 432 314 c 0,54,55
 560 452 560 452 694 598 c 0,56,57
 828 744 828 744 955 883 c 1,58,-1
 954 881 l 1,59,60
 961 890 961 890 966 898 c 0,61,62
 968 903 968 903 975 908 c 0,63,64
 1011 956 1011 956 1023 1015 c 0,65,66
 1034 1068 1034 1068 1024 1116 c 0,67,68
 1014 1164 1014 1164 987 1202 c 0,69,70
 960 1240 960 1240 918 1262 c 0,71,72
 876 1284 876 1284 823 1284 c 256,73,74
 770 1284 770 1284 722 1264 c 0,75,76
 674 1244 674 1244 630 1204 c 0,77,78
 586 1162 586 1162 549 1100 c 0,79,80
 512 1038 512 1038 483 952 c 1,81,-1
 259 981 l 1,82,83
 298 1105 298 1105 357 1201 c 0,84,85
 416 1296 416 1296 492 1362 c 0,86,87
 568 1428 568 1428 662 1462 c 0,88,89
 756 1496 756 1496 865 1496 c 0,90,91
 976 1496 976 1496 1060 1459 c 0,92,93
 1144 1422 1144 1422 1194 1358 c 0,94,95
 1244 1294 1244 1294 1262 1210 c 0,96,97
 1278 1125 1278 1125 1257 1029 c 0,98,99
 1249 990 1249 990 1237 956 c 0,100,101
 1225 922 1225 922 1208 892 c 0,102,103
 1191 860 1191 860 1168 828 c 0,104,105
 1145 796 1145 796 1114 759 c 2,106,-1
 621 223 l 1,0,1
EndSplineSet
EndChar

StartChar: uniE03A
Encoding: 66 57402 62
Width: 1970
GlyphClass: 1
Flags: W
AnchorPoint: "TehtaAbove" 1310 1500 basechar 0
AnchorPoint: "TehtaBelow" 1110 -200 basechar 0
LayerCount: 2
Fore
SplineSet
705 175 m 1,0,1
 748 246 748 246 776 299.5 c 128,-1,2
 804 353 804 353 821.5 396.5 c 128,-1,3
 839 440 839 440 849.5 477.5 c 128,-1,4
 860 515 860 515 868 555 c 0,5,6
 885 634 885 634 885 700.5 c 128,-1,7
 885 767 885 767 868.5 815 c 128,-1,8
 852 863 852 863 820.5 889.5 c 128,-1,9
 789 916 789 916 744 916 c 0,10,11
 709 916 709 916 672.5 903.5 c 128,-1,12
 636 891 636 891 601.5 869 c 128,-1,13
 567 847 567 847 536 817 c 128,-1,14
 505 787 505 787 482 752 c 0,15,16
 410 649 410 649 372 467 c 0,17,18
 352 376 352 376 341 304.5 c 128,-1,19
 330 233 330 233 325 175 c 1,20,-1
 705 175 l 1,0,1
1344 175 m 1,21,22
 1386 246 1386 246 1413 298.5 c 128,-1,23
 1440 351 1440 351 1457.5 393.5 c 128,-1,24
 1475 436 1475 436 1485 474.5 c 128,-1,25
 1495 513 1495 513 1504 555 c 0,26,27
 1522 637 1522 637 1521.5 703.5 c 128,-1,28
 1521 770 1521 770 1504.5 817 c 128,-1,29
 1488 864 1488 864 1455.5 890 c 128,-1,30
 1423 916 1423 916 1377 916 c 0,31,32
 1330 916 1330 916 1287 890 c 128,-1,33
 1244 864 1244 864 1207 816 c 128,-1,34
 1170 768 1170 768 1141 700.5 c 128,-1,35
 1112 633 1112 633 1094 549 c 0,36,37
 1074 456 1074 456 1036.5 362.5 c 128,-1,38
 999 269 999 269 944 175 c 1,39,-1
 1344 175 l 1,21,22
51 -18 m 1,40,-1
 285 1083 l 1,41,-1
 522 1083 l 1,42,-1
 501 984 l 1,43,44
 569 1046 569 1046 643.5 1075.5 c 128,-1,45
 718 1105 718 1105 806 1105 c 0,46,47
 1001 1105 1001 1105 1081 930 c 1,48,49
 1157 1018 1157 1018 1245 1061.5 c 128,-1,50
 1333 1105 1333 1105 1426 1105 c 0,51,52
 1529 1105 1529 1105 1600 1066.5 c 128,-1,53
 1671 1028 1671 1028 1709.5 956 c 128,-1,54
 1748 884 1748 884 1753.5 781 c 128,-1,55
 1759 678 1759 678 1732 549 c 0,56,57
 1712 455 1712 455 1674.5 362.5 c 128,-1,58
 1637 270 1637 270 1580 175 c 1,59,-1
 1630 175 l 2,60,61
 1693 175 1693 175 1744 151 c 128,-1,62
 1795 127 1795 127 1828.5 85 c 128,-1,63
 1862 43 1862 43 1875 -13 c 128,-1,64
 1888 -69 1888 -69 1874 -133 c 256,65,66
 1860 -197 1860 -197 1824 -253.5 c 128,-1,67
 1788 -310 1788 -310 1737 -352.5 c 128,-1,68
 1686 -395 1686 -395 1624 -419.5 c 128,-1,69
 1562 -444 1562 -444 1498 -444 c 0,70,71
 1371 -444 1371 -444 1286 -336 c 1,72,-1
 1452 -198 l 1,73,74
 1492 -249 1492 -249 1540 -249 c 0,75,76
 1562 -249 1562 -249 1584.5 -240 c 128,-1,77
 1607 -231 1607 -231 1626 -215.5 c 128,-1,78
 1645 -200 1645 -200 1659 -179 c 128,-1,79
 1673 -158 1673 -158 1678 -134 c 0,80,81
 1683 -111 1683 -111 1678.5 -90.5 c 128,-1,82
 1674 -70 1674 -70 1662 -54 c 128,-1,83
 1650 -38 1650 -38 1631 -29 c 128,-1,84
 1612 -20 1612 -20 1588 -20 c 2,85,-1
 51 -18 l 1,40,-1
EndSplineSet
EndChar

StartChar: uniE03B
Encoding: 67 57403 63
Width: 1333
GlyphClass: 1
Flags: W
AnchorPoint: "TehtaBelow" 770 -200 basechar 0
AnchorPoint: "TehtaAbove" 970 1500 basechar 0
LayerCount: 2
Fore
SplineSet
263 -18 m 1,0,-1
 50 -18 l 1,1,-1
 284 1083 l 1,2,-1
 520 1083 l 1,3,-1
 500 984 l 1,4,5
 568 1046 568 1046 644 1075.5 c 128,-1,6
 720 1105 720 1105 808 1105 c 256,7,8
 896 1105 896 1105 963.5 1068.5 c 128,-1,9
 1031 1032 1031 1032 1070.5 961 c 128,-1,10
 1110 890 1110 890 1119 786.5 c 128,-1,11
 1128 683 1128 683 1100 549 c 0,12,13
 1080 456 1080 456 1042 362.5 c 128,-1,14
 1004 269 1004 269 948 175 c 1,15,-1
 997 175 l 2,16,17
 1058 175 1058 175 1109 152 c 128,-1,18
 1160 129 1160 129 1194 88 c 128,-1,19
 1228 47 1228 47 1241.5 -9.5 c 128,-1,20
 1255 -66 1255 -66 1241 -133 c 0,21,22
 1227 -197 1227 -197 1191.5 -253.5 c 128,-1,23
 1156 -310 1156 -310 1105 -352.5 c 128,-1,24
 1054 -395 1054 -395 992 -419.5 c 128,-1,25
 930 -444 930 -444 865 -444 c 0,26,27
 738 -444 738 -444 654 -336 c 1,28,-1
 820 -198 l 1,29,30
 860 -249 860 -249 908 -249 c 0,31,32
 932 -249 932 -249 954.5 -239.5 c 128,-1,33
 977 -230 977 -230 996 -214 c 128,-1,34
 1015 -198 1015 -198 1028 -177.5 c 128,-1,35
 1041 -157 1041 -157 1046 -134 c 0,36,37
 1050 -113 1050 -113 1046 -92.5 c 128,-1,38
 1042 -72 1042 -72 1030 -56 c 128,-1,39
 1018 -40 1018 -40 999.5 -30 c 128,-1,40
 981 -20 981 -20 956 -20 c 2,41,-1
 263 -18 l 1,0,-1
709 175 m 1,42,43
 744 233 744 233 767.5 276.5 c 128,-1,44
 791 320 791 320 805 351 c 1,45,-1
 804 350 l 1,46,47
 832 413 832 413 848.5 462.5 c 128,-1,48
 865 512 865 512 874 555 c 0,49,50
 891 634 891 634 890.5 700.5 c 128,-1,51
 890 767 890 767 873.5 815 c 128,-1,52
 857 863 857 863 824.5 889.5 c 128,-1,53
 792 916 792 916 746 916 c 0,54,55
 709 916 709 916 672 903.5 c 128,-1,56
 635 891 635 891 600.5 869 c 128,-1,57
 566 847 566 847 535.5 817 c 128,-1,58
 505 787 505 787 482 753 c 0,59,60
 444 698 444 698 416.5 627 c 128,-1,61
 389 556 389 556 370 468 c 0,62,63
 350 374 350 374 339 304 c 128,-1,64
 328 234 328 234 324 175 c 1,65,-1
 709 175 l 1,42,43
EndSplineSet
EndChar

StartChar: uniE03C
Encoding: 68 57404 64
Width: 1140
GlyphClass: 1
Flags: W
LayerCount: 2
Fore
SplineSet
490 76 m 1,0,1
 473 250 473 250 457 421 c 0,2,3
 441 592 441 592 425 763 c 0,4,5
 408 936 408 936 390 1122 c 0,6,7
 372 1308 372 1308 356 1485 c 1,8,-1
 592 1485 l 1,9,-1
 697 347 l 1,10,11
 772 444 772 444 844 538 c 0,12,13
 916 632 916 632 989 732 c 0,14,15
 1000 746 1000 746 1005 771 c 0,16,17
 1010 795 1010 795 1005 816 c 0,18,19
 1000 836 1000 836 988 852 c 0,20,21
 976 868 976 868 956 877 c 0,22,23
 938 886 938 886 916 886 c 2,24,-1
 659 886 l 1,25,-1
 700 1081 l 1,26,-1
 993 1081 l 2,27,28
 1056 1081 1056 1081 1107 1057 c 0,29,30
 1158 1033 1158 1033 1192 991 c 0,31,32
 1226 949 1226 949 1238 892 c 0,33,34
 1251 835 1251 835 1237 770 c 0,35,36
 1224 705 1224 705 1192 655 c 1,37,-1
 364 -426 l 1,38,-1
 112 -426 l 1,39,-1
 490 76 l 1,0,1
EndSplineSet
EndChar

StartChar: uniE03D
Encoding: 69 57405 65
Width: 1337
GlyphClass: 1
Flags: W
AnchorPoint: "TehtaAbove" 951 1500 basechar 0
AnchorPoint: "TehtaBelow" 751 -200 basechar 0
LayerCount: 2
Fore
SplineSet
389 506 m 0,0,1
 369 412 369 412 376 341 c 128,-1,2
 383 270 383 270 411 222 c 128,-1,3
 439 174 439 174 486 150 c 128,-1,4
 533 126 533 126 594 126 c 0,5,6
 653 126 653 126 710 148.5 c 128,-1,7
 767 171 767 171 816 218.5 c 128,-1,8
 865 266 865 266 903 338.5 c 128,-1,9
 941 411 941 411 962 512 c 0,10,11
 981 603 981 603 974 672.5 c 128,-1,12
 967 742 967 742 938.5 789.5 c 128,-1,13
 910 837 910 837 863 861 c 128,-1,14
 816 885 816 885 756 885 c 0,15,16
 695 885 695 885 637.5 860.5 c 128,-1,17
 580 836 580 836 531.5 788.5 c 128,-1,18
 483 741 483 741 446 670 c 128,-1,19
 409 599 409 599 389 506 c 0,0,1
725 -43 m 1,20,21
 684 -56 684 -56 640.5 -62 c 128,-1,22
 597 -68 597 -68 553 -68 c 0,23,24
 437 -68 437 -68 349.5 -30 c 128,-1,25
 262 8 262 8 209.5 81 c 128,-1,26
 157 154 157 154 142.5 261 c 128,-1,27
 128 368 128 368 157 506 c 256,28,29
 186 644 186 644 246.5 751 c 128,-1,30
 307 858 307 858 391 931.5 c 128,-1,31
 475 1005 475 1005 578.5 1043 c 128,-1,32
 682 1081 682 1081 797 1081 c 0,33,34
 908 1081 908 1081 994.5 1043.5 c 128,-1,35
 1081 1006 1081 1006 1135 934.5 c 128,-1,36
 1189 863 1189 863 1206 759 c 128,-1,37
 1223 655 1223 655 1195 521 c 0,38,39
 1171 408 1171 408 1137 325.5 c 128,-1,40
 1103 243 1103 243 1052 178 c 1,41,42
 1097 172 1097 172 1139.5 156.5 c 128,-1,43
 1182 141 1182 141 1211.5 107 c 128,-1,44
 1241 73 1241 73 1251 16 c 128,-1,45
 1261 -41 1261 -41 1242 -131 c 0,46,47
 1232 -176 1232 -176 1216 -224.5 c 128,-1,48
 1200 -273 1200 -273 1177 -327 c 1,49,-1
 1045 -299 l 1,50,51
 1060 -260 1060 -260 1070 -227.5 c 128,-1,52
 1080 -195 1080 -195 1086 -166 c 0,53,54
 1092 -140 1092 -140 1093 -117.5 c 128,-1,55
 1094 -95 1094 -95 1083.5 -78.5 c 128,-1,56
 1073 -62 1073 -62 1047 -52.5 c 128,-1,57
 1021 -43 1021 -43 973 -43 c 2,58,-1
 725 -43 l 1,20,21
EndSplineSet
EndChar

StartChar: uniE040
Encoding: 70 57408 66
Width: 0
Flags: W
AnchorPoint: "mkmk_up" -100 1800 basemark 0
AnchorPoint: "mkmk_up" -200 1500 mark 0
AnchorPoint: "TehtaAbove" -200 1500 mark 0
LayerCount: 2
Fore
SplineSet
-346 1420 m 1,0,-1
 -302 1626 l 1,1,-1
 -96 1626 l 1,2,-1
 -140 1420 l 1,3,-1
 -346 1420 l 1,0,-1
-174 1229 m 1,4,-1
 -131 1434 l 1,5,-1
 74 1434 l 1,6,-1
 31 1229 l 1,7,-1
 -174 1229 l 1,4,-1
-598 1229 m 1,8,-1
 -555 1434 l 1,9,-1
 -349 1434 l 1,10,-1
 -392 1229 l 1,11,-1
 -598 1229 l 1,8,-1
EndSplineSet
EndChar

StartChar: uniE041
Encoding: 71 57409 67
Width: 0
Flags: W
AnchorPoint: "mkmk_down" -400 -200 mark 0
AnchorPoint: "mkmk_down" -500 -500 basemark 0
AnchorPoint: "TehtaBelow" -400 -200 mark 0
LayerCount: 2
Fore
SplineSet
-239 -46 m 1,0,-1
 -283 -252 l 1,1,-1
 -489 -252 l 1,2,-1
 -445 -46 l 1,3,-1
 -239 -46 l 1,0,-1
-663 -46 m 1,4,-1
 -707 -252 l 1,5,-1
 -913 -252 l 1,6,-1
 -869 -46 l 1,7,-1
 -663 -46 l 1,4,-1
-492 -238 m 1,8,-1
 -536 -444 l 1,9,-1
 -742 -444 l 1,10,-1
 -698 -238 l 1,11,-1
 -492 -238 l 1,8,-1
EndSplineSet
EndChar

StartChar: uniE042
Encoding: 72 57410 68
Width: 0
Flags: W
AnchorPoint: "mkmk_up" -200 1500 mark 0
AnchorPoint: "mkmk_up" -100 1800 basemark 0
AnchorPoint: "TehtaAbove" -200 1500 mark 0
LayerCount: 2
Fore
SplineSet
-199 1301 m 1,0,-1
 -146 1552 l 1,1,-1
 88 1552 l 1,2,-1
 35 1301 l 1,3,-1
 -199 1301 l 1,0,-1
-569 1301 m 1,4,-1
 -516 1552 l 1,5,-1
 -281 1552 l 1,6,-1
 -334 1301 l 1,7,-1
 -569 1301 l 1,4,-1
EndSplineSet
Ligature2: "Ligatures subtable" uniE044 uniE044
LCarets2: 1 0
EndChar

StartChar: uniE043
Encoding: 73 57411 69
Width: 0
Flags: W
AnchorPoint: "mkmk_down" -500 -500 basemark 0
AnchorPoint: "mkmk_down" -400 -200 mark 0
AnchorPoint: "TehtaBelow" -400 -200 mark 0
LayerCount: 2
Fore
SplineSet
-936 -426 m 1,0,-1
 -883 -175 l 1,1,-1
 -648 -175 l 1,2,-1
 -701 -426 l 1,3,-1
 -936 -426 l 1,0,-1
-566 -426 m 1,4,-1
 -513 -175 l 1,5,-1
 -278 -175 l 1,6,-1
 -331 -426 l 1,7,-1
 -566 -426 l 1,4,-1
EndSplineSet
Ligature2: "Ligatures subtable" uniE045 uniE045
LCarets2: 1 0
EndChar

StartChar: uniE044
Encoding: 74 57412 70
Width: 0
Flags: W
AnchorPoint: "mkmk_up" -200 1500 mark 0
AnchorPoint: "mkmk_up" -100 1800 basemark 0
AnchorPoint: "TehtaAbove" -200 1500 mark 0
LayerCount: 2
Fore
SplineSet
-383 1300 m 1,0,-1
 -330 1551 l 1,1,-1
 -96 1551 l 1,2,-1
 -149 1300 l 1,3,-1
 -383 1300 l 1,0,-1
EndSplineSet
EndChar

StartChar: uniE045
Encoding: 75 57413 71
Width: 0
Flags: W
AnchorPoint: "mkmk_down" -500 -500 basemark 0
AnchorPoint: "mkmk_down" -400 -200 mark 0
AnchorPoint: "TehtaBelow" -400 -200 mark 0
LayerCount: 2
Fore
SplineSet
-465 -175 m 1,0,-1
 -518 -426 l 1,1,-1
 -752 -426 l 1,2,-1
 -699 -175 l 1,3,-1
 -465 -175 l 1,0,-1
EndSplineSet
EndChar

StartChar: uniE046
Encoding: 76 57414 72
Width: 0
Flags: W
AnchorPoint: "mkmk_up" -200 1500 mark 0
AnchorPoint: "mkmk_up" -100 1800 basemark 0
AnchorPoint: "TehtaAbove" -200 1500 mark 0
LayerCount: 2
Fore
SplineSet
85 1591 m 1,0,-1
 -241 1264 l 1,1,-1
 -438 1264 l 1,2,-1
 -213 1591 l 1,3,-1
 85 1591 l 1,0,-1
EndSplineSet
EndChar

StartChar: uniE047
Encoding: 77 57415 73
Width: 0
Flags: W
AnchorPoint: "mkmk_down" -500 -500 basemark 0
AnchorPoint: "mkmk_down" -400 -200 mark 0
AnchorPoint: "TehtaBelow" -400 -200 mark 0
LayerCount: 2
Fore
SplineSet
-924 -444 m 1,0,-1
 -597 -117 l 1,1,-1
 -400 -117 l 1,2,-1
 -625 -444 l 1,3,-1
 -924 -444 l 1,0,-1
EndSplineSet
EndChar

StartChar: uniE048
Encoding: 78 57416 74
Width: 0
Flags: W
AnchorPoint: "mkmk_up" -200 1500 mark 0
AnchorPoint: "mkmk_up" -100 1800 basemark 0
AnchorPoint: "TehtaAbove" -200 1500 mark 0
LayerCount: 2
Fore
SplineSet
249 1590 m 1,0,-1
 -76 1263 l 1,1,-1
 -273 1263 l 1,2,-1
 -49 1590 l 1,3,-1
 249 1590 l 1,0,-1
-86 1590 m 1,4,-1
 -412 1263 l 1,5,-1
 -609 1263 l 1,6,-1
 -385 1590 l 1,7,-1
 -86 1590 l 1,4,-1
EndSplineSet
Ligature2: "Ligatures subtable" uniE046 uniE046
LCarets2: 1 0
EndChar

StartChar: uniE049
Encoding: 79 57417 75
Width: 0
Flags: W
AnchorPoint: "mkmk_down" -500 -500 basemark 0
AnchorPoint: "mkmk_down" -400 -200 mark 0
AnchorPoint: "TehtaBelow" -400 -200 mark 0
LayerCount: 2
Fore
SplineSet
-759 -444 m 1,0,-1
 -432 -117 l 1,1,-1
 -235 -117 l 1,2,-1
 -460 -444 l 1,3,-1
 -759 -444 l 1,0,-1
-1095 -444 m 1,4,-1
 -768 -117 l 1,5,-1
 -571 -117 l 1,6,-1
 -796 -444 l 1,7,-1
 -1095 -444 l 1,4,-1
EndSplineSet
Ligature2: "Ligatures subtable" uniE047 uniE047
LCarets2: 1 0
EndChar

StartChar: uniE04A
Encoding: 80 57418 76
Width: 0
Flags: W
AnchorPoint: "mkmk_up" -200 1500 mark 0
AnchorPoint: "mkmk_up" -100 1800 basemark 0
AnchorPoint: "TehtaAbove" -200 1500 mark 0
LayerCount: 2
Fore
SplineSet
-99 1375 m 1,0,1
 -94 1427 -94 1427 -95 1467 c 128,-1,2
 -96 1507 -96 1507 -107 1525 c 0,3,4
 -115 1538 -115 1538 -128.5 1542.5 c 128,-1,5
 -142 1547 -142 1547 -157 1542 c 1,6,-1
 -155 1542 l 1,7,8
 -176 1532 -176 1532 -217 1491 c 2,9,-1
 -501 1205 l 1,10,-1
 -589 1342 l 1,11,-1
 -234 1697 l 2,12,13
 -197 1730 -197 1730 -162.5 1741 c 128,-1,14
 -128 1752 -128 1752 -97.5 1747 c 128,-1,15
 -67 1742 -67 1742 -41.5 1722.5 c 128,-1,16
 -16 1703 -16 1703 4 1673 c 0,17,18
 19 1651 19 1651 27.5 1623 c 128,-1,19
 36 1595 36 1595 42 1564 c 128,-1,20
 48 1533 48 1533 50 1500 c 128,-1,21
 52 1467 52 1467 52 1436 c 1,22,-1
 -99 1375 l 1,0,1
EndSplineSet
EndChar

StartChar: uniE04B
Encoding: 81 57419 77
Width: 0
Flags: W
AnchorPoint: "mkmk_down" -500 -500 basemark 0
AnchorPoint: "mkmk_down" -400 -200 mark 0
AnchorPoint: "TehtaBelow" -400 -200 mark 0
LayerCount: 2
Fore
SplineSet
-756 -582 m 1,0,1
 -805 -553 -805 -553 -846 -515 c 128,-1,2
 -887 -477 -887 -477 -902 -433 c 0,3,4
 -914 -398 -914 -398 -913.5 -361.5 c 128,-1,5
 -913 -325 -913 -325 -900.5 -289 c 128,-1,6
 -888 -253 -888 -253 -861.5 -218.5 c 128,-1,7
 -835 -184 -835 -184 -794 -155 c 1,8,-1
 -356 98 l 1,9,-1
 -306 -56 l 1,10,-1
 -656 -257 l 2,11,12
 -711 -289 -711 -289 -729.5 -312.5 c 128,-1,13
 -748 -336 -748 -336 -739 -365 c 0,14,15
 -727 -401 -727 -401 -636 -437 c 1,16,-1
 -756 -582 l 1,0,1
EndSplineSet
EndChar

StartChar: uniE04C
Encoding: 82 57420 78
Width: 0
Flags: W
AnchorPoint: "mkmk_up" -200 1500 mark 0
AnchorPoint: "mkmk_up" -100 1800 basemark 0
AnchorPoint: "TehtaAbove" -200 1500 mark 0
LayerCount: 2
Fore
SplineSet
-82 1906 m 1,0,1
 -34 1876 -34 1876 6.5 1837 c 128,-1,2
 47 1798 47 1798 61 1754 c 0,3,4
 71 1722 71 1722 72 1686 c 128,-1,5
 73 1650 73 1650 61.5 1614.5 c 128,-1,6
 50 1579 50 1579 24 1544.5 c 128,-1,7
 -2 1510 -2 1510 -45 1481 c 2,8,-1
 -484 1227 l 1,9,-1
 -534 1382 l 1,10,-1
 -183 1582 l 2,11,12
 -158 1596 -158 1596 -142 1608 c 128,-1,13
 -126 1620 -126 1620 -117 1630 c 128,-1,14
 -108 1640 -108 1640 -104 1650 c 128,-1,15
 -100 1660 -100 1660 -99 1671 c 0,16,17
 -100 1676 -100 1676 -100.5 1681 c 128,-1,18
 -101 1686 -101 1686 -102 1689 c 0,19,20
 -106 1700 -106 1700 -114 1711 c 1,21,-1
 -113 1710 l 1,22,23
 -125 1721 -125 1721 -147 1734.5 c 128,-1,24
 -169 1748 -169 1748 -205 1762 c 1,25,-1
 -82 1906 l 1,0,1
EndSplineSet
EndChar

StartChar: uniE04D
Encoding: 83 57421 79
Width: 0
Flags: W
AnchorPoint: "mkmk_down" -500 -500 basemark 0
AnchorPoint: "mkmk_down" -400 -200 mark 0
AnchorPoint: "TehtaBelow" -400 -200 mark 0
LayerCount: 2
Fore
SplineSet
-711 -147 m 1,0,1
 -731 -196 -731 -196 -741 -235.5 c 128,-1,2
 -751 -275 -751 -275 -745 -295 c 0,3,4
 -736 -323 -736 -323 -710.5 -323.5 c 128,-1,5
 -685 -324 -685 -324 -639 -296 c 2,6,-1
 -282 -88 l 1,7,-1
 -232 -242 l 1,8,-1
 -668 -496 l 1,9,10
 -713 -518 -713 -518 -750 -519 c 128,-1,11
 -787 -520 -787 -520 -815 -507.5 c 128,-1,12
 -843 -495 -843 -495 -862.5 -469.5 c 128,-1,13
 -882 -444 -882 -444 -893 -411 c 0,14,15
 -900 -389 -900 -389 -901.5 -359 c 128,-1,16
 -903 -329 -903 -329 -900 -296.5 c 128,-1,17
 -897 -264 -897 -264 -890.5 -231 c 128,-1,18
 -884 -198 -884 -198 -876 -168 c 1,19,-1
 -711 -147 l 1,0,1
EndSplineSet
EndChar

StartChar: bar_above
Encoding: 86 57424 80
Width: 0
Flags: W
AnchorPoint: "mkmk_up" -200 1500 mark 0
AnchorPoint: "mkmk_up" -150 1700 basemark 0
AnchorPoint: "TehtaAbove" -200 1500 mark 0
LayerCount: 2
Fore
SplineSet
65 1223 m 1,0,-1
 -604 1223 l 1,1,-1
 -559 1410 l 1,2,-1
 110 1410 l 1,3,-1
 65 1223 l 1,0,-1
EndSplineSet
Substitution2: "Single Substitution lookup 8 subtable" bar_above_narrow
Substitution2: "Single Substitution lookup 7 subtable" bar_above_narrow
Substitution2: "Single Substitution lookup 6 subtable" bar_above_narrow
Substitution2: "Single Substitution lookup 5 subtable" bar_above_narrow
Substitution2: "Single Substitution lookup 4 subtable" bar_above_wide
Substitution2: "Single Substitution lookup 3 subtable" bar_above_wide
Substitution2: "Single Substitution lookup 2 subtable" bar_above_wide
Substitution2: "Single Substitution lookup 1 subtable" bar_above_wide
EndChar

StartChar: bar_below
Encoding: 87 57425 81
Width: 0
Flags: W
AnchorPoint: "mkmk_down" -500 -500 basemark 0
AnchorPoint: "mkmk_down" -400 -200 mark 0
AnchorPoint: "TehtaBelow" -400 -200 mark 0
LayerCount: 2
Fore
SplineSet
-310 -346 m 1,0,-1
 -980 -346 l 1,1,-1
 -935 -159 l 1,2,-1
 -265 -159 l 1,3,-1
 -310 -346 l 1,0,-1
EndSplineSet
Substitution2: "Single Substitution lookup 13 subtable" lambe_bar_below
Substitution2: "Single Substitution lookup 12 subtable" lambe_bar_below
Substitution2: "Single Substitution lookup 11 subtable" lambe_bar_below
Substitution2: "Single Substitution lookup 10 subtable" lambe_bar_below
Substitution2: "Single Substitution lookup 8 subtable" bar_below_narrow
Substitution2: "Single Substitution lookup 7 subtable" bar_below_narrow
Substitution2: "Single Substitution lookup 6 subtable" bar_below_narrow
Substitution2: "Single Substitution lookup 5 subtable" bar_below_narrow
Substitution2: "Single Substitution lookup 4 subtable" bar_below_wide
Substitution2: "Single Substitution lookup 3 subtable" bar_below_wide
Substitution2: "Single Substitution lookup 2 subtable" bar_below_wide
Substitution2: "Single Substitution lookup 1 subtable" bar_below_wide
EndChar

StartChar: uniE052
Encoding: 88 57426 82
Width: 0
Flags: W
AnchorPoint: "mkmk_up" -200 1500 mark 0
AnchorPoint: "mkmk_up" -100 1800 basemark 0
AnchorPoint: "TehtaAbove" -200 1500 mark 0
LayerCount: 2
Fore
SplineSet
-398 1564 m 1,0,1
 -409 1471 -409 1471 -361 1471 c 0,2,3
 -320 1471 -320 1471 -243 1514 c 0,4,5
 -195 1540 -195 1540 -154 1552 c 128,-1,6
 -113 1564 -113 1564 -79 1564 c 0,7,8
 -36 1564 -36 1564 1 1547.5 c 128,-1,9
 38 1531 38 1531 62 1497.5 c 128,-1,10
 86 1464 86 1464 94 1412.5 c 128,-1,11
 102 1361 102 1361 87 1291 c 1,12,-1
 -81 1291 l 1,13,14
 -66 1384 -66 1384 -123 1384 c 0,15,16
 -160 1384 -160 1384 -231 1344 c 0,17,18
 -260 1328 -260 1328 -280 1318 c 128,-1,19
 -300 1308 -300 1308 -318 1302 c 128,-1,20
 -336 1296 -336 1296 -356 1293.5 c 128,-1,21
 -376 1291 -376 1291 -405 1291 c 0,22,23
 -450 1291 -450 1291 -486.5 1307.5 c 128,-1,24
 -523 1324 -523 1324 -545.5 1358 c 128,-1,25
 -568 1392 -568 1392 -574.5 1443.5 c 128,-1,26
 -581 1495 -581 1495 -566 1564 c 1,27,-1
 -398 1564 l 1,0,1
EndSplineSet
EndChar

StartChar: uniE053
Encoding: 89 57427 83
Width: 0
Flags: W
AnchorPoint: "mkmk_up" -200 1500 mark 0
AnchorPoint: "mkmk_up" -100 1800 basemark 0
AnchorPoint: "TehtaAbove" -200 1500 mark 0
LayerCount: 2
Fore
SplineSet
155 1590 m 1,0,-1
 -167 1264 l 1,1,-1
 -378 1264 l 1,2,-1
 -573 1590 l 1,3,-1
 -305 1590 l 1,4,-1
 -241 1439 l 1,5,6
 -227 1454 -227 1454 -215.5 1468 c 128,-1,7
 -204 1482 -204 1482 -190 1497 c 0,8,9
 -172 1518 -172 1518 -149.5 1543.5 c 128,-1,10
 -127 1569 -127 1569 -108 1590 c 1,11,-1
 155 1590 l 1,0,-1
EndSplineSet
EndChar

StartChar: uniE054
Encoding: 90 57428 84
Width: 0
Flags: W
AnchorPoint: "mkmk_up" -200 1500 mark 0
AnchorPoint: "mkmk_up" -100 1800 basemark 0
AnchorPoint: "TehtaAbove" -200 1500 mark 0
LayerCount: 2
Fore
SplineSet
-116 1263 m 1,0,-1
 -313 1263 l 1,1,-1
 -501 1590 l 1,2,-1
 -202 1590 l 1,3,-1
 -116 1263 l 1,0,-1
EndSplineSet
EndChar

StartChar: uniE055
Encoding: 91 57429 85
Width: 0
Flags: W
AnchorPoint: "mkmk_up" -200 1500 mark 0
AnchorPoint: "mkmk_up" -100 1800 basemark 0
AnchorPoint: "TehtaAbove" -200 1500 mark 0
LayerCount: 2
Fore
SplineSet
92 1262 m 1,0,-1
 -176 1262 l 1,1,-1
 -239 1413 l 1,2,3
 -253 1398 -253 1398 -265 1383.5 c 128,-1,4
 -277 1369 -277 1369 -291 1354 c 0,5,6
 -310 1333 -310 1333 -331.5 1308 c 128,-1,7
 -353 1283 -353 1283 -372 1262 c 1,8,-1
 -637 1262 l 1,9,-1
 -314 1589 l 1,10,-1
 -102 1589 l 1,11,-1
 92 1262 l 1,0,-1
EndSplineSet
EndChar

StartChar: uniE056
Encoding: 92 57430 86
Width: 0
Flags: W
AnchorPoint: "mkmk_up" -200 1500 mark 0
AnchorPoint: "mkmk_up" -100 1800 basemark 0
AnchorPoint: "TehtaAbove" -200 1500 mark 0
LayerCount: 2
Fore
SplineSet
-135 1432 m 1,0,-1
 -179 1227 l 1,1,-1
 -385 1227 l 1,2,-1
 -341 1432 l 1,3,-1
 -135 1432 l 1,0,-1
-306 1624 m 1,4,-1
 -350 1418 l 1,5,-1
 -556 1418 l 1,6,-1
 -512 1624 l 1,7,-1
 -306 1624 l 1,4,-1
117 1624 m 1,8,-1
 73 1418 l 1,9,-1
 -132 1418 l 1,10,-1
 -88 1624 l 1,11,-1
 117 1624 l 1,8,-1
EndSplineSet
EndChar

StartChar: uniE057
Encoding: 93 57431 87
Width: 0
Flags: W
AnchorPoint: "TehtaBelow" -400 -200 mark 0
AnchorPoint: "mkmk_down" -500 -500 basemark 0
AnchorPoint: "mkmk_down" -400 -200 mark 0
LayerCount: 2
Fore
SplineSet
-555 -444 m 1,0,-1
 -724 -444 l 1,1,-1
 -649 -91 l 1,2,-1
 -480 -91 l 1,3,-1
 -555 -444 l 1,0,-1
EndSplineSet
Ligature2: "Ligatures subtable" zwj uniE02C
LCarets2: 1 0
EndChar

StartChar: uniE058
Encoding: 94 57432 88
Width: 378
GlyphClass: 1
Flags: W
LayerCount: 2
Fore
SplineSet
139 -352 m 0,0,1
 108 -375 108 -375 90 -423 c 1,2,-1
 -110 -448 l 1,3,4
 -72 -299 -72 -299 30 -214 c 0,5,6
 70 -181 70 -181 81 -134 c 0,7,8
 86 -112 86 -112 82 -91 c 0,9,10
 78 -70 78 -70 65 -54 c 0,11,12
 53 -38 53 -38 34 -30 c 0,13,14
 15 -20 15 -20 -9 -20 c 2,15,-1
 -135 -20 l 1,16,-1
 -93 175 l 1,17,-1
 32 175 l 2,18,19
 95 175 95 175 146 151 c 0,20,21
 197 127 197 127 231 85 c 0,22,23
 265 43 265 43 278 -13 c 0,24,25
 291 -69 291 -69 277 -133 c 0,26,27
 250 -261 250 -261 139 -352 c 0,0,1
EndSplineSet
EndChar

StartChar: uniE059
Encoding: 95 57433 89
Width: 0
Flags: W
AnchorPoint: "mkmk_down" -500 -500 basemark 0
AnchorPoint: "mkmk_down" -400 -200 mark 0
AnchorPoint: "TehtaBelow" -400 -200 mark 0
LayerCount: 2
Fore
SplineSet
-756 -582 m 1,0,1
 -805 -553 -805 -553 -846 -515 c 128,-1,2
 -887 -477 -887 -477 -902 -433 c 0,3,4
 -914 -398 -914 -398 -913.5 -361.5 c 128,-1,5
 -913 -325 -913 -325 -900.5 -289 c 128,-1,6
 -888 -253 -888 -253 -861.5 -218.5 c 128,-1,7
 -835 -184 -835 -184 -794 -155 c 1,8,-1
 -356 98 l 1,9,-1
 -306 -56 l 1,10,-1
 -656 -257 l 2,11,12
 -711 -289 -711 -289 -729.5 -312.5 c 128,-1,13
 -748 -336 -748 -336 -739 -365 c 0,14,15
 -727 -401 -727 -401 -636 -437 c 1,16,-1
 -756 -582 l 1,0,1
EndSplineSet
Substitution2: "Single Substitution lookup 18 subtable" lambe_xhook
Substitution2: "Single Substitution lookup 17 subtable" lambe_xhook
Substitution2: "Single Substitution lookup 16 subtable" lambe_xhook
Substitution2: "Single Substitution lookup 15 subtable" lambe_xhook
EndChar

StartChar: uniE05A
Encoding: 96 57434 90
Width: 0
GlyphClass: 1
Flags: W
LayerCount: 2
Fore
SplineSet
-402 691 m 0,0,1
 -387 691 -387 691 -379 683 c 128,-1,2
 -371 675 -371 675 -356 656 c 0,3,4
 -346 644 -346 644 -332 625.5 c 128,-1,5
 -318 607 -318 607 -294 581 c 0,6,7
 -285 570 -285 570 -280.5 556 c 128,-1,8
 -276 542 -276 542 -277 534 c 0,9,10
 -279 525 -279 525 -283 516.5 c 128,-1,11
 -287 508 -287 508 -295 499 c 128,-1,12
 -303 490 -303 490 -316.5 478.5 c 128,-1,13
 -330 467 -330 467 -350 452 c 1,14,-1
 -349 452 l 1,15,16
 -362 442 -362 442 -372 434 c 128,-1,17
 -382 426 -382 426 -393 418 c 0,18,19
 -416 399 -416 399 -433.5 386 c 128,-1,20
 -451 373 -451 373 -468 373 c 256,21,22
 -485 373 -485 373 -496 383.5 c 128,-1,23
 -507 394 -507 394 -527 419 c 0,24,25
 -544 441 -544 441 -578 483 c 1,26,-1
 -577 482 l 1,27,28
 -600 507 -600 507 -594 533 c 0,29,30
 -593 540 -593 540 -585 550 c 128,-1,31
 -577 560 -577 560 -565.5 571.5 c 128,-1,32
 -554 583 -554 583 -540.5 594.5 c 128,-1,33
 -527 606 -527 606 -515 616 c 2,34,-1
 -452 668 l 2,35,36
 -435 682 -435 682 -424 686.5 c 128,-1,37
 -413 691 -413 691 -402 691 c 0,0,1
EndSplineSet
EndChar

StartChar: uniE060
Encoding: 99 57440 91
Width: 361
GlyphClass: 1
Flags: W
LayerCount: 2
Fore
SplineSet
439 656 m 1,0,-1
 386 405 l 1,1,-1
 134 405 l 1,2,-1
 187 656 l 1,3,-1
 439 656 l 1,0,-1
EndSplineSet
EndChar

StartChar: uniE061
Encoding: 100 57441 92
Width: 361
GlyphClass: 1
Flags: W
LayerCount: 2
Fore
SplineSet
394 444 m 1,0,-1
 340 192 l 1,1,-1
 88 192 l 1,2,-1
 142 444 l 1,3,-1
 394 444 l 1,0,-1
484 869 m 1,4,-1
 431 617 l 1,5,-1
 179 617 l 1,6,-1
 232 869 l 1,7,-1
 484 869 l 1,4,-1
EndSplineSet
EndChar

StartChar: uniE062
Encoding: 101 57442 93
Width: 361
GlyphClass: 1
Flags: W
LayerCount: 2
Fore
SplineSet
529 1081 m 1,0,-1
 476 830 l 1,1,-1
 224 830 l 1,2,-1
 277 1081 l 1,3,-1
 529 1081 l 1,0,-1
349 231 m 1,4,-1
 295 -20 l 1,5,-1
 43 -20 l 1,6,-1
 97 231 l 1,7,-1
 349 231 l 1,4,-1
439 656 m 1,8,-1
 386 405 l 1,9,-1
 134 405 l 1,10,-1
 187 656 l 1,11,-1
 439 656 l 1,8,-1
EndSplineSet
EndChar

StartChar: uniE063
Encoding: 102 57443 94
Width: 945
GlyphClass: 1
Flags: W
LayerCount: 2
Fore
SplineSet
188 656 m 1,0,-1
 440 656 l 1,1,-1
 387 405 l 1,2,-1
 135 405 l 1,3,-1
 188 656 l 1,0,-1
768 656 m 1,4,-1
 1019 656 l 1,5,-1
 966 405 l 1,6,-1
 715 405 l 1,7,-1
 768 656 l 1,4,-1
673 395 m 1,8,-1
 620 144 l 1,9,-1
 369 144 l 1,10,-1
 422 395 l 1,11,-1
 673 395 l 1,8,-1
784 917 m 1,12,-1
 731 666 l 1,13,-1
 480 666 l 1,14,-1
 533 917 l 1,15,-1
 784 917 l 1,12,-1
EndSplineSet
EndChar

StartChar: uniE064
Encoding: 103 57444 95
Width: 1217
GlyphClass: 1
Flags: W
LayerCount: 2
Fore
SplineSet
955 1081 m 1,0,-1
 902 830 l 1,1,-1
 652 830 l 1,2,-1
 705 1081 l 1,3,-1
 955 1081 l 1,0,-1
775 231 m 1,4,-1
 721 -20 l 1,5,-1
 471 -20 l 1,6,-1
 525 231 l 1,7,-1
 775 231 l 1,4,-1
865 656 m 1,8,-1
 812 405 l 1,9,-1
 562 405 l 1,10,-1
 615 656 l 1,11,-1
 865 656 l 1,8,-1
1039 656 m 1,12,-1
 1290 656 l 1,13,-1
 1237 405 l 1,14,-1
 986 405 l 1,15,-1
 1039 656 l 1,12,-1
189 656 m 1,16,-1
 440 656 l 1,17,-1
 387 405 l 1,18,-1
 136 405 l 1,19,-1
 189 656 l 1,16,-1
EndSplineSet
EndChar

StartChar: uniE065
Encoding: 104 57445 96
Width: 498
GlyphClass: 1
Flags: W
LayerCount: 2
Fore
SplineSet
99 421 m 1,0,1
 161 469 161 469 204 508 c 0,2,3
 246 547 246 547 274 580 c 0,4,5
 302 613 302 613 317 643 c 0,6,7
 332 673 332 673 338 704 c 0,8,9
 354 777 354 777 326 890 c 0,10,11
 312 942 312 942 304 980 c 0,12,13
 296 1018 296 1018 293 1052 c 0,14,15
 290 1084 290 1084 292 1116 c 0,16,17
 294 1148 294 1148 302 1185 c 0,18,19
 312 1230 312 1230 326 1268 c 0,20,21
 340 1306 340 1306 364 1342 c 0,22,23
 387 1378 387 1378 419 1412 c 0,24,25
 451 1447 451 1447 496 1485 c 1,26,-1
 790 1485 l 1,27,28
 684 1404 684 1404 623 1334 c 0,29,30
 562 1264 562 1264 549 1204 c 0,31,32
 544 1185 544 1185 544 1168 c 0,33,34
 544 1151 544 1151 546 1133 c 0,35,36
 548 1115 548 1115 551 1093 c 0,37,38
 555 1071 555 1071 561 1042 c 0,39,40
 573 988 573 988 581 944 c 0,41,42
 588 900 588 900 592 861 c 0,43,44
 596 823 596 823 594 789 c 0,45,46
 592 755 592 755 586 721 c 0,47,48
 547 539 547 539 383 421 c 1,49,-1
 99 421 l 1,0,1
EndSplineSet
EndChar

StartChar: uniE066
Encoding: 105 57446 97
Width: 913
GlyphClass: 1
Flags: W
LayerCount: 2
Fore
SplineSet
465 615 m 1,0,1
 556 628 556 628 622 641 c 0,2,3
 688 654 688 654 720 677 c 0,4,5
 767 709 767 709 780 774 c 2,6,-1
 781 779 l 2,7,8
 788 823 788 823 762 852 c 0,9,10
 736 881 736 881 686 881 c 0,11,12
 640 881 640 881 550 869 c 2,13,-1
 518 864 l 1,14,-1
 465 615 l 1,0,1
607 1283 m 2,15,16
 604 1282 604 1282 601 1282 c 0,17,18
 598 1282 598 1282 596 1282 c 2,19,-1
 587 1282 l 1,20,-1
 611 1302 l 1,21,-1
 607 1283 l 2,15,16
541 1050 m 0,22,23
 544 1050 544 1050 546 1050 c 0,24,25
 548 1050 548 1050 551 1051 c 0,26,27
 555 1051 555 1051 558 1052 c 1,28,-1
 553 1029 l 1,29,-1
 537 1049 l 1,30,-1
 538 1049 l 2,31,32
 539 1049 539 1049 541 1050 c 0,22,23
696 1290 m 0,33,34
 678 1290 678 1290 656 1288 c 0,35,36
 634 1286 634 1286 607 1283 c 1,37,-1
 558 1052 l 1,38,39
 603 1058 603 1058 635 1065 c 0,40,41
 666 1072 666 1072 690 1081 c 0,42,43
 714 1090 714 1090 732 1102 c 0,44,45
 750 1114 750 1114 765 1128 c 0,46,47
 778 1142 778 1142 787 1159 c 0,48,49
 796 1176 796 1176 800 1194 c 2,50,-1
 801 1199 l 2,51,52
 809 1246 809 1246 785 1268 c 0,53,54
 761 1290 761 1290 696 1290 c 0,33,34
420 404 m 1,55,-1
 330 -20 l 1,56,-1
 102 -20 l 1,57,-1
 422 1485 l 1,58,-1
 650 1485 l 1,59,-1
 647 1470 l 1,60,61
 658 1471 658 1471 669 1472 c 0,62,63
 680 1473 680 1473 691 1475 c 0,64,65
 724 1480 724 1480 752 1482 c 0,66,67
 780 1484 780 1484 805 1484 c 0,68,69
 860 1484 860 1484 908 1468 c 0,70,71
 956 1452 956 1452 988 1419 c 0,72,73
 1020 1386 1020 1386 1034 1335 c 0,74,75
 1048 1284 1048 1284 1033 1215 c 0,76,77
 1020 1154 1020 1154 990 1104 c 0,78,79
 960 1054 960 1054 909 1012 c 1,80,81
 970 986 970 986 998 930 c 0,82,83
 1026 874 1026 874 1015 783 c 1,84,85
 998 706 998 706 960 646 c 0,86,87
 922 586 922 586 864 540 c 0,88,89
 806 495 806 495 731 466 c 0,90,91
 656 437 656 437 566 424 c 2,92,-1
 420 404 l 1,55,-1
EndSplineSet
EndChar

StartChar: uniE067
Encoding: 106 57447 98
Width: 788
GlyphClass: 1
Flags: W
LayerCount: 2
Fore
SplineSet
716 1267 m 1,0,-1
 645 1267 l 1,1,-1
 371 -22 l 1,2,-1
 154 -22 l 1,3,-1
 474 1485 l 1,4,-1
 980 1485 l 1,5,-1
 641 -111 l 2,6,7
 634 -140 634 -140 626 -170 c 0,8,9
 618 -200 618 -200 606 -232 c 0,10,11
 594 -262 594 -262 577 -290 c 0,12,13
 560 -318 560 -318 536 -343 c 0,14,15
 474 -400 474 -400 400 -424 c 0,16,17
 326 -448 326 -448 254 -448 c 0,18,19
 184 -448 184 -448 128 -437 c 0,20,21
 72 -426 72 -426 10 -406 c 1,22,-1
 113 -262 l 1,23,24
 182 -288 182 -288 262 -288 c 0,25,26
 286 -288 286 -288 310 -283 c 0,27,28
 334 -278 334 -278 354 -264 c 0,29,30
 374 -250 374 -250 390 -226 c 0,31,32
 405 -202 405 -202 413 -165 c 2,33,-1
 419 -137 l 2,34,35
 424 -115 424 -115 428 -91 c 0,36,37
 432 -67 432 -67 436 -49 c 2,38,-1
 716 1267 l 1,0,-1
EndSplineSet
EndChar

StartChar: uniE068
Encoding: 107 57448 99
Width: 1179
GlyphClass: 1
Flags: W
LayerCount: 2
Fore
SplineSet
173 580 m 1,0,1
 318 715 318 715 501 715 c 0,2,3
 536 716 536 716 564 712 c 0,4,5
 592 708 592 708 625 698 c 0,6,7
 658 688 658 688 700 671 c 0,8,9
 742 654 742 654 804 626 c 0,10,11
 837 610 837 610 859 601 c 0,12,13
 881 592 881 592 897 588 c 0,14,15
 912 584 912 584 926 582 c 0,16,17
 940 581 940 581 956 581 c 0,18,19
 1013 580 1013 580 1096 626 c 0,20,21
 1179 672 1179 672 1273 757 c 1,22,-1
 1213 472 l 1,23,24
 1170 440 1170 440 1132 416 c 0,25,26
 1094 392 1094 392 1055 377 c 0,27,28
 1016 362 1016 362 975 354 c 0,29,30
 934 346 934 346 887 346 c 0,31,32
 852 346 852 346 822 350 c 0,33,34
 792 354 792 354 759 364 c 0,35,36
 728 374 728 374 692 390 c 0,37,38
 656 406 656 406 610 429 c 0,39,40
 560 452 560 452 516 465 c 0,41,42
 472 478 472 478 435 478 c 0,43,44
 404 478 404 478 376 472 c 0,45,46
 348 466 348 466 312 448 c 0,47,48
 276 430 276 430 229 398 c 0,49,50
 182 366 182 366 116 311 c 1,51,-1
 173 580 l 1,0,1
EndSplineSet
EndChar

StartChar: uniE069
Encoding: 108 57449 100
Width: 1179
GlyphClass: 1
Flags: W
LayerCount: 2
Fore
SplineSet
127 364 m 1,0,1
 272 499 272 499 456 499 c 0,2,3
 492 499 492 499 525 494 c 0,4,5
 558 489 558 489 593 478 c 0,6,7
 628 467 628 467 668 450 c 0,8,9
 708 433 708 433 758 410 c 0,10,11
 792 393 792 393 813 384 c 0,12,13
 834 375 834 375 850 371 c 0,14,15
 866 367 866 367 878 366 c 0,16,17
 892 365 892 365 910 365 c 0,18,19
 966 365 966 365 1041 401 c 1,20,-1
 1040 400 l 1,21,22
 1076 420 1076 420 1123 455 c 0,23,24
 1170 490 1170 490 1227 539 c 1,25,-1
 1167 257 l 1,26,27
 1124 226 1124 226 1086 202 c 0,28,29
 1048 178 1048 178 1009 162 c 0,30,31
 970 146 970 146 929 138 c 0,32,33
 888 130 888 130 841 131 c 0,34,35
 802 130 802 130 774 134 c 0,36,37
 746 138 746 138 716 147 c 0,38,39
 686 156 686 156 651 172 c 0,40,41
 615 188 615 188 564 212 c 0,42,43
 459 263 459 263 389 263 c 0,44,45
 360 264 360 264 332 258 c 0,46,47
 304 252 304 252 268 234 c 0,48,49
 232 216 232 216 186 184 c 0,50,51
 138 151 138 151 70 96 c 1,52,-1
 127 364 l 1,0,1
218 795 m 1,53,54
 365 930 365 930 547 930 c 0,55,56
 582 930 582 930 610 927 c 0,57,58
 638 924 638 924 671 914 c 0,59,60
 704 904 704 904 746 888 c 0,61,62
 788 870 788 870 849 842 c 0,63,64
 876 828 876 828 896 820 c 0,65,66
 916 812 916 812 934 806 c 0,67,68
 952 801 952 801 968 799 c 0,69,70
 984 797 984 797 1002 797 c 0,71,72
 1032 798 1032 798 1069 810 c 0,73,74
 1106 822 1106 822 1147 845 c 0,75,76
 1188 868 1188 868 1232 900 c 0,77,78
 1276 932 1276 932 1320 974 c 1,79,-1
 1259 689 l 1,80,81
 1216 655 1216 655 1176 631 c 0,82,83
 1136 608 1136 608 1096 592 c 0,84,85
 1056 576 1056 576 1017 569 c 0,86,87
 977 562 977 562 933 562 c 0,88,89
 898 562 898 562 868 566 c 0,90,91
 838 570 838 570 806 578 c 0,92,93
 774 588 774 588 738 604 c 0,94,95
 702 620 702 620 655 644 c 0,96,97
 604 670 604 670 560 682 c 0,98,99
 516 694 516 694 481 694 c 0,100,101
 452 694 452 694 422 687 c 0,102,103
 392 680 392 680 356 662 c 0,104,105
 320 644 320 644 273 610 c 0,106,107
 226 578 226 578 162 527 c 1,108,-1
 218 795 l 1,53,54
EndSplineSet
EndChar

StartChar: uniE06A
Encoding: 109 57450 101
Width: 617
GlyphClass: 1
Flags: W
LayerCount: 2
Fore
SplineSet
869 1485 m 1,0,-1
 772 1028 l 2,1,2
 758 964 758 964 736 904 c 0,3,4
 714 844 714 844 672 796 c 0,5,6
 630 748 630 748 562 720 c 0,7,8
 494 692 494 692 386 692 c 0,9,10
 344 692 344 692 296 698 c 0,11,12
 248 704 248 704 195 714 c 1,13,-1
 253 854 l 1,14,15
 296 846 296 846 328 842 c 0,16,17
 360 838 360 838 383 839 c 0,18,19
 439 839 439 839 481 863 c 0,20,21
 516 882 516 882 535 978 c 2,22,-1
 602 1290 l 1,23,-1
 517 1290 l 1,24,-1
 439 924 l 1,25,-1
 245 924 l 1,26,-1
 364 1485 l 1,27,-1
 869 1485 l 1,0,-1
EndSplineSet
EndChar

StartChar: uniE06B
Encoding: 110 57451 102
Width: 617
GlyphClass: 1
Flags: W
LayerCount: 2
Fore
SplineSet
44 -20 m 1,0,-1
 141 437 l 2,1,2
 149 475 149 475 161 515 c 0,3,4
 173 555 173 555 192 592 c 0,5,6
 211 629 211 629 239 662 c 0,7,8
 267 696 267 696 307 720 c 0,9,10
 347 744 347 744 401 758 c 0,11,12
 455 772 455 772 527 773 c 0,13,14
 568 774 568 774 616 768 c 0,15,16
 664 762 664 762 718 750 c 1,17,-1
 660 611 l 1,18,19
 618 618 618 618 586 622 c 0,20,21
 554 626 554 626 532 626 c 0,22,23
 476 626 476 626 433 602 c 0,24,25
 397 581 397 581 378 486 c 2,26,-1
 312 175 l 1,27,-1
 396 175 l 1,28,-1
 473 541 l 1,29,-1
 668 541 l 1,30,-1
 549 -20 l 1,31,-1
 44 -20 l 1,0,-1
EndSplineSet
EndChar

StartChar: uniE06C
Encoding: 111 57452 103
Width: 855
GlyphClass: 1
Flags: W
LayerCount: 2
Fore
SplineSet
761 886 m 1,0,-1
 237 886 l 1,1,-1
 278 1081 l 1,2,-1
 1020 1081 l 1,3,-1
 868 365 l 2,4,5
 845 256 845 256 802 178.5 c 128,-1,6
 759 101 759 101 701.5 51.5 c 128,-1,7
 644 2 644 2 574.5 -21.5 c 128,-1,8
 505 -45 505 -45 427 -45 c 0,9,10
 332 -45 332 -45 247 -3 c 1,11,-1
 365 176 l 1,12,13
 414 150 414 150 463 150 c 0,14,15
 493 150 493 150 521 159 c 128,-1,16
 549 168 549 168 573 191.5 c 128,-1,17
 597 215 597 215 616 255 c 128,-1,18
 635 295 635 295 649 358 c 2,19,-1
 761 886 l 1,0,-1
EndSplineSet
EndChar

StartChar: uniE070
Encoding: 112 57456 104
Width: 1153
GlyphClass: 1
Flags: W
AnchorPoint: "TehtaBelow" 753 -200 basechar 0
AnchorPoint: "TehtaAbove" 953 1500 basechar 0
LayerCount: 2
Fore
SplineSet
162 530 m 2,0,1
 192 669 192 669 253 776 c 128,-1,2
 314 883 314 883 398.5 956 c 128,-1,3
 483 1029 483 1029 586 1067 c 128,-1,4
 689 1105 689 1105 803 1105 c 0,5,6
 915 1105 915 1105 1002 1068 c 128,-1,7
 1089 1031 1089 1031 1143 958 c 128,-1,8
 1197 885 1197 885 1213 778 c 128,-1,9
 1229 671 1229 671 1199 530 c 0,10,11
 1169 390 1169 390 1108 282.5 c 128,-1,12
 1047 175 1047 175 963 102.5 c 128,-1,13
 879 30 879 30 776 -7.5 c 128,-1,14
 673 -45 673 -45 559 -45 c 0,15,16
 354 -45 354 -45 222 94 c 1,17,-1
 398 264 l 1,18,19
 474 150 474 150 600 150 c 0,20,21
 661 150 661 150 719 173 c 128,-1,22
 777 196 777 196 826.5 243 c 128,-1,23
 876 290 876 290 914 361.5 c 128,-1,24
 952 433 952 433 973 530 c 0,25,26
 994 626 994 626 986.5 697.5 c 128,-1,27
 979 769 979 769 950 816 c 128,-1,28
 921 863 921 863 872.5 886.5 c 128,-1,29
 824 910 824 910 762 910 c 0,30,31
 709 910 709 910 658 893 c 128,-1,32
 607 876 607 876 561.5 841.5 c 128,-1,33
 516 807 516 807 478.5 753.5 c 128,-1,34
 441 700 441 700 416 627 c 1,35,-1
 637 627 l 1,36,-1
 596 433 l 1,37,-1
 142 433 l 1,38,-1
 162 530 l 2,0,1
EndSplineSet
EndChar

StartChar: uniE071
Encoding: 113 57457 105
Width: 1332
GlyphClass: 1
Flags: W
AnchorPoint: "TehtaAbove" 932 1500 basechar 0
AnchorPoint: "TehtaBelow" 932 -200 basechar 0
LayerCount: 2
Fore
SplineSet
737 886 m 1,0,1
 724 826 724 826 711.5 769 c 128,-1,2
 699 712 699 712 687 654 c 2,3,-1
 633 402 l 2,4,5
 607 279 607 279 636.5 214 c 128,-1,6
 666 149 666 149 756 149 c 0,7,8
 843 149 843 149 903.5 217 c 128,-1,9
 964 285 964 285 995 432 c 1,10,-1
 1209 428 l 1,11,12
 1188 330 1188 330 1144.5 244 c 128,-1,13
 1101 158 1101 158 1037.5 94 c 128,-1,14
 974 30 974 30 893 -7.5 c 128,-1,15
 812 -45 812 -45 717 -45 c 0,16,17
 624 -45 624 -45 557 -12 c 128,-1,18
 490 21 490 21 452 80 c 128,-1,19
 414 139 414 139 404 220 c 128,-1,20
 394 301 394 301 415 397 c 2,21,-1
 519 886 l 1,22,-1
 238 886 l 1,23,-1
 279 1081 l 1,24,-1
 1494 1081 l 1,25,-1
 1453 886 l 1,26,-1
 737 886 l 1,0,1
EndSplineSet
EndChar

StartChar: uniE072
Encoding: 114 57458 106
Width: 1491
GlyphClass: 1
Flags: W
AnchorPoint: "TehtaAbove" 991 1500 basechar 0
AnchorPoint: "TehtaBelow" 891 -200 basechar 0
LayerCount: 2
Fore
SplineSet
1154 886 m 1,0,-1
 1042 358 l 2,1,2
 1028 296 1028 296 1030 255.5 c 128,-1,3
 1032 215 1032 215 1045.5 191.5 c 128,-1,4
 1059 168 1059 168 1083 159 c 128,-1,5
 1107 150 1107 150 1137 150 c 0,6,7
 1205 150 1205 150 1261 187 c 1,8,-1
 1402 83 l 1,9,10
 1270 -45 1270 -45 1091 -45 c 0,11,12
 1013 -45 1013 -45 953.5 -22.5 c 128,-1,13
 894 0 894 0 858 49.5 c 128,-1,14
 822 99 822 99 812.5 177 c 128,-1,15
 803 255 803 255 826 365 c 2,16,-1
 937 886 l 1,17,-1
 551 886 l 1,18,-1
 439 358 l 2,19,20
 425 294 425 294 427 253.5 c 128,-1,21
 429 213 429 213 443 190 c 128,-1,22
 457 167 457 167 481 158.5 c 128,-1,23
 505 150 505 150 535 150 c 0,24,25
 602 150 602 150 658 187 c 1,26,-1
 799 83 l 1,27,28
 671 -45 671 -45 489 -45 c 0,29,30
 411 -45 411 -45 351 -22 c 128,-1,31
 291 1 291 1 255 50.5 c 128,-1,32
 219 100 219 100 209.5 178 c 128,-1,33
 200 256 200 256 223 365 c 2,34,-1
 334 886 l 1,35,-1
 238 886 l 1,36,-1
 279 1081 l 1,37,-1
 1652 1081 l 1,38,-1
 1611 886 l 1,39,-1
 1154 886 l 1,0,-1
EndSplineSet
EndChar

StartChar: uniE073
Encoding: 115 57459 107
Width: 1491
GlyphClass: 1
Flags: W
AnchorPoint: "TehtaBelow" 891 -200 basechar 0
AnchorPoint: "TehtaAbove" 991 1500 basechar 0
LayerCount: 2
Fore
SplineSet
440 150 m 0,0,1
 483 150 483 150 533 171 c 1,2,3
 522 252 522 252 546 365 c 2,4,-1
 657 886 l 1,5,-1
 456 886 l 1,6,-1
 344 358 l 2,7,8
 330 295 330 295 332 255 c 128,-1,9
 334 215 334 215 348 191.5 c 128,-1,10
 362 168 362 168 386 159 c 128,-1,11
 410 150 410 150 440 150 c 0,0,1
859 150 m 0,12,13
 902 150 902 150 952 171 c 1,14,15
 941 253 941 253 965 365 c 2,16,-1
 1076 886 l 1,17,-1
 875 886 l 1,18,-1
 763 358 l 2,19,20
 749 295 749 295 751 254.5 c 128,-1,21
 753 214 753 214 767 190.5 c 128,-1,22
 781 167 781 167 805 158.5 c 128,-1,23
 829 150 829 150 859 150 c 0,12,13
279 1081 m 1,24,-1
 1652 1081 l 1,25,-1
 1611 886 l 1,26,-1
 1293 886 l 1,27,-1
 1181 358 l 2,28,29
 1167 296 1167 296 1169 255.5 c 128,-1,30
 1171 215 1171 215 1184.5 191.5 c 128,-1,31
 1198 168 1198 168 1222 159 c 128,-1,32
 1246 150 1246 150 1276 150 c 0,33,34
 1327 150 1327 150 1386 178 c 1,35,-1
 1430 -3 l 1,36,37
 1326 -45 1326 -45 1231 -45 c 0,38,39
 1152 -45 1152 -45 1093 -22 c 128,-1,40
 1034 1 1034 1 998 49 c 1,41,-1
 1011 -3 l 1,42,43
 907 -45 907 -45 813 -45 c 0,44,45
 735 -45 735 -45 676 -23 c 128,-1,46
 617 -1 617 -1 580 47 c 1,47,-1
 593 -3 l 1,48,49
 540 -23 540 -23 491 -34 c 128,-1,50
 442 -45 442 -45 394 -45 c 0,51,52
 314 -45 314 -45 254 -21 c 128,-1,53
 194 3 194 3 158 53 c 128,-1,54
 122 103 122 103 113 180.5 c 128,-1,55
 104 258 104 258 127 365 c 2,56,-1
 279 1081 l 1,24,-1
EndSplineSet
EndChar

StartChar: uniE074
Encoding: 116 57460 108
Width: 1354
GlyphClass: 1
Flags: W
AnchorPoint: "TehtaAbove" 1054 1800 basechar 0
AnchorPoint: "TehtaBelow" 854 -500 basechar 0
LayerCount: 2
Fore
SplineSet
834 1290 m 1,0,-1
 571 55 l 2,1,2
 559 -4 559 -4 554 -45.5 c 128,-1,3
 549 -87 549 -87 552.5 -115.5 c 128,-1,4
 556 -144 556 -144 568 -162.5 c 128,-1,5
 580 -181 580 -181 600 -196 c 0,6,7
 620 -212 620 -212 645 -219 c 128,-1,8
 670 -226 670 -226 705 -226 c 0,9,10
 747 -226 747 -226 785 -211 c 128,-1,11
 823 -196 823 -196 853 -173 c 1,12,13
 876 -150 876 -150 900.5 -102.5 c 128,-1,14
 925 -55 925 -55 949 18 c 1,15,-1
 1138 -106 l 1,16,17
 1063 -285 1063 -285 943.5 -365.5 c 128,-1,18
 824 -446 824 -446 658 -446 c 0,19,20
 518 -446 518 -446 429 -388.5 c 128,-1,21
 340 -331 340 -331 317 -226 c 0,22,23
 306 -172 306 -172 310 -100 c 128,-1,24
 314 -28 314 -28 334 66 c 2,25,-1
 594 1290 l 1,26,-1
 324 1290 l 1,27,-1
 365 1485 l 1,28,-1
 1602 1485 l 1,29,-1
 1561 1290 l 1,30,-1
 834 1290 l 1,0,-1
EndSplineSet
EndChar

StartChar: uniE075
Encoding: 117 57461 109
Width: 1400
GlyphClass: 1
Flags: W
AnchorPoint: "TehtaBelow" 900 -500 basechar 0
AnchorPoint: "TehtaAbove" 1100 1500 basechar 0
LayerCount: 2
Fore
SplineSet
703 886 m 1,0,-1
 479 886 l 1,1,-1
 302 55 l 2,2,3
 290 -2 290 -2 284.5 -43 c 128,-1,4
 279 -84 279 -84 282 -113 c 128,-1,5
 285 -142 285 -142 296.5 -161.5 c 128,-1,6
 308 -181 308 -181 330 -196 c 0,7,8
 350 -212 350 -212 375.5 -219 c 128,-1,9
 401 -226 401 -226 436 -226 c 0,10,11
 474 -226 474 -226 508.5 -214.5 c 128,-1,12
 543 -203 543 -203 573.5 -175.5 c 128,-1,13
 604 -148 604 -148 630.5 -100.5 c 128,-1,14
 657 -53 657 -53 681 19 c 1,15,-1
 869 -106 l 1,16,17
 800 -280 800 -280 678.5 -363 c 128,-1,18
 557 -446 557 -446 389 -446 c 0,19,20
 322 -446 322 -446 266 -429.5 c 128,-1,21
 210 -413 210 -413 166.5 -383.5 c 128,-1,22
 123 -354 123 -354 93 -313.5 c 128,-1,23
 63 -273 63 -273 48 -226 c 1,24,25
 38 -175 38 -175 42 -98.5 c 128,-1,26
 46 -22 46 -22 64 66 c 2,27,-1
 365 1485 l 1,28,-1
 606 1485 l 1,29,-1
 520 1081 l 1,30,-1
 1562 1081 l 1,31,-1
 1521 886 l 1,32,-1
 920 886 l 1,33,34
 912 847 912 847 904 813 c 128,-1,35
 896 779 896 779 888 741 c 2,36,-1
 853 576 l 2,37,38
 828 459 828 459 857 391.5 c 128,-1,39
 886 324 886 324 977 324 c 256,40,41
 1068 324 1068 324 1126 393 c 128,-1,42
 1184 462 1184 462 1216 607 c 1,43,-1
 1430 602 l 1,44,45
 1409 501 1409 501 1363.5 415 c 128,-1,46
 1318 329 1318 329 1254 265 c 128,-1,47
 1190 201 1190 201 1109.5 165 c 128,-1,48
 1029 129 1029 129 938 129 c 0,49,50
 843 129 843 129 776.5 162.5 c 128,-1,51
 710 196 710 196 672 255.5 c 128,-1,52
 634 315 634 315 625 395.5 c 128,-1,53
 616 476 616 476 636 571 c 2,54,-1
 703 886 l 1,0,-1
EndSplineSet
EndChar

StartChar: uniE076
Encoding: 118 57462 110
Width: 1491
GlyphClass: 1
Flags: W
AnchorPoint: "TehtaAbove" 1091 1500 basechar 0
AnchorPoint: "TehtaBelow" 991 -500 basechar 0
LayerCount: 2
Fore
SplineSet
1294 886 m 1,0,-1
 1219 532 l 2,1,2
 1205 468 1205 468 1207 427.5 c 128,-1,3
 1209 387 1209 387 1222.5 364 c 128,-1,4
 1236 341 1236 341 1260 332.5 c 128,-1,5
 1284 324 1284 324 1314 324 c 0,6,7
 1362 324 1362 324 1423 352 c 1,8,-1
 1467 171 l 1,9,10
 1363 129 1363 129 1268 129 c 0,11,12
 1190 129 1190 129 1130.5 152.5 c 128,-1,13
 1071 176 1071 176 1034.5 226 c 128,-1,14
 998 276 998 276 988.5 353.5 c 128,-1,15
 979 431 979 431 1002 540 c 2,16,-1
 1076 886 l 1,17,-1
 835 886 l 1,18,-1
 760 532 l 2,19,20
 747 472 747 472 748 432 c 128,-1,21
 749 392 749 392 762.5 368 c 128,-1,22
 776 344 776 344 800 334 c 128,-1,23
 824 324 824 324 856 324 c 0,24,25
 908 324 908 324 965 351 c 1,26,-1
 1011 171 l 1,27,28
 903 129 903 129 811 129 c 0,29,30
 733 129 733 129 672.5 152.5 c 128,-1,31
 612 176 612 176 576 226 c 128,-1,32
 540 276 540 276 530.5 354 c 128,-1,33
 521 432 521 432 544 540 c 2,34,-1
 618 886 l 1,35,-1
 479 886 l 1,36,-1
 302 55 l 2,37,38
 290 -1 290 -1 285 -41.5 c 128,-1,39
 280 -82 280 -82 283 -111.5 c 128,-1,40
 286 -141 286 -141 297.5 -161.5 c 128,-1,41
 309 -182 309 -182 330 -196 c 0,42,43
 369 -226 369 -226 436 -226 c 0,44,45
 475 -226 475 -226 509.5 -214.5 c 128,-1,46
 544 -203 544 -203 574.5 -174.5 c 128,-1,47
 605 -146 605 -146 631.5 -99.5 c 128,-1,48
 658 -53 658 -53 681 18 c 1,49,-1
 869 -106 l 1,50,51
 799 -282 799 -282 676 -364 c 128,-1,52
 553 -446 553 -446 389 -446 c 0,53,54
 322 -446 322 -446 266 -429.5 c 128,-1,55
 210 -413 210 -413 166.5 -383.5 c 128,-1,56
 123 -354 123 -354 93 -313.5 c 128,-1,57
 63 -273 63 -273 48 -226 c 1,58,59
 38 -175 38 -175 42 -98.5 c 128,-1,60
 46 -22 46 -22 64 66 c 2,61,-1
 365 1485 l 1,62,-1
 606 1485 l 1,63,-1
 520 1081 l 1,64,-1
 1652 1081 l 1,65,-1
 1611 886 l 1,66,-1
 1294 886 l 1,0,-1
EndSplineSet
EndChar

StartChar: uniE077
Encoding: 119 57463 111
Width: 1354
GlyphClass: 1
Flags: W
AnchorPoint: "TehtaBelow" 854 -500 basechar 0
AnchorPoint: "TehtaAbove" 1154 1800 basechar 0
LayerCount: 2
Fore
SplineSet
1293 1290 m 1,0,-1
 1033 66 l 2,1,2
 1013 -29 1013 -29 986.5 -100 c 128,-1,3
 960 -171 960 -171 924.5 -225.5 c 128,-1,4
 889 -280 889 -280 843 -320 c 128,-1,5
 797 -360 797 -360 738 -391 c 0,6,7
 623 -446 623 -446 491 -446 c 0,8,9
 321 -446 321 -446 232.5 -360 c 128,-1,10
 144 -274 144 -274 155 -106 c 1,11,-1
 398 19 l 1,12,13
 389 -52 389 -52 395 -99.5 c 128,-1,14
 401 -147 401 -147 420 -175 c 128,-1,15
 439 -203 439 -203 468.5 -214.5 c 128,-1,16
 498 -226 498 -226 536 -226 c 0,17,18
 599 -226 599 -226 652.5 -197 c 128,-1,19
 706 -168 706 -168 734 -120 c 0,20,21
 748 -91 748 -91 763 -46.5 c 128,-1,22
 778 -2 778 -2 790 55 c 2,23,-1
 1053 1290 l 1,24,-1
 324 1290 l 1,25,-1
 365 1485 l 1,26,-1
 1602 1485 l 1,27,-1
 1561 1290 l 1,28,-1
 1293 1290 l 1,0,-1
EndSplineSet
EndChar

StartChar: uniE078
Encoding: 120 57464 112
Width: 1490
GlyphClass: 1
Flags: W
AnchorPoint: "TehtaAbove" 1390 1500 basechar 0
AnchorPoint: "TehtaBelow" 990 -200 basechar 0
LayerCount: 2
Fore
SplineSet
1167 348 m 1,0,-1
 1198 493 l 2,1,2
 1216 574 1216 574 1234 658 c 0,3,4
 1260 780 1260 780 1230.5 845 c 128,-1,5
 1201 910 1201 910 1111 910 c 0,6,7
 1018 910 1018 910 961 845 c 128,-1,8
 904 780 904 780 877 651 c 2,9,-1
 812 348 l 1,10,-1
 1167 348 l 1,0,-1
1385 348 m 1,11,-1
 1495 348 l 1,12,-1
 1454 153 l 1,13,-1
 771 153 l 1,14,-1
 753 66 l 2,15,16
 732 -30 732 -30 706 -101 c 128,-1,17
 680 -172 680 -172 645 -226 c 128,-1,18
 610 -280 610 -280 564.5 -319.5 c 128,-1,19
 519 -359 519 -359 459 -391 c 0,20,21
 341 -446 341 -446 211 -446 c 0,22,23
 63 -446 63 -446 -34 -371 c 1,24,-1
 115 -145 l 1,25,26
 169 -226 169 -226 256 -226 c 0,27,28
 319 -226 319 -226 372 -198.5 c 128,-1,29
 425 -171 425 -171 454 -119 c 1,30,-1
 454 -120 l 1,31,32
 469 -91 469 -91 483.5 -47.5 c 128,-1,33
 498 -4 498 -4 510 55 c 2,34,-1
 814 1485 l 1,35,-1
 1054 1485 l 1,36,-1
 965 1067 l 1,37,38
 1006 1084 1006 1084 1054 1094.5 c 128,-1,39
 1102 1105 1102 1105 1150 1105 c 0,40,41
 1244 1105 1244 1105 1310.5 1071 c 128,-1,42
 1377 1037 1377 1037 1415 977.5 c 128,-1,43
 1453 918 1453 918 1462.5 837.5 c 128,-1,44
 1472 757 1472 757 1452 663 c 2,45,-1
 1385 348 l 1,11,-1
EndSplineSet
EndChar

StartChar: uniE079
Encoding: 121 57465 113
Width: 1491
GlyphClass: 1
Flags: W
AnchorPoint: "TehtaBelow" 991 -200 basechar 0
AnchorPoint: "TehtaAbove" 1291 1500 basechar 0
LayerCount: 2
Fore
SplineSet
1279 348 m 1,0,-1
 1355 702 l 2,1,2
 1368 765 1368 765 1366 805 c 128,-1,3
 1364 845 1364 845 1349.5 868.5 c 128,-1,4
 1335 892 1335 892 1311 901 c 128,-1,5
 1287 910 1287 910 1257 910 c 0,6,7
 1216 910 1216 910 1183 896 c 128,-1,8
 1150 882 1150 882 1129 853 c 1,9,10
 1131 783 1131 783 1112 695 c 2,11,-1
 1038 348 l 1,12,-1
 1279 348 l 1,0,-1
693 882 m 1,13,-1
 692 882 l 1,14,-1
 693 883 l 1,15,-1
 693 882 l 1,13,-1
820 348 m 1,16,-1
 896 702 l 2,17,18
 909 764 909 764 907 804.5 c 128,-1,19
 905 845 905 845 891 868.5 c 128,-1,20
 877 892 877 892 853 901 c 128,-1,21
 829 910 829 910 799 910 c 0,22,23
 740 910 740 910 693 882 c 1,24,-1
 579 348 l 1,25,-1
 820 348 l 1,16,-1
1455 153 m 1,26,-1
 538 153 l 1,27,-1
 520 67 l 2,28,29
 490 -74 490 -74 438.5 -171.5 c 128,-1,30
 387 -269 387 -269 315.5 -330 c 128,-1,31
 244 -391 244 -391 153.5 -418.5 c 128,-1,32
 63 -446 63 -446 -44 -446 c 1,33,-1
 2 -224 l 1,34,35
 80 -224 80 -224 128.5 -199.5 c 128,-1,36
 177 -175 177 -175 206.5 -135.5 c 128,-1,37
 236 -96 236 -96 251.5 -45.5 c 128,-1,38
 267 5 267 5 278 58 c 2,39,-1
 581 1485 l 1,40,-1
 821 1485 l 1,41,-1
 738 1095 l 1,42,43
 764 1101 764 1101 790 1103 c 128,-1,44
 816 1105 816 1105 845 1105 c 0,45,46
 914 1105 914 1105 965.5 1088.5 c 128,-1,47
 1017 1072 1017 1072 1055 1033 c 1,48,49
 1107 1071 1107 1071 1168 1088 c 128,-1,50
 1229 1105 1229 1105 1304 1105 c 0,51,52
 1381 1105 1381 1105 1441 1081.5 c 128,-1,53
 1501 1058 1501 1058 1537 1008 c 128,-1,54
 1573 958 1573 958 1583 880.5 c 128,-1,55
 1593 803 1593 803 1570 695 c 2,56,-1
 1455 153 l 1,26,-1
EndSplineSet
EndChar

StartChar: uniE07A
Encoding: 122 57466 114
Width: 1102
GlyphClass: 1
Flags: W
AnchorPoint: "TehtaBelow" 702 -200 basechar 0
AnchorPoint: "TehtaAbove" 1102 1500 basechar 0
LayerCount: 2
Fore
SplineSet
606 1139 m 2,0,1
 591 1170 591 1170 582 1204.5 c 128,-1,2
 573 1239 573 1239 569.5 1280.5 c 128,-1,3
 566 1322 566 1322 568 1372.5 c 128,-1,4
 570 1423 570 1423 578 1485 c 1,5,-1
 802 1484 l 1,6,7
 791 1401 791 1401 794.5 1351 c 128,-1,8
 798 1301 798 1301 812 1272 c 0,9,10
 881 1132 881 1132 954.5 981.5 c 128,-1,11
 1028 831 1028 831 1097 691 c 0,12,13
 1113 654 1113 654 1123 622 c 128,-1,14
 1133 590 1133 590 1136 558 c 128,-1,15
 1139 526 1139 526 1136 493 c 128,-1,16
 1133 460 1133 460 1125 422 c 0,17,18
 1105 326 1105 326 1052.5 241 c 128,-1,19
 1000 156 1000 156 922.5 92.5 c 128,-1,20
 845 29 845 29 746 -8 c 128,-1,21
 647 -45 647 -45 535 -45 c 0,22,23
 320 -45 320 -45 219.5 86.5 c 128,-1,24
 119 218 119 218 147 469 c 1,25,-1
 383 499 l 1,26,27
 377 409 377 409 389 346 c 128,-1,28
 401 283 401 283 427.5 243 c 128,-1,29
 454 203 454 203 493.5 184.5 c 128,-1,30
 533 166 533 166 583 166 c 0,31,32
 636 166 636 166 687.5 188 c 128,-1,33
 739 210 739 210 781.5 247.5 c 128,-1,34
 824 285 824 285 855 333.5 c 128,-1,35
 886 382 886 382 897 435 c 0,36,37
 905 469 905 469 902 506.5 c 128,-1,38
 899 544 899 544 885 568 c 2,39,-1
 606 1139 l 2,0,1
EndSplineSet
EndChar

StartChar: uniE07B
Encoding: 123 57467 115
Width: 1102
GlyphClass: 1
Flags: W
AnchorPoint: "TehtaAbove" 1102 1500 basechar 0
AnchorPoint: "TehtaBelow" 702 -500 basechar 0
LayerCount: 2
Fore
SplineSet
812 36 m 0,0,1
 817 56 817 56 817.5 75 c 128,-1,2
 818 94 818 94 816 111 c 1,3,4
 698 56 698 56 556 56 c 0,5,6
 340 56 340 56 241 188 c 128,-1,7
 142 320 142 320 169 571 c 1,8,-1
 404 602 l 1,9,10
 399 514 399 514 410 450.5 c 128,-1,11
 421 387 421 387 447 346.5 c 128,-1,12
 473 306 473 306 512.5 287 c 128,-1,13
 552 268 552 268 604 268 c 256,14,15
 656 268 656 268 707.5 290 c 128,-1,16
 759 312 759 312 802 348.5 c 128,-1,17
 845 385 845 385 876 434 c 128,-1,18
 907 483 907 483 919 537 c 0,19,20
 931 596 931 596 915 643 c 1,21,-1
 917 641 l 1,22,23
 911 650 911 650 910 660 c 0,24,25
 908 662 908 662 907.5 665.5 c 128,-1,26
 907 669 907 669 906 671 c 0,27,28
 868 730 868 730 831.5 786 c 128,-1,29
 795 842 795 842 758 900 c 0,30,31
 720 958 720 958 682.5 1015 c 128,-1,32
 645 1072 645 1072 608 1132 c 0,33,34
 591 1166 591 1166 581 1201 c 128,-1,35
 571 1236 571 1236 567.5 1277.5 c 128,-1,36
 564 1319 564 1319 567 1369.5 c 128,-1,37
 570 1420 570 1420 578 1485 c 1,38,-1
 802 1484 l 1,39,40
 796 1441 796 1441 793.5 1408.5 c 128,-1,41
 791 1376 791 1376 792.5 1350.5 c 128,-1,42
 794 1325 794 1325 799 1306.5 c 128,-1,43
 804 1288 804 1288 812 1273 c 1,44,-1
 811 1274 l 1,45,46
 849 1213 849 1213 887 1154.5 c 128,-1,47
 925 1096 925 1096 963 1037 c 256,48,49
 1001 978 1001 978 1038.5 918.5 c 128,-1,50
 1076 859 1076 859 1115 799 c 1,51,52
 1151 732 1151 732 1157.5 667.5 c 128,-1,53
 1164 603 1164 603 1147 523 c 0,54,55
 1117 383 1117 383 1020 271 c 1,56,57
 1045 208 1045 208 1050 150.5 c 128,-1,58
 1055 93 1055 93 1040 22 c 0,59,60
 1020 -72 1020 -72 967.5 -156.5 c 128,-1,61
 915 -241 915 -241 837.5 -305 c 128,-1,62
 760 -369 760 -369 661 -406.5 c 128,-1,63
 562 -444 562 -444 450 -444 c 0,64,65
 345 -444 345 -444 266.5 -411 c 128,-1,66
 188 -378 188 -378 138.5 -313.5 c 128,-1,67
 89 -249 89 -249 69 -153 c 128,-1,68
 49 -57 49 -57 62 70 c 1,69,-1
 298 100 l 1,70,71
 293 14 293 14 303.5 -49 c 128,-1,72
 314 -112 314 -112 339.5 -152.5 c 128,-1,73
 365 -193 365 -193 405 -212.5 c 128,-1,74
 445 -232 445 -232 498 -232 c 256,75,76
 551 -232 551 -232 602.5 -209.5 c 128,-1,77
 654 -187 654 -187 697 -150 c 128,-1,78
 740 -113 740 -113 770.5 -64.5 c 128,-1,79
 801 -16 801 -16 812 36 c 0,0,1
EndSplineSet
EndChar

StartChar: uniE07C
Encoding: 124 57468 116
Width: 1157
GlyphClass: 1
Flags: W
AnchorPoint: "TehtaBelow" 657 -500 basechar 0
AnchorPoint: "TehtaAbove" 957 1500 basechar 0
LayerCount: 2
Fore
SplineSet
-29 -454 m 1,0,1
 -7 -384 -7 -384 17.5 -338.5 c 128,-1,2
 42 -293 42 -293 68.5 -265.5 c 128,-1,3
 95 -238 95 -238 124 -224.5 c 128,-1,4
 153 -211 153 -211 185 -204 c 0,5,6
 245 -192 245 -192 417 -192 c 0,7,8
 521 -192 521 -192 591.5 -183 c 128,-1,9
 662 -174 662 -174 710 -154 c 128,-1,10
 758 -134 758 -134 789 -103.5 c 128,-1,11
 820 -73 820 -73 845 -29 c 0,12,13
 865 4 865 4 881 42.5 c 128,-1,14
 897 81 897 81 911 126 c 1,15,16
 878 96 878 96 843 72.5 c 128,-1,17
 808 49 808 49 774 33 c 1,18,-1
 775 34 l 1,19,20
 670 -20 670 -20 548 -20 c 0,21,22
 441 -20 441 -20 357 18 c 128,-1,23
 273 56 273 56 220.5 127 c 128,-1,24
 168 198 168 198 151.5 300 c 128,-1,25
 135 402 135 402 162 531 c 0,26,27
 181 622 181 622 217.5 700 c 128,-1,28
 254 778 254 778 301 841.5 c 128,-1,29
 348 905 348 905 402.5 953.5 c 128,-1,30
 457 1002 457 1002 512 1036 c 0,31,32
 538 1050 538 1050 570.5 1062.5 c 128,-1,33
 603 1075 603 1075 639.5 1084.5 c 128,-1,34
 676 1094 676 1094 715.5 1099.5 c 128,-1,35
 755 1105 755 1105 794 1105 c 0,36,37
 892 1105 892 1105 963 1081 c 128,-1,38
 1034 1057 1034 1057 1082.5 1014.5 c 128,-1,39
 1131 972 1131 972 1159.5 913 c 128,-1,40
 1188 854 1188 854 1201 784 c 1,41,-1
 1200 785 l 1,42,43
 1228 648 1228 648 1156 309 c 0,44,45
 1066 -119 1066 -119 885 -270 c 0,46,47
 704 -422 704 -422 400 -422 c 2,48,-1
 368 -422 l 2,49,50
 307 -422 307 -422 271 -422.5 c 128,-1,51
 235 -423 235 -423 215 -426.5 c 128,-1,52
 195 -430 195 -430 186.5 -437 c 128,-1,53
 178 -444 178 -444 172 -456 c 1,54,-1
 -29 -454 l 1,0,1
396 527 m 0,55,56
 379 450 379 450 383.5 385.5 c 128,-1,57
 388 321 388 321 413 274 c 128,-1,58
 438 227 438 227 483.5 201 c 128,-1,59
 529 175 529 175 595 175 c 0,60,61
 664 175 664 175 722.5 202.5 c 128,-1,62
 781 230 781 230 828 280 c 128,-1,63
 875 330 875 330 909 401 c 128,-1,64
 943 472 943 472 961 559 c 0,65,66
 979 644 979 644 971 710 c 128,-1,67
 963 776 963 776 934.5 821 c 128,-1,68
 906 866 906 866 859 889.5 c 128,-1,69
 812 913 812 913 753 913 c 0,70,71
 689 913 689 913 632 884 c 128,-1,72
 575 855 575 855 528.5 803.5 c 128,-1,73
 482 752 482 752 448 681.5 c 128,-1,74
 414 611 414 611 396 527 c 0,55,56
EndSplineSet
EndChar

StartChar: uniE07D
Encoding: 125 57469 117
Width: 0
Flags: W
AnchorPoint: "TehtaBelow" -400 -200 mark 0
AnchorPoint: "mkmk_down" -500 -500 basemark 0
AnchorPoint: "mkmk_down" -400 -200 mark 0
LayerCount: 2
Fore
SplineSet
-570 -149 m 256,0,1
 -525 -149 -525 -149 -490 -165.5 c 128,-1,2
 -455 -182 -455 -182 -432 -210.5 c 128,-1,3
 -409 -239 -409 -239 -401 -277.5 c 128,-1,4
 -393 -316 -393 -316 -402 -360 c 0,5,6
 -411 -403 -411 -403 -436.5 -440.5 c 128,-1,7
 -462 -478 -462 -478 -497.5 -505.5 c 128,-1,8
 -533 -533 -533 -533 -575 -549 c 128,-1,9
 -617 -565 -617 -565 -659 -565 c 0,10,11
 -703 -565 -703 -565 -738 -548.5 c 128,-1,12
 -773 -532 -773 -532 -795.5 -503.5 c 128,-1,13
 -818 -475 -818 -475 -827 -436.5 c 128,-1,14
 -836 -398 -836 -398 -827 -355 c 0,15,16
 -818 -314 -818 -314 -793.5 -277 c 128,-1,17
 -769 -240 -769 -240 -734.5 -211.5 c 128,-1,18
 -700 -183 -700 -183 -657.5 -166 c 128,-1,19
 -615 -149 -615 -149 -570 -149 c 256,0,1
-595 -264 m 0,20,21
 -616 -264 -616 -264 -635.5 -272 c 128,-1,22
 -655 -280 -655 -280 -671 -292.5 c 128,-1,23
 -687 -305 -687 -305 -697.5 -321.5 c 128,-1,24
 -708 -338 -708 -338 -712 -355 c 0,25,26
 -716 -373 -716 -373 -712 -390 c 128,-1,27
 -708 -407 -708 -407 -697.5 -420 c 128,-1,28
 -687 -433 -687 -433 -671 -441 c 128,-1,29
 -655 -449 -655 -449 -634 -449 c 256,30,31
 -613 -449 -613 -449 -593.5 -441.5 c 128,-1,32
 -574 -434 -574 -434 -558 -421 c 128,-1,33
 -542 -408 -542 -408 -531 -391.5 c 128,-1,34
 -520 -375 -520 -375 -517 -358 c 0,35,36
 -513 -340 -513 -340 -517 -323 c 128,-1,37
 -521 -306 -521 -306 -532 -293 c 128,-1,38
 -543 -280 -543 -280 -559 -272 c 128,-1,39
 -575 -264 -575 -264 -595 -264 c 0,20,21
EndSplineSet
EndChar

StartChar: bar_above_narrow
Encoding: 129 -1 119
Width: 0
AnchorPoint: "mkmk_up" -150 1700 basemark 0
AnchorPoint: "mkmk_up" -200 1500 mark 0
AnchorPoint: "TehtaAbove" -200 1500 mark 0
LayerCount: 2
Fore
SplineSet
-42 1215 m 1,0,-1
 -496 1215 l 1,1,-1
 -447 1419 l 1,2,-1
 6 1419 l 1,3,-1
 -42 1215 l 1,0,-1
EndSplineSet
EndChar

StartChar: bar_above_wide
Encoding: 130 -1 120
Width: 0
AnchorPoint: "mkmk_up" -150 1700 basemark 0
AnchorPoint: "mkmk_up" -200 1500 mark 0
AnchorPoint: "TehtaAbove" -200 1500 mark 0
LayerCount: 2
Fore
SplineSet
273 1233 m 1,0,-1
 -814 1233 l 1,1,-1
 -772 1403 l 1,2,-1
 315 1403 l 1,3,-1
 273 1233 l 1,0,-1
EndSplineSet
EndChar

StartChar: bar_below_narrow
Encoding: 131 -1 121
Width: 0
AnchorPoint: "mkmk_down" -500 -500 basemark 0
AnchorPoint: "mkmk_down" -400 -200 mark 0
AnchorPoint: "TehtaBelow" -400 -200 mark 0
LayerCount: 2
Fore
SplineSet
-416 -346 m 5,0,-1
 -870 -346 l 5,1,-1
 -821 -142 l 5,2,-1
 -367 -142 l 5,3,-1
 -416 -346 l 5,0,-1
EndSplineSet
EndChar

StartChar: bar_below_wide
Encoding: 132 -1 122
Width: 0
AnchorPoint: "mkmk_down" -500 -500 basemark 0
AnchorPoint: "mkmk_down" -400 -200 mark 0
AnchorPoint: "TehtaBelow" -400 -200 mark 0
LayerCount: 2
Fore
SplineSet
-104 -346 m 1,0,-1
 -1192 -346 l 1,1,-1
 -1150 -176 l 1,2,-1
 -62 -176 l 1,3,-1
 -104 -346 l 1,0,-1
EndSplineSet
EndChar

StartChar: lambe_bar_below
Encoding: 133 -1 123
Width: 0
Flags: W
AnchorPoint: "LambeBar" -175 800 mark 0
LayerCount: 2
Fore
SplineSet
18 615 m 1,0,-1
 -436 615 l 1,1,-1
 -397 799 l 1,2,-1
 56 799 l 1,3,-1
 18 615 l 1,0,-1
EndSplineSet
EndChar

StartChar: uniE05B
Encoding: 97 57435 124
Width: 0
Flags: W
AnchorPoint: "mkmk_up" -200 1500 mark 0
AnchorPoint: "mkmk_up" -100 1800 basemark 0
AnchorPoint: "TehtaAbove" -200 1500 mark 0
LayerCount: 2
Fore
SplineSet
92 1262 m 1,0,-1
 -176 1262 l 1,1,-1
 -239 1413 l 1,2,3
 -253 1398 -253 1398 -265 1383.5 c 128,-1,4
 -277 1369 -277 1369 -291 1354 c 0,5,6
 -310 1333 -310 1333 -331.5 1308 c 128,-1,7
 -353 1283 -353 1283 -372 1262 c 1,8,-1
 -637 1262 l 1,9,-1
 -314 1589 l 1,10,-1
 -102 1589 l 1,11,-1
 92 1262 l 1,0,-1
EndSplineSet
EndChar

StartChar: uniE05C
Encoding: 98 57436 125
Width: 0
Flags: W
AnchorPoint: "mkmk_up" -200 1500 mark 0
AnchorPoint: "mkmk_up" -100 1800 basemark 0
AnchorPoint: "TehtaAbove" -200 1500 mark 0
LayerCount: 2
Fore
SplineSet
155 1590 m 1,0,-1
 -167 1264 l 1,1,-1
 -378 1264 l 1,2,-1
 -573 1590 l 1,3,-1
 -305 1590 l 1,4,-1
 -241 1439 l 1,5,6
 -227 1454 -227 1454 -215.5 1468 c 128,-1,7
 -204 1482 -204 1482 -190 1497 c 0,8,9
 -172 1518 -172 1518 -149.5 1543.5 c 128,-1,10
 -127 1569 -127 1569 -108 1590 c 1,11,-1
 155 1590 l 1,0,-1
EndSplineSet
EndChar

StartChar: harmasilme
Encoding: 134 -1 126
Width: 1732
Flags: W
LayerCount: 2
Fore
SplineSet
1918 1485 m 1,0,-1
 1598 -20 l 1,1,-1
 1372 -20 l 1,2,-1
 1393 77 l 1,3,4
 1324 15 1324 15 1249 -14 c 128,-1,5
 1174 -43 1174 -43 1086 -43 c 0,6,7
 989 -43 989 -43 920 -1.5 c 128,-1,8
 851 40 851 40 812 130 c 1,9,10
 735 35 735 35 647.5 -4 c 128,-1,11
 560 -43 560 -43 468 -43 c 0,12,13
 363 -43 363 -43 292 -2.5 c 128,-1,14
 221 38 221 38 182 108 c 128,-1,15
 143 178 143 178 135.5 272 c 128,-1,16
 128 366 128 366 151 472 c 0,17,18
 182 619 182 619 235.5 746 c 128,-1,19
 289 873 289 873 360.5 976.5 c 128,-1,20
 432 1080 432 1080 518 1159 c 128,-1,21
 604 1238 604 1238 701 1288 c 0,22,23
 896 1385 896 1385 1151.5 1435 c 128,-1,24
 1407 1485 1407 1485 1717 1485 c 2,25,-1
 1918 1485 l 1,0,-1
1651 1290 m 1,26,27
 1468 1284 1468 1284 1286 1258.5 c 128,-1,28
 1104 1233 1104 1233 947 1188 c 0,29,30
 622 1096 622 1096 456 711 c 0,31,32
 433 660 433 660 416 608.5 c 128,-1,33
 399 557 399 557 388 506 c 0,34,35
 370 422 370 422 370.5 355 c 128,-1,36
 371 288 371 288 388 241.5 c 128,-1,37
 405 195 405 195 436.5 170 c 128,-1,38
 468 145 468 145 512 145 c 0,39,40
 561 145 561 145 605.5 172 c 128,-1,41
 650 199 650 199 687.5 247.5 c 128,-1,42
 725 296 725 296 753.5 364 c 128,-1,43
 782 432 782 432 800 513 c 1,44,-1
 801 520 l 1,45,46
 858 786 858 786 1086 1081 c 1,47,-1
 1311 1081 l 1,48,49
 1254 993 1254 993 1213 926.5 c 128,-1,50
 1172 860 1172 860 1143 808 c 128,-1,51
 1114 756 1114 756 1094.5 716 c 128,-1,52
 1075 676 1075 676 1062.5 641.5 c 128,-1,53
 1050 607 1050 607 1041.5 574.5 c 128,-1,54
 1033 542 1033 542 1025 506 c 0,55,56
 1007 422 1007 422 1008 355.5 c 128,-1,57
 1009 289 1009 289 1025.5 242 c 128,-1,58
 1042 195 1042 195 1073.5 170 c 128,-1,59
 1105 145 1105 145 1148 145 c 0,60,61
 1182 145 1182 145 1219.5 157.5 c 128,-1,62
 1257 170 1257 170 1292 192 c 128,-1,63
 1327 214 1327 214 1358 243.5 c 128,-1,64
 1389 273 1389 273 1410 306 c 0,65,66
 1431 337 1431 337 1443 360.5 c 128,-1,67
 1455 384 1455 384 1462 401 c 2,68,-1
 1651 1290 l 1,26,27
EndSplineSet
Ligature2: "Ligatures subtable" uniE024 zwj uniE00A
EndChar

StartChar: harmatinco
Encoding: 135 -1 127
Width: 1733
Flags: W
LayerCount: 2
Fore
SplineSet
880 -426 m 1,0,-1
 653 -426 l 1,1,-1
 760 76 l 1,2,3
 691 14 691 14 615 -15.5 c 128,-1,4
 539 -45 539 -45 451 -45 c 256,5,6
 363 -45 363 -45 296 -8.5 c 128,-1,7
 229 28 229 28 189 98.5 c 128,-1,8
 149 169 149 169 139.5 273 c 128,-1,9
 130 377 130 377 159 512 c 0,10,11
 216 779 216 779 448 1081 c 1,12,-1
 673 1081 l 1,13,14
 616 994 616 994 575 927.5 c 128,-1,15
 534 861 534 861 505 809.5 c 128,-1,16
 476 758 476 758 456.5 717.5 c 128,-1,17
 437 677 437 677 424.5 642 c 128,-1,18
 412 607 412 607 403.5 574.5 c 128,-1,19
 395 542 395 542 387 506 c 0,20,21
 369 423 369 423 370 356 c 128,-1,22
 371 289 371 289 387.5 242 c 128,-1,23
 404 195 404 195 435 169.5 c 128,-1,24
 466 144 466 144 510 144 c 2,25,-1
 514 144 l 2,26,27
 563 144 563 144 611.5 166 c 128,-1,28
 660 188 660 188 701.5 223 c 128,-1,29
 743 258 743 258 775.5 301.5 c 128,-1,30
 808 345 808 345 826 387 c 1,31,-1
 1059 1485 l 1,32,-1
 1286 1485 l 1,33,-1
 1180 984 l 1,34,35
 1248 1046 1248 1046 1324 1075.5 c 128,-1,36
 1400 1105 1400 1105 1488 1105 c 256,37,38
 1576 1105 1576 1105 1643.5 1068.5 c 128,-1,39
 1711 1032 1711 1032 1750.5 961 c 128,-1,40
 1790 890 1790 890 1799 786.5 c 128,-1,41
 1808 683 1808 683 1780 549 c 0,42,43
 1751 409 1751 409 1679.5 270.5 c 128,-1,44
 1608 132 1608 132 1493 -20 c 1,45,-1
 1265 -20 l 1,46,47
 1353 114 1353 114 1407.5 205.5 c 128,-1,48
 1462 297 1462 297 1483 350 c 0,49,50
 1532 458 1532 458 1551 555 c 0,51,52
 1569 637 1569 637 1568.5 704 c 128,-1,53
 1568 771 1568 771 1551.5 818 c 128,-1,54
 1535 865 1535 865 1503 890.5 c 128,-1,55
 1471 916 1471 916 1426 916 c 0,56,57
 1377 916 1377 916 1329 894 c 128,-1,58
 1281 872 1281 872 1239 836.5 c 128,-1,59
 1197 801 1197 801 1164.5 758 c 128,-1,60
 1132 715 1132 715 1114 673 c 1,61,-1
 880 -426 l 1,0,-1
EndSplineSet
Ligature2: "Ligatures subtable" uniE00A zwj uniE000
EndChar

StartChar: hwestatinco
Encoding: 136 -1 128
Width: 1810
Flags: W
LayerCount: 2
Fore
SplineSet
957 -425 m 1,0,-1
 729 -425 l 1,1,-1
 835 74 l 1,2,3
 768 13 768 13 692 -16 c 128,-1,4
 616 -45 616 -45 527 -45 c 0,5,6
 439 -45 439 -45 371.5 -8.5 c 128,-1,7
 304 28 304 28 264.5 98.5 c 128,-1,8
 225 169 225 169 215.5 273 c 128,-1,9
 206 377 206 377 235 512 c 0,10,11
 255 602 255 602 293.5 696.5 c 128,-1,12
 332 791 332 791 388 886 c 1,13,-1
 239 886 l 1,14,-1
 280 1081 l 1,15,-1
 1049 1081 l 1,16,-1
 1135 1485 l 1,17,-1
 1362 1485 l 1,18,-1
 1256 984 l 1,19,20
 1324 1046 1324 1046 1400 1075.5 c 128,-1,21
 1476 1105 1476 1105 1564 1105 c 256,22,23
 1652 1105 1652 1105 1719 1068.5 c 128,-1,24
 1786 1032 1786 1032 1826 961.5 c 128,-1,25
 1866 891 1866 891 1875 787 c 128,-1,26
 1884 683 1884 683 1856 549 c 0,27,28
 1799 280 1799 280 1568 -20 c 1,29,-1
 1342 -20 l 1,30,31
 1398 68 1398 68 1439 135 c 128,-1,32
 1480 202 1480 202 1509.5 253.5 c 128,-1,33
 1539 305 1539 305 1558 345.5 c 128,-1,34
 1577 386 1577 386 1590.5 420.5 c 128,-1,35
 1604 455 1604 455 1612 487 c 128,-1,36
 1620 519 1620 519 1628 555 c 0,37,38
 1645 633 1645 633 1645 699.5 c 128,-1,39
 1645 766 1645 766 1629 814 c 128,-1,40
 1613 862 1613 862 1581 889 c 128,-1,41
 1549 916 1549 916 1503 916 c 0,42,43
 1467 916 1467 916 1430.5 903.5 c 128,-1,44
 1394 891 1394 891 1360.5 871.5 c 128,-1,45
 1327 852 1327 852 1298.5 828 c 128,-1,46
 1270 804 1270 804 1251 782 c 0,47,48
 1233 763 1233 763 1218.5 734.5 c 128,-1,49
 1204 706 1204 706 1191 674 c 1,50,-1
 957 -425 l 1,0,-1
627 886 m 1,51,52
 584 815 584 815 555.5 760.5 c 128,-1,53
 527 706 527 706 508.5 661 c 128,-1,54
 490 616 490 616 479 578.5 c 128,-1,55
 468 541 468 541 461 506 c 0,56,57
 444 428 444 428 444.5 361.5 c 128,-1,58
 445 295 445 295 461 247 c 128,-1,59
 477 199 477 199 509 171.5 c 128,-1,60
 541 144 541 144 589 144 c 0,61,62
 626 144 626 144 663 156.5 c 128,-1,63
 700 169 700 169 734.5 191.5 c 128,-1,64
 769 214 769 214 799.5 243.5 c 128,-1,65
 830 273 830 273 854 308 c 1,66,-1
 854 307 l 1,67,68
 926 413 926 413 964 589 c 1,69,-1
 966 602 l 1,70,71
 984 689 984 689 995 758.5 c 128,-1,72
 1006 828 1006 828 1011 886 c 1,73,-1
 627 886 l 1,51,52
EndSplineSet
Ligature2: "Ligatures subtable" uniE00B zwj uniE000
EndChar

StartChar: uni2E31
Encoding: 7 11825 129
Width: 361
Flags: W
LayerCount: 2
Fore
SplineSet
439 656 m 1,0,-1
 386 405 l 1,1,-1
 134 405 l 1,2,-1
 187 656 l 1,3,-1
 439 656 l 1,0,-1
EndSplineSet
EndChar

StartChar: colon
Encoding: 2 58 130
Width: 361
Flags: W
LayerCount: 2
Fore
SplineSet
394 444 m 1,0,-1
 340 192 l 1,1,-1
 88 192 l 1,2,-1
 142 444 l 1,3,-1
 394 444 l 1,0,-1
484 869 m 1,4,-1
 431 617 l 1,5,-1
 179 617 l 1,6,-1
 232 869 l 1,7,-1
 484 869 l 1,4,-1
EndSplineSet
EndChar

StartChar: uni204A
Encoding: 3 8266 131
Width: 855
Flags: W
LayerCount: 2
Fore
SplineSet
761 886 m 1,0,-1
 237 886 l 1,1,-1
 278 1081 l 1,2,-1
 1020 1081 l 1,3,-1
 868 365 l 2,4,5
 845 256 845 256 802 178.5 c 128,-1,6
 759 101 759 101 701.5 51.5 c 128,-1,7
 644 2 644 2 574.5 -21.5 c 128,-1,8
 505 -45 505 -45 427 -45 c 0,9,10
 332 -45 332 -45 247 -3 c 1,11,-1
 365 176 l 1,12,13
 414 150 414 150 463 150 c 0,14,15
 493 150 493 150 521 159 c 128,-1,16
 549 168 549 168 573 191.5 c 128,-1,17
 597 215 597 215 616 255 c 128,-1,18
 635 295 635 295 649 358 c 2,19,-1
 761 886 l 1,0,-1
EndSplineSet
EndChar

StartChar: uni205D
Encoding: 5 8285 132
Width: 361
Flags: W
LayerCount: 2
Fore
SplineSet
529 1081 m 1,0,-1
 476 830 l 1,1,-1
 224 830 l 1,2,-1
 277 1081 l 1,3,-1
 529 1081 l 1,0,-1
349 231 m 1,4,-1
 295 -20 l 1,5,-1
 43 -20 l 1,6,-1
 97 231 l 1,7,-1
 349 231 l 1,4,-1
439 656 m 1,8,-1
 386 405 l 1,9,-1
 134 405 l 1,10,-1
 187 656 l 1,11,-1
 439 656 l 1,8,-1
EndSplineSet
EndChar

StartChar: uni2E2D
Encoding: 6 11821 133
Width: 1217
Flags: W
LayerCount: 2
Fore
SplineSet
955 1081 m 1,0,-1
 902 830 l 1,1,-1
 652 830 l 1,2,-1
 705 1081 l 1,3,-1
 955 1081 l 1,0,-1
775 231 m 1,4,-1
 721 -20 l 1,5,-1
 471 -20 l 1,6,-1
 525 231 l 1,7,-1
 775 231 l 1,4,-1
865 656 m 1,8,-1
 812 405 l 1,9,-1
 562 405 l 1,10,-1
 615 656 l 1,11,-1
 865 656 l 1,8,-1
1039 656 m 1,12,-1
 1290 656 l 1,13,-1
 1237 405 l 1,14,-1
 986 405 l 1,15,-1
 1039 656 l 1,12,-1
189 656 m 1,16,-1
 440 656 l 1,17,-1
 387 405 l 1,18,-1
 136 405 l 1,19,-1
 189 656 l 1,16,-1
EndSplineSet
EndChar

StartChar: uni2058
Encoding: 4 8280 134
Width: 945
Flags: W
LayerCount: 2
Fore
SplineSet
188 656 m 1,0,-1
 440 656 l 1,1,-1
 387 405 l 1,2,-1
 135 405 l 1,3,-1
 188 656 l 1,0,-1
768 656 m 1,4,-1
 1019 656 l 1,5,-1
 966 405 l 1,6,-1
 715 405 l 1,7,-1
 768 656 l 1,4,-1
673 395 m 1,8,-1
 620 144 l 1,9,-1
 369 144 l 1,10,-1
 422 395 l 1,11,-1
 673 395 l 1,8,-1
784 917 m 1,12,-1
 731 666 l 1,13,-1
 480 666 l 1,14,-1
 533 917 l 1,15,-1
 784 917 l 1,12,-1
EndSplineSet
EndChar

StartChar: rightcurl_above_double
Encoding: 137 -1 135
Width: 0
Flags: W
AnchorPoint: "mkmk_up" -200 1500 mark 0
AnchorPoint: "mkmk_up" -100 1800 basemark 0
AnchorPoint: "TehtaAbove" -200 1500 mark 0
LayerCount: 2
Fore
SplineSet
151 1375 m 1,0,1
 156 1427 156 1427 155 1467 c 128,-1,2
 154 1507 154 1507 143 1525 c 0,3,4
 135 1538 135 1538 121.5 1542.5 c 128,-1,5
 108 1547 108 1547 93 1542 c 1,6,-1
 95 1542 l 1,7,8
 74 1532 74 1532 33 1491 c 2,9,-1
 -251 1205 l 1,10,-1
 -339 1342 l 1,11,-1
 16 1697 l 2,12,13
 53 1730 53 1730 87.5 1741 c 128,-1,14
 122 1752 122 1752 152.5 1747 c 128,-1,15
 183 1742 183 1742 208.5 1722.5 c 128,-1,16
 234 1703 234 1703 254 1673 c 0,17,18
 269 1651 269 1651 277.5 1623 c 128,-1,19
 286 1595 286 1595 292 1564 c 128,-1,20
 298 1533 298 1533 300 1500 c 128,-1,21
 302 1467 302 1467 302 1436 c 1,22,-1
 151 1375 l 1,0,1
-177 1374 m 1,23,24
 -172 1426 -172 1426 -172.5 1466 c 128,-1,25
 -173 1506 -173 1506 -184 1525 c 0,26,27
 -192 1538 -192 1538 -206 1542 c 128,-1,28
 -220 1546 -220 1546 -234 1542 c 1,29,-1
 -232 1542 l 1,30,31
 -253 1532 -253 1532 -295 1491 c 2,32,-1
 -578 1204 l 1,33,-1
 -667 1341 l 1,34,-1
 -311 1696 l 2,35,36
 -274 1729 -274 1729 -239.5 1740.5 c 128,-1,37
 -205 1752 -205 1752 -174.5 1747 c 128,-1,38
 -144 1742 -144 1742 -118.5 1722 c 128,-1,39
 -93 1702 -93 1702 -73 1672 c 0,40,41
 -58 1650 -58 1650 -49.5 1622.5 c 128,-1,42
 -41 1595 -41 1595 -35 1563.5 c 128,-1,43
 -29 1532 -29 1532 -27 1499 c 128,-1,44
 -25 1466 -25 1466 -25 1435 c 1,45,-1
 -177 1374 l 1,23,24
EndSplineSet
Ligature2: "Ligatures subtable" uniE04A uniE04A
LCarets2: 1 0
EndChar

StartChar: leftcurl_above_double
Encoding: 138 -1 136
Width: 0
Flags: W
AnchorPoint: "mkmk_up" -200 1500 mark 0
AnchorPoint: "mkmk_up" -100 1800 basemark 0
AnchorPoint: "TehtaAbove" -200 1500 mark 0
LayerCount: 2
Fore
SplineSet
75 1933 m 1,0,1
 129 1917 129 1917 178.5 1889.5 c 128,-1,2
 228 1862 228 1862 252 1823 c 0,3,4
 270 1795 270 1795 280.5 1760.5 c 128,-1,5
 291 1726 291 1726 289 1688.5 c 128,-1,6
 287 1651 287 1651 271 1611 c 128,-1,7
 255 1571 255 1571 221 1532 c 2,8,-1
 -137 1173 l 1,9,-1
 -226 1310 l 1,10,-1
 61 1594 l 2,11,12
 82 1615 82 1615 94.5 1630 c 128,-1,13
 107 1645 107 1645 113 1657.5 c 128,-1,14
 119 1670 119 1670 120 1680.5 c 128,-1,15
 121 1691 121 1691 119 1701 c 0,16,17
 117 1706 117 1706 115.5 1711 c 128,-1,18
 114 1716 114 1716 112 1718 c 0,19,20
 106 1727 106 1727 95 1736 c 1,21,-1
 96 1736 l 1,22,23
 81 1744 81 1744 56.5 1751 c 128,-1,24
 32 1758 32 1758 -6 1762 c 1,25,-1
 75 1933 l 1,0,1
-210 1933 m 1,26,27
 -156 1917 -156 1917 -106.5 1889.5 c 128,-1,28
 -57 1862 -57 1862 -33 1823 c 0,29,30
 -15 1795 -15 1795 -4.5 1760.5 c 128,-1,31
 6 1726 6 1726 4 1688.5 c 128,-1,32
 2 1651 2 1651 -14 1611 c 128,-1,33
 -30 1571 -30 1571 -64 1532 c 2,34,-1
 -422 1173 l 1,35,-1
 -511 1310 l 1,36,-1
 -224 1594 l 2,37,38
 -203 1615 -203 1615 -190.5 1630 c 128,-1,39
 -178 1645 -178 1645 -172 1657.5 c 128,-1,40
 -166 1670 -166 1670 -164.5 1680.5 c 128,-1,41
 -163 1691 -163 1691 -166 1702 c 0,42,43
 -168 1707 -168 1707 -169.5 1711.5 c 128,-1,44
 -171 1716 -171 1716 -173 1718 c 0,45,46
 -179 1727 -179 1727 -190 1736 c 1,47,-1
 -189 1736 l 1,48,49
 -204 1744 -204 1744 -228.5 1751 c 128,-1,50
 -253 1758 -253 1758 -291 1762 c 1,51,-1
 -210 1933 l 1,26,27
EndSplineSet
Ligature2: "Ligatures subtable" uniE04C uniE04C
LCarets2: 1 0
EndChar

StartChar: lambe_xhook
Encoding: 140 -1 138
Width: 0
Flags: W
AnchorPoint: "LambeXhook" -350 0 mark 0
LayerCount: 2
Fore
SplineSet
-756 -582 m 1,0,1
 -805 -553 -805 -553 -846 -515 c 128,-1,2
 -887 -477 -887 -477 -902 -433 c 0,3,4
 -914 -398 -914 -398 -913.5 -361.5 c 128,-1,5
 -913 -325 -913 -325 -900.5 -289 c 128,-1,6
 -888 -253 -888 -253 -861.5 -218.5 c 128,-1,7
 -835 -184 -835 -184 -794 -155 c 1,8,-1
 -356 98 l 1,9,-1
 -306 -56 l 1,10,-1
 -656 -257 l 2,11,12
 -711 -289 -711 -289 -729.5 -312.5 c 128,-1,13
 -748 -336 -748 -336 -739 -365 c 0,14,15
 -727 -401 -727 -401 -636 -437 c 1,16,-1
 -756 -582 l 1,0,1
EndSplineSet
EndChar
